%TF.GenerationSoftware,KiCad,Pcbnew,(5.1.7)-1*%
%TF.CreationDate,2021-02-10T19:53:02+00:00*%
%TF.ProjectId,SCSI to SCA MK5.1,53435349-2074-46f2-9053-4341204d4b35,rev?*%
%TF.SameCoordinates,Original*%
%TF.FileFunction,Paste,Top*%
%TF.FilePolarity,Positive*%
%FSLAX46Y46*%
G04 Gerber Fmt 4.6, Leading zero omitted, Abs format (unit mm)*
G04 Created by KiCad (PCBNEW (5.1.7)-1) date 2021-02-10 19:53:02*
%MOMM*%
%LPD*%
G01*
G04 APERTURE LIST*
%ADD10R,2.000000X1.500000*%
%ADD11R,2.000000X3.800000*%
G04 APERTURE END LIST*
D10*
%TO.C,U1*%
X32410000Y-124065000D03*
X32410000Y-128665000D03*
X32410000Y-126365000D03*
D11*
X38710000Y-126365000D03*
%TD*%
%TO.C,D3*%
G36*
G01*
X40837500Y-136146250D02*
X40837500Y-135633750D01*
G75*
G02*
X41056250Y-135415000I218750J0D01*
G01*
X41493750Y-135415000D01*
G75*
G02*
X41712500Y-135633750I0J-218750D01*
G01*
X41712500Y-136146250D01*
G75*
G02*
X41493750Y-136365000I-218750J0D01*
G01*
X41056250Y-136365000D01*
G75*
G02*
X40837500Y-136146250I0J218750D01*
G01*
G37*
G36*
G01*
X39262500Y-136146250D02*
X39262500Y-135633750D01*
G75*
G02*
X39481250Y-135415000I218750J0D01*
G01*
X39918750Y-135415000D01*
G75*
G02*
X40137500Y-135633750I0J-218750D01*
G01*
X40137500Y-136146250D01*
G75*
G02*
X39918750Y-136365000I-218750J0D01*
G01*
X39481250Y-136365000D01*
G75*
G02*
X39262500Y-136146250I0J218750D01*
G01*
G37*
%TD*%
%TO.C,R32*%
G36*
G01*
X45904998Y-132480000D02*
X46805002Y-132480000D01*
G75*
G02*
X47055000Y-132729998I0J-249998D01*
G01*
X47055000Y-133255002D01*
G75*
G02*
X46805002Y-133505000I-249998J0D01*
G01*
X45904998Y-133505000D01*
G75*
G02*
X45655000Y-133255002I0J249998D01*
G01*
X45655000Y-132729998D01*
G75*
G02*
X45904998Y-132480000I249998J0D01*
G01*
G37*
G36*
G01*
X45904998Y-130655000D02*
X46805002Y-130655000D01*
G75*
G02*
X47055000Y-130904998I0J-249998D01*
G01*
X47055000Y-131430002D01*
G75*
G02*
X46805002Y-131680000I-249998J0D01*
G01*
X45904998Y-131680000D01*
G75*
G02*
X45655000Y-131430002I0J249998D01*
G01*
X45655000Y-130904998D01*
G75*
G02*
X45904998Y-130655000I249998J0D01*
G01*
G37*
%TD*%
%TO.C,R31*%
G36*
G01*
X48444998Y-132480000D02*
X49345002Y-132480000D01*
G75*
G02*
X49595000Y-132729998I0J-249998D01*
G01*
X49595000Y-133255002D01*
G75*
G02*
X49345002Y-133505000I-249998J0D01*
G01*
X48444998Y-133505000D01*
G75*
G02*
X48195000Y-133255002I0J249998D01*
G01*
X48195000Y-132729998D01*
G75*
G02*
X48444998Y-132480000I249998J0D01*
G01*
G37*
G36*
G01*
X48444998Y-130655000D02*
X49345002Y-130655000D01*
G75*
G02*
X49595000Y-130904998I0J-249998D01*
G01*
X49595000Y-131430002D01*
G75*
G02*
X49345002Y-131680000I-249998J0D01*
G01*
X48444998Y-131680000D01*
G75*
G02*
X48195000Y-131430002I0J249998D01*
G01*
X48195000Y-130904998D01*
G75*
G02*
X48444998Y-130655000I249998J0D01*
G01*
G37*
%TD*%
%TO.C,R30*%
G36*
G01*
X50984998Y-132480000D02*
X51885002Y-132480000D01*
G75*
G02*
X52135000Y-132729998I0J-249998D01*
G01*
X52135000Y-133255002D01*
G75*
G02*
X51885002Y-133505000I-249998J0D01*
G01*
X50984998Y-133505000D01*
G75*
G02*
X50735000Y-133255002I0J249998D01*
G01*
X50735000Y-132729998D01*
G75*
G02*
X50984998Y-132480000I249998J0D01*
G01*
G37*
G36*
G01*
X50984998Y-130655000D02*
X51885002Y-130655000D01*
G75*
G02*
X52135000Y-130904998I0J-249998D01*
G01*
X52135000Y-131430002D01*
G75*
G02*
X51885002Y-131680000I-249998J0D01*
G01*
X50984998Y-131680000D01*
G75*
G02*
X50735000Y-131430002I0J249998D01*
G01*
X50735000Y-130904998D01*
G75*
G02*
X50984998Y-130655000I249998J0D01*
G01*
G37*
%TD*%
%TO.C,R29*%
G36*
G01*
X53524998Y-132480000D02*
X54425002Y-132480000D01*
G75*
G02*
X54675000Y-132729998I0J-249998D01*
G01*
X54675000Y-133255002D01*
G75*
G02*
X54425002Y-133505000I-249998J0D01*
G01*
X53524998Y-133505000D01*
G75*
G02*
X53275000Y-133255002I0J249998D01*
G01*
X53275000Y-132729998D01*
G75*
G02*
X53524998Y-132480000I249998J0D01*
G01*
G37*
G36*
G01*
X53524998Y-130655000D02*
X54425002Y-130655000D01*
G75*
G02*
X54675000Y-130904998I0J-249998D01*
G01*
X54675000Y-131430002D01*
G75*
G02*
X54425002Y-131680000I-249998J0D01*
G01*
X53524998Y-131680000D01*
G75*
G02*
X53275000Y-131430002I0J249998D01*
G01*
X53275000Y-130904998D01*
G75*
G02*
X53524998Y-130655000I249998J0D01*
G01*
G37*
%TD*%
%TO.C,R28*%
G36*
G01*
X56064998Y-132480000D02*
X56965002Y-132480000D01*
G75*
G02*
X57215000Y-132729998I0J-249998D01*
G01*
X57215000Y-133255002D01*
G75*
G02*
X56965002Y-133505000I-249998J0D01*
G01*
X56064998Y-133505000D01*
G75*
G02*
X55815000Y-133255002I0J249998D01*
G01*
X55815000Y-132729998D01*
G75*
G02*
X56064998Y-132480000I249998J0D01*
G01*
G37*
G36*
G01*
X56064998Y-130655000D02*
X56965002Y-130655000D01*
G75*
G02*
X57215000Y-130904998I0J-249998D01*
G01*
X57215000Y-131430002D01*
G75*
G02*
X56965002Y-131680000I-249998J0D01*
G01*
X56064998Y-131680000D01*
G75*
G02*
X55815000Y-131430002I0J249998D01*
G01*
X55815000Y-130904998D01*
G75*
G02*
X56064998Y-130655000I249998J0D01*
G01*
G37*
%TD*%
%TO.C,R27*%
G36*
G01*
X58604998Y-132480000D02*
X59505002Y-132480000D01*
G75*
G02*
X59755000Y-132729998I0J-249998D01*
G01*
X59755000Y-133255002D01*
G75*
G02*
X59505002Y-133505000I-249998J0D01*
G01*
X58604998Y-133505000D01*
G75*
G02*
X58355000Y-133255002I0J249998D01*
G01*
X58355000Y-132729998D01*
G75*
G02*
X58604998Y-132480000I249998J0D01*
G01*
G37*
G36*
G01*
X58604998Y-130655000D02*
X59505002Y-130655000D01*
G75*
G02*
X59755000Y-130904998I0J-249998D01*
G01*
X59755000Y-131430002D01*
G75*
G02*
X59505002Y-131680000I-249998J0D01*
G01*
X58604998Y-131680000D01*
G75*
G02*
X58355000Y-131430002I0J249998D01*
G01*
X58355000Y-130904998D01*
G75*
G02*
X58604998Y-130655000I249998J0D01*
G01*
G37*
%TD*%
%TO.C,R26*%
G36*
G01*
X61144998Y-132480000D02*
X62045002Y-132480000D01*
G75*
G02*
X62295000Y-132729998I0J-249998D01*
G01*
X62295000Y-133255002D01*
G75*
G02*
X62045002Y-133505000I-249998J0D01*
G01*
X61144998Y-133505000D01*
G75*
G02*
X60895000Y-133255002I0J249998D01*
G01*
X60895000Y-132729998D01*
G75*
G02*
X61144998Y-132480000I249998J0D01*
G01*
G37*
G36*
G01*
X61144998Y-130655000D02*
X62045002Y-130655000D01*
G75*
G02*
X62295000Y-130904998I0J-249998D01*
G01*
X62295000Y-131430002D01*
G75*
G02*
X62045002Y-131680000I-249998J0D01*
G01*
X61144998Y-131680000D01*
G75*
G02*
X60895000Y-131430002I0J249998D01*
G01*
X60895000Y-130904998D01*
G75*
G02*
X61144998Y-130655000I249998J0D01*
G01*
G37*
%TD*%
%TO.C,R25*%
G36*
G01*
X63684998Y-132480000D02*
X64585002Y-132480000D01*
G75*
G02*
X64835000Y-132729998I0J-249998D01*
G01*
X64835000Y-133255002D01*
G75*
G02*
X64585002Y-133505000I-249998J0D01*
G01*
X63684998Y-133505000D01*
G75*
G02*
X63435000Y-133255002I0J249998D01*
G01*
X63435000Y-132729998D01*
G75*
G02*
X63684998Y-132480000I249998J0D01*
G01*
G37*
G36*
G01*
X63684998Y-130655000D02*
X64585002Y-130655000D01*
G75*
G02*
X64835000Y-130904998I0J-249998D01*
G01*
X64835000Y-131430002D01*
G75*
G02*
X64585002Y-131680000I-249998J0D01*
G01*
X63684998Y-131680000D01*
G75*
G02*
X63435000Y-131430002I0J249998D01*
G01*
X63435000Y-130904998D01*
G75*
G02*
X63684998Y-130655000I249998J0D01*
G01*
G37*
%TD*%
%TO.C,R24*%
G36*
G01*
X68764998Y-132480000D02*
X69665002Y-132480000D01*
G75*
G02*
X69915000Y-132729998I0J-249998D01*
G01*
X69915000Y-133255002D01*
G75*
G02*
X69665002Y-133505000I-249998J0D01*
G01*
X68764998Y-133505000D01*
G75*
G02*
X68515000Y-133255002I0J249998D01*
G01*
X68515000Y-132729998D01*
G75*
G02*
X68764998Y-132480000I249998J0D01*
G01*
G37*
G36*
G01*
X68764998Y-130655000D02*
X69665002Y-130655000D01*
G75*
G02*
X69915000Y-130904998I0J-249998D01*
G01*
X69915000Y-131430002D01*
G75*
G02*
X69665002Y-131680000I-249998J0D01*
G01*
X68764998Y-131680000D01*
G75*
G02*
X68515000Y-131430002I0J249998D01*
G01*
X68515000Y-130904998D01*
G75*
G02*
X68764998Y-130655000I249998J0D01*
G01*
G37*
%TD*%
%TO.C,R23*%
G36*
G01*
X86544998Y-132480000D02*
X87445002Y-132480000D01*
G75*
G02*
X87695000Y-132729998I0J-249998D01*
G01*
X87695000Y-133255002D01*
G75*
G02*
X87445002Y-133505000I-249998J0D01*
G01*
X86544998Y-133505000D01*
G75*
G02*
X86295000Y-133255002I0J249998D01*
G01*
X86295000Y-132729998D01*
G75*
G02*
X86544998Y-132480000I249998J0D01*
G01*
G37*
G36*
G01*
X86544998Y-130655000D02*
X87445002Y-130655000D01*
G75*
G02*
X87695000Y-130904998I0J-249998D01*
G01*
X87695000Y-131430002D01*
G75*
G02*
X87445002Y-131680000I-249998J0D01*
G01*
X86544998Y-131680000D01*
G75*
G02*
X86295000Y-131430002I0J249998D01*
G01*
X86295000Y-130904998D01*
G75*
G02*
X86544998Y-130655000I249998J0D01*
G01*
G37*
%TD*%
%TO.C,R22*%
G36*
G01*
X78924998Y-132480000D02*
X79825002Y-132480000D01*
G75*
G02*
X80075000Y-132729998I0J-249998D01*
G01*
X80075000Y-133255002D01*
G75*
G02*
X79825002Y-133505000I-249998J0D01*
G01*
X78924998Y-133505000D01*
G75*
G02*
X78675000Y-133255002I0J249998D01*
G01*
X78675000Y-132729998D01*
G75*
G02*
X78924998Y-132480000I249998J0D01*
G01*
G37*
G36*
G01*
X78924998Y-130655000D02*
X79825002Y-130655000D01*
G75*
G02*
X80075000Y-130904998I0J-249998D01*
G01*
X80075000Y-131430002D01*
G75*
G02*
X79825002Y-131680000I-249998J0D01*
G01*
X78924998Y-131680000D01*
G75*
G02*
X78675000Y-131430002I0J249998D01*
G01*
X78675000Y-130904998D01*
G75*
G02*
X78924998Y-130655000I249998J0D01*
G01*
G37*
%TD*%
%TO.C,R21*%
G36*
G01*
X81464998Y-132480000D02*
X82365002Y-132480000D01*
G75*
G02*
X82615000Y-132729998I0J-249998D01*
G01*
X82615000Y-133255002D01*
G75*
G02*
X82365002Y-133505000I-249998J0D01*
G01*
X81464998Y-133505000D01*
G75*
G02*
X81215000Y-133255002I0J249998D01*
G01*
X81215000Y-132729998D01*
G75*
G02*
X81464998Y-132480000I249998J0D01*
G01*
G37*
G36*
G01*
X81464998Y-130655000D02*
X82365002Y-130655000D01*
G75*
G02*
X82615000Y-130904998I0J-249998D01*
G01*
X82615000Y-131430002D01*
G75*
G02*
X82365002Y-131680000I-249998J0D01*
G01*
X81464998Y-131680000D01*
G75*
G02*
X81215000Y-131430002I0J249998D01*
G01*
X81215000Y-130904998D01*
G75*
G02*
X81464998Y-130655000I249998J0D01*
G01*
G37*
%TD*%
%TO.C,R20*%
G36*
G01*
X84004998Y-132480000D02*
X84905002Y-132480000D01*
G75*
G02*
X85155000Y-132729998I0J-249998D01*
G01*
X85155000Y-133255002D01*
G75*
G02*
X84905002Y-133505000I-249998J0D01*
G01*
X84004998Y-133505000D01*
G75*
G02*
X83755000Y-133255002I0J249998D01*
G01*
X83755000Y-132729998D01*
G75*
G02*
X84004998Y-132480000I249998J0D01*
G01*
G37*
G36*
G01*
X84004998Y-130655000D02*
X84905002Y-130655000D01*
G75*
G02*
X85155000Y-130904998I0J-249998D01*
G01*
X85155000Y-131430002D01*
G75*
G02*
X84905002Y-131680000I-249998J0D01*
G01*
X84004998Y-131680000D01*
G75*
G02*
X83755000Y-131430002I0J249998D01*
G01*
X83755000Y-130904998D01*
G75*
G02*
X84004998Y-130655000I249998J0D01*
G01*
G37*
%TD*%
%TO.C,R19*%
G36*
G01*
X109404998Y-132480000D02*
X110305002Y-132480000D01*
G75*
G02*
X110555000Y-132729998I0J-249998D01*
G01*
X110555000Y-133255002D01*
G75*
G02*
X110305002Y-133505000I-249998J0D01*
G01*
X109404998Y-133505000D01*
G75*
G02*
X109155000Y-133255002I0J249998D01*
G01*
X109155000Y-132729998D01*
G75*
G02*
X109404998Y-132480000I249998J0D01*
G01*
G37*
G36*
G01*
X109404998Y-130655000D02*
X110305002Y-130655000D01*
G75*
G02*
X110555000Y-130904998I0J-249998D01*
G01*
X110555000Y-131430002D01*
G75*
G02*
X110305002Y-131680000I-249998J0D01*
G01*
X109404998Y-131680000D01*
G75*
G02*
X109155000Y-131430002I0J249998D01*
G01*
X109155000Y-130904998D01*
G75*
G02*
X109404998Y-130655000I249998J0D01*
G01*
G37*
%TD*%
%TO.C,R18*%
G36*
G01*
X111944998Y-132480000D02*
X112845002Y-132480000D01*
G75*
G02*
X113095000Y-132729998I0J-249998D01*
G01*
X113095000Y-133255002D01*
G75*
G02*
X112845002Y-133505000I-249998J0D01*
G01*
X111944998Y-133505000D01*
G75*
G02*
X111695000Y-133255002I0J249998D01*
G01*
X111695000Y-132729998D01*
G75*
G02*
X111944998Y-132480000I249998J0D01*
G01*
G37*
G36*
G01*
X111944998Y-130655000D02*
X112845002Y-130655000D01*
G75*
G02*
X113095000Y-130904998I0J-249998D01*
G01*
X113095000Y-131430002D01*
G75*
G02*
X112845002Y-131680000I-249998J0D01*
G01*
X111944998Y-131680000D01*
G75*
G02*
X111695000Y-131430002I0J249998D01*
G01*
X111695000Y-130904998D01*
G75*
G02*
X111944998Y-130655000I249998J0D01*
G01*
G37*
%TD*%
%TO.C,R17*%
G36*
G01*
X66224998Y-132480000D02*
X67125002Y-132480000D01*
G75*
G02*
X67375000Y-132729998I0J-249998D01*
G01*
X67375000Y-133255002D01*
G75*
G02*
X67125002Y-133505000I-249998J0D01*
G01*
X66224998Y-133505000D01*
G75*
G02*
X65975000Y-133255002I0J249998D01*
G01*
X65975000Y-132729998D01*
G75*
G02*
X66224998Y-132480000I249998J0D01*
G01*
G37*
G36*
G01*
X66224998Y-130655000D02*
X67125002Y-130655000D01*
G75*
G02*
X67375000Y-130904998I0J-249998D01*
G01*
X67375000Y-131430002D01*
G75*
G02*
X67125002Y-131680000I-249998J0D01*
G01*
X66224998Y-131680000D01*
G75*
G02*
X65975000Y-131430002I0J249998D01*
G01*
X65975000Y-130904998D01*
G75*
G02*
X66224998Y-130655000I249998J0D01*
G01*
G37*
%TD*%
%TO.C,R16*%
G36*
G01*
X71304998Y-132480000D02*
X72205002Y-132480000D01*
G75*
G02*
X72455000Y-132729998I0J-249998D01*
G01*
X72455000Y-133255002D01*
G75*
G02*
X72205002Y-133505000I-249998J0D01*
G01*
X71304998Y-133505000D01*
G75*
G02*
X71055000Y-133255002I0J249998D01*
G01*
X71055000Y-132729998D01*
G75*
G02*
X71304998Y-132480000I249998J0D01*
G01*
G37*
G36*
G01*
X71304998Y-130655000D02*
X72205002Y-130655000D01*
G75*
G02*
X72455000Y-130904998I0J-249998D01*
G01*
X72455000Y-131430002D01*
G75*
G02*
X72205002Y-131680000I-249998J0D01*
G01*
X71304998Y-131680000D01*
G75*
G02*
X71055000Y-131430002I0J249998D01*
G01*
X71055000Y-130904998D01*
G75*
G02*
X71304998Y-130655000I249998J0D01*
G01*
G37*
%TD*%
%TO.C,R15*%
G36*
G01*
X73844998Y-132480000D02*
X74745002Y-132480000D01*
G75*
G02*
X74995000Y-132729998I0J-249998D01*
G01*
X74995000Y-133255002D01*
G75*
G02*
X74745002Y-133505000I-249998J0D01*
G01*
X73844998Y-133505000D01*
G75*
G02*
X73595000Y-133255002I0J249998D01*
G01*
X73595000Y-132729998D01*
G75*
G02*
X73844998Y-132480000I249998J0D01*
G01*
G37*
G36*
G01*
X73844998Y-130655000D02*
X74745002Y-130655000D01*
G75*
G02*
X74995000Y-130904998I0J-249998D01*
G01*
X74995000Y-131430002D01*
G75*
G02*
X74745002Y-131680000I-249998J0D01*
G01*
X73844998Y-131680000D01*
G75*
G02*
X73595000Y-131430002I0J249998D01*
G01*
X73595000Y-130904998D01*
G75*
G02*
X73844998Y-130655000I249998J0D01*
G01*
G37*
%TD*%
%TO.C,R14*%
G36*
G01*
X76384998Y-132480000D02*
X77285002Y-132480000D01*
G75*
G02*
X77535000Y-132729998I0J-249998D01*
G01*
X77535000Y-133255002D01*
G75*
G02*
X77285002Y-133505000I-249998J0D01*
G01*
X76384998Y-133505000D01*
G75*
G02*
X76135000Y-133255002I0J249998D01*
G01*
X76135000Y-132729998D01*
G75*
G02*
X76384998Y-132480000I249998J0D01*
G01*
G37*
G36*
G01*
X76384998Y-130655000D02*
X77285002Y-130655000D01*
G75*
G02*
X77535000Y-130904998I0J-249998D01*
G01*
X77535000Y-131430002D01*
G75*
G02*
X77285002Y-131680000I-249998J0D01*
G01*
X76384998Y-131680000D01*
G75*
G02*
X76135000Y-131430002I0J249998D01*
G01*
X76135000Y-130904998D01*
G75*
G02*
X76384998Y-130655000I249998J0D01*
G01*
G37*
%TD*%
%TO.C,R13*%
G36*
G01*
X89084998Y-132480000D02*
X89985002Y-132480000D01*
G75*
G02*
X90235000Y-132729998I0J-249998D01*
G01*
X90235000Y-133255002D01*
G75*
G02*
X89985002Y-133505000I-249998J0D01*
G01*
X89084998Y-133505000D01*
G75*
G02*
X88835000Y-133255002I0J249998D01*
G01*
X88835000Y-132729998D01*
G75*
G02*
X89084998Y-132480000I249998J0D01*
G01*
G37*
G36*
G01*
X89084998Y-130655000D02*
X89985002Y-130655000D01*
G75*
G02*
X90235000Y-130904998I0J-249998D01*
G01*
X90235000Y-131430002D01*
G75*
G02*
X89985002Y-131680000I-249998J0D01*
G01*
X89084998Y-131680000D01*
G75*
G02*
X88835000Y-131430002I0J249998D01*
G01*
X88835000Y-130904998D01*
G75*
G02*
X89084998Y-130655000I249998J0D01*
G01*
G37*
%TD*%
%TO.C,R12*%
G36*
G01*
X91624998Y-132480000D02*
X92525002Y-132480000D01*
G75*
G02*
X92775000Y-132729998I0J-249998D01*
G01*
X92775000Y-133255002D01*
G75*
G02*
X92525002Y-133505000I-249998J0D01*
G01*
X91624998Y-133505000D01*
G75*
G02*
X91375000Y-133255002I0J249998D01*
G01*
X91375000Y-132729998D01*
G75*
G02*
X91624998Y-132480000I249998J0D01*
G01*
G37*
G36*
G01*
X91624998Y-130655000D02*
X92525002Y-130655000D01*
G75*
G02*
X92775000Y-130904998I0J-249998D01*
G01*
X92775000Y-131430002D01*
G75*
G02*
X92525002Y-131680000I-249998J0D01*
G01*
X91624998Y-131680000D01*
G75*
G02*
X91375000Y-131430002I0J249998D01*
G01*
X91375000Y-130904998D01*
G75*
G02*
X91624998Y-130655000I249998J0D01*
G01*
G37*
%TD*%
%TO.C,R11*%
G36*
G01*
X94164998Y-132480000D02*
X95065002Y-132480000D01*
G75*
G02*
X95315000Y-132729998I0J-249998D01*
G01*
X95315000Y-133255002D01*
G75*
G02*
X95065002Y-133505000I-249998J0D01*
G01*
X94164998Y-133505000D01*
G75*
G02*
X93915000Y-133255002I0J249998D01*
G01*
X93915000Y-132729998D01*
G75*
G02*
X94164998Y-132480000I249998J0D01*
G01*
G37*
G36*
G01*
X94164998Y-130655000D02*
X95065002Y-130655000D01*
G75*
G02*
X95315000Y-130904998I0J-249998D01*
G01*
X95315000Y-131430002D01*
G75*
G02*
X95065002Y-131680000I-249998J0D01*
G01*
X94164998Y-131680000D01*
G75*
G02*
X93915000Y-131430002I0J249998D01*
G01*
X93915000Y-130904998D01*
G75*
G02*
X94164998Y-130655000I249998J0D01*
G01*
G37*
%TD*%
%TO.C,R10*%
G36*
G01*
X96704998Y-132480000D02*
X97605002Y-132480000D01*
G75*
G02*
X97855000Y-132729998I0J-249998D01*
G01*
X97855000Y-133255002D01*
G75*
G02*
X97605002Y-133505000I-249998J0D01*
G01*
X96704998Y-133505000D01*
G75*
G02*
X96455000Y-133255002I0J249998D01*
G01*
X96455000Y-132729998D01*
G75*
G02*
X96704998Y-132480000I249998J0D01*
G01*
G37*
G36*
G01*
X96704998Y-130655000D02*
X97605002Y-130655000D01*
G75*
G02*
X97855000Y-130904998I0J-249998D01*
G01*
X97855000Y-131430002D01*
G75*
G02*
X97605002Y-131680000I-249998J0D01*
G01*
X96704998Y-131680000D01*
G75*
G02*
X96455000Y-131430002I0J249998D01*
G01*
X96455000Y-130904998D01*
G75*
G02*
X96704998Y-130655000I249998J0D01*
G01*
G37*
%TD*%
%TO.C,R9*%
G36*
G01*
X99244998Y-132480000D02*
X100145002Y-132480000D01*
G75*
G02*
X100395000Y-132729998I0J-249998D01*
G01*
X100395000Y-133255002D01*
G75*
G02*
X100145002Y-133505000I-249998J0D01*
G01*
X99244998Y-133505000D01*
G75*
G02*
X98995000Y-133255002I0J249998D01*
G01*
X98995000Y-132729998D01*
G75*
G02*
X99244998Y-132480000I249998J0D01*
G01*
G37*
G36*
G01*
X99244998Y-130655000D02*
X100145002Y-130655000D01*
G75*
G02*
X100395000Y-130904998I0J-249998D01*
G01*
X100395000Y-131430002D01*
G75*
G02*
X100145002Y-131680000I-249998J0D01*
G01*
X99244998Y-131680000D01*
G75*
G02*
X98995000Y-131430002I0J249998D01*
G01*
X98995000Y-130904998D01*
G75*
G02*
X99244998Y-130655000I249998J0D01*
G01*
G37*
%TD*%
%TO.C,R8*%
G36*
G01*
X101784998Y-132480000D02*
X102685002Y-132480000D01*
G75*
G02*
X102935000Y-132729998I0J-249998D01*
G01*
X102935000Y-133255002D01*
G75*
G02*
X102685002Y-133505000I-249998J0D01*
G01*
X101784998Y-133505000D01*
G75*
G02*
X101535000Y-133255002I0J249998D01*
G01*
X101535000Y-132729998D01*
G75*
G02*
X101784998Y-132480000I249998J0D01*
G01*
G37*
G36*
G01*
X101784998Y-130655000D02*
X102685002Y-130655000D01*
G75*
G02*
X102935000Y-130904998I0J-249998D01*
G01*
X102935000Y-131430002D01*
G75*
G02*
X102685002Y-131680000I-249998J0D01*
G01*
X101784998Y-131680000D01*
G75*
G02*
X101535000Y-131430002I0J249998D01*
G01*
X101535000Y-130904998D01*
G75*
G02*
X101784998Y-130655000I249998J0D01*
G01*
G37*
%TD*%
%TO.C,R7*%
G36*
G01*
X104324998Y-132480000D02*
X105225002Y-132480000D01*
G75*
G02*
X105475000Y-132729998I0J-249998D01*
G01*
X105475000Y-133255002D01*
G75*
G02*
X105225002Y-133505000I-249998J0D01*
G01*
X104324998Y-133505000D01*
G75*
G02*
X104075000Y-133255002I0J249998D01*
G01*
X104075000Y-132729998D01*
G75*
G02*
X104324998Y-132480000I249998J0D01*
G01*
G37*
G36*
G01*
X104324998Y-130655000D02*
X105225002Y-130655000D01*
G75*
G02*
X105475000Y-130904998I0J-249998D01*
G01*
X105475000Y-131430002D01*
G75*
G02*
X105225002Y-131680000I-249998J0D01*
G01*
X104324998Y-131680000D01*
G75*
G02*
X104075000Y-131430002I0J249998D01*
G01*
X104075000Y-130904998D01*
G75*
G02*
X104324998Y-130655000I249998J0D01*
G01*
G37*
%TD*%
%TO.C,R6*%
G36*
G01*
X106864998Y-132480000D02*
X107765002Y-132480000D01*
G75*
G02*
X108015000Y-132729998I0J-249998D01*
G01*
X108015000Y-133255002D01*
G75*
G02*
X107765002Y-133505000I-249998J0D01*
G01*
X106864998Y-133505000D01*
G75*
G02*
X106615000Y-133255002I0J249998D01*
G01*
X106615000Y-132729998D01*
G75*
G02*
X106864998Y-132480000I249998J0D01*
G01*
G37*
G36*
G01*
X106864998Y-130655000D02*
X107765002Y-130655000D01*
G75*
G02*
X108015000Y-130904998I0J-249998D01*
G01*
X108015000Y-131430002D01*
G75*
G02*
X107765002Y-131680000I-249998J0D01*
G01*
X106864998Y-131680000D01*
G75*
G02*
X106615000Y-131430002I0J249998D01*
G01*
X106615000Y-130904998D01*
G75*
G02*
X106864998Y-130655000I249998J0D01*
G01*
G37*
%TD*%
%TO.C,D2*%
G36*
G01*
X40837500Y-134241250D02*
X40837500Y-133728750D01*
G75*
G02*
X41056250Y-133510000I218750J0D01*
G01*
X41493750Y-133510000D01*
G75*
G02*
X41712500Y-133728750I0J-218750D01*
G01*
X41712500Y-134241250D01*
G75*
G02*
X41493750Y-134460000I-218750J0D01*
G01*
X41056250Y-134460000D01*
G75*
G02*
X40837500Y-134241250I0J218750D01*
G01*
G37*
G36*
G01*
X39262500Y-134241250D02*
X39262500Y-133728750D01*
G75*
G02*
X39481250Y-133510000I218750J0D01*
G01*
X39918750Y-133510000D01*
G75*
G02*
X40137500Y-133728750I0J-218750D01*
G01*
X40137500Y-134241250D01*
G75*
G02*
X39918750Y-134460000I-218750J0D01*
G01*
X39481250Y-134460000D01*
G75*
G02*
X39262500Y-134241250I0J218750D01*
G01*
G37*
%TD*%
%TO.C,D1*%
G36*
G01*
X40125000Y-131823750D02*
X40125000Y-132336250D01*
G75*
G02*
X39906250Y-132555000I-218750J0D01*
G01*
X39468750Y-132555000D01*
G75*
G02*
X39250000Y-132336250I0J218750D01*
G01*
X39250000Y-131823750D01*
G75*
G02*
X39468750Y-131605000I218750J0D01*
G01*
X39906250Y-131605000D01*
G75*
G02*
X40125000Y-131823750I0J-218750D01*
G01*
G37*
G36*
G01*
X41700000Y-131823750D02*
X41700000Y-132336250D01*
G75*
G02*
X41481250Y-132555000I-218750J0D01*
G01*
X41043750Y-132555000D01*
G75*
G02*
X40825000Y-132336250I0J218750D01*
G01*
X40825000Y-131823750D01*
G75*
G02*
X41043750Y-131605000I218750J0D01*
G01*
X41481250Y-131605000D01*
G75*
G02*
X41700000Y-131823750I0J-218750D01*
G01*
G37*
%TD*%
%TO.C,C2*%
G36*
G01*
X34795000Y-120810000D02*
X34795000Y-121760000D01*
G75*
G02*
X34545000Y-122010000I-250000J0D01*
G01*
X34045000Y-122010000D01*
G75*
G02*
X33795000Y-121760000I0J250000D01*
G01*
X33795000Y-120810000D01*
G75*
G02*
X34045000Y-120560000I250000J0D01*
G01*
X34545000Y-120560000D01*
G75*
G02*
X34795000Y-120810000I0J-250000D01*
G01*
G37*
G36*
G01*
X36695000Y-120810000D02*
X36695000Y-121760000D01*
G75*
G02*
X36445000Y-122010000I-250000J0D01*
G01*
X35945000Y-122010000D01*
G75*
G02*
X35695000Y-121760000I0J250000D01*
G01*
X35695000Y-120810000D01*
G75*
G02*
X35945000Y-120560000I250000J0D01*
G01*
X36445000Y-120560000D01*
G75*
G02*
X36695000Y-120810000I0J-250000D01*
G01*
G37*
%TD*%
%TO.C,C1*%
G36*
G01*
X36010000Y-131920000D02*
X36010000Y-130970000D01*
G75*
G02*
X36260000Y-130720000I250000J0D01*
G01*
X36760000Y-130720000D01*
G75*
G02*
X37010000Y-130970000I0J-250000D01*
G01*
X37010000Y-131920000D01*
G75*
G02*
X36760000Y-132170000I-250000J0D01*
G01*
X36260000Y-132170000D01*
G75*
G02*
X36010000Y-131920000I0J250000D01*
G01*
G37*
G36*
G01*
X34110000Y-131920000D02*
X34110000Y-130970000D01*
G75*
G02*
X34360000Y-130720000I250000J0D01*
G01*
X34860000Y-130720000D01*
G75*
G02*
X35110000Y-130970000I0J-250000D01*
G01*
X35110000Y-131920000D01*
G75*
G02*
X34860000Y-132170000I-250000J0D01*
G01*
X34360000Y-132170000D01*
G75*
G02*
X34110000Y-131920000I0J250000D01*
G01*
G37*
%TD*%
M02*
