%TF.GenerationSoftware,KiCad,Pcbnew,(5.1.7)-1*%
%TF.CreationDate,2021-02-10T19:53:02+00:00*%
%TF.ProjectId,SCSI to SCA MK5.1,53435349-2074-46f2-9053-4341204d4b35,rev?*%
%TF.SameCoordinates,Original*%
%TF.FileFunction,Legend,Top*%
%TF.FilePolarity,Positive*%
%FSLAX46Y46*%
G04 Gerber Fmt 4.6, Leading zero omitted, Abs format (unit mm)*
G04 Created by KiCad (PCBNEW (5.1.7)-1) date 2021-02-10 19:53:02*
%MOMM*%
%LPD*%
G01*
G04 APERTURE LIST*
%ADD10C,0.250000*%
%ADD11C,0.120000*%
G04 APERTURE END LIST*
D10*
X37021925Y-137054340D02*
X37593354Y-137054340D01*
X37307640Y-138054340D02*
X37307640Y-137054340D01*
X37926687Y-137530531D02*
X38260020Y-137530531D01*
X38402878Y-138054340D02*
X37926687Y-138054340D01*
X37926687Y-137054340D01*
X38402878Y-137054340D01*
X39402878Y-138054340D02*
X39069544Y-137578150D01*
X38831449Y-138054340D02*
X38831449Y-137054340D01*
X39212401Y-137054340D01*
X39307640Y-137101960D01*
X39355259Y-137149579D01*
X39402878Y-137244817D01*
X39402878Y-137387674D01*
X39355259Y-137482912D01*
X39307640Y-137530531D01*
X39212401Y-137578150D01*
X38831449Y-137578150D01*
X39831449Y-138054340D02*
X39831449Y-137054340D01*
X40164782Y-137768626D01*
X40498116Y-137054340D01*
X40498116Y-138054340D01*
X41879068Y-137482912D02*
X41783830Y-137435293D01*
X41736211Y-137387674D01*
X41688592Y-137292436D01*
X41688592Y-137244817D01*
X41736211Y-137149579D01*
X41783830Y-137101960D01*
X41879068Y-137054340D01*
X42069544Y-137054340D01*
X42164782Y-137101960D01*
X42212401Y-137149579D01*
X42260020Y-137244817D01*
X42260020Y-137292436D01*
X42212401Y-137387674D01*
X42164782Y-137435293D01*
X42069544Y-137482912D01*
X41879068Y-137482912D01*
X41783830Y-137530531D01*
X41736211Y-137578150D01*
X41688592Y-137673388D01*
X41688592Y-137863864D01*
X41736211Y-137959102D01*
X41783830Y-138006721D01*
X41879068Y-138054340D01*
X42069544Y-138054340D01*
X42164782Y-138006721D01*
X42212401Y-137959102D01*
X42260020Y-137863864D01*
X42260020Y-137673388D01*
X42212401Y-137578150D01*
X42164782Y-137530531D01*
X42069544Y-137482912D01*
X43021925Y-137530531D02*
X43164782Y-137578150D01*
X43212401Y-137625769D01*
X43260020Y-137721007D01*
X43260020Y-137863864D01*
X43212401Y-137959102D01*
X43164782Y-138006721D01*
X43069544Y-138054340D01*
X42688592Y-138054340D01*
X42688592Y-137054340D01*
X43021925Y-137054340D01*
X43117163Y-137101960D01*
X43164782Y-137149579D01*
X43212401Y-137244817D01*
X43212401Y-137340055D01*
X43164782Y-137435293D01*
X43117163Y-137482912D01*
X43021925Y-137530531D01*
X42688592Y-137530531D01*
X43688592Y-138054340D02*
X43688592Y-137054340D01*
X44021925Y-137054340D02*
X44593354Y-137054340D01*
X44307640Y-138054340D02*
X44307640Y-137054340D01*
X37367649Y-148072100D02*
X37367649Y-147072100D01*
X37843840Y-148072100D02*
X37843840Y-147072100D01*
X38081935Y-147072100D01*
X38224792Y-147119720D01*
X38320030Y-147214958D01*
X38367649Y-147310196D01*
X38415268Y-147500672D01*
X38415268Y-147643529D01*
X38367649Y-147834005D01*
X38320030Y-147929243D01*
X38224792Y-148024481D01*
X38081935Y-148072100D01*
X37843840Y-148072100D01*
X38796220Y-147167339D02*
X38843840Y-147119720D01*
X38939078Y-147072100D01*
X39177173Y-147072100D01*
X39272411Y-147119720D01*
X39320030Y-147167339D01*
X39367649Y-147262577D01*
X39367649Y-147357815D01*
X39320030Y-147500672D01*
X38748601Y-148072100D01*
X39367649Y-148072100D01*
X37433689Y-145506700D02*
X37433689Y-144506700D01*
X37909880Y-145506700D02*
X37909880Y-144506700D01*
X38147975Y-144506700D01*
X38290832Y-144554320D01*
X38386070Y-144649558D01*
X38433689Y-144744796D01*
X38481308Y-144935272D01*
X38481308Y-145078129D01*
X38433689Y-145268605D01*
X38386070Y-145363843D01*
X38290832Y-145459081D01*
X38147975Y-145506700D01*
X37909880Y-145506700D01*
X39433689Y-145506700D02*
X38862260Y-145506700D01*
X39147975Y-145506700D02*
X39147975Y-144506700D01*
X39052737Y-144649558D01*
X38957499Y-144744796D01*
X38862260Y-144792415D01*
X37441309Y-142966700D02*
X37441309Y-141966700D01*
X37917500Y-142966700D02*
X37917500Y-141966700D01*
X38155595Y-141966700D01*
X38298452Y-142014320D01*
X38393690Y-142109558D01*
X38441309Y-142204796D01*
X38488928Y-142395272D01*
X38488928Y-142538129D01*
X38441309Y-142728605D01*
X38393690Y-142823843D01*
X38298452Y-142919081D01*
X38155595Y-142966700D01*
X37917500Y-142966700D01*
X39107976Y-141966700D02*
X39203214Y-141966700D01*
X39298452Y-142014320D01*
X39346071Y-142061939D01*
X39393690Y-142157177D01*
X39441309Y-142347653D01*
X39441309Y-142585748D01*
X39393690Y-142776224D01*
X39346071Y-142871462D01*
X39298452Y-142919081D01*
X39203214Y-142966700D01*
X39107976Y-142966700D01*
X39012738Y-142919081D01*
X38965119Y-142871462D01*
X38917500Y-142776224D01*
X38869880Y-142585748D01*
X38869880Y-142347653D01*
X38917500Y-142157177D01*
X38965119Y-142061939D01*
X39012738Y-142014320D01*
X39107976Y-141966700D01*
X37799022Y-140386060D02*
X37322832Y-140386060D01*
X37322832Y-139386060D01*
X38132356Y-139862251D02*
X38465689Y-139862251D01*
X38608546Y-140386060D02*
X38132356Y-140386060D01*
X38132356Y-139386060D01*
X38608546Y-139386060D01*
X39037118Y-140386060D02*
X39037118Y-139386060D01*
X39275213Y-139386060D01*
X39418070Y-139433680D01*
X39513308Y-139528918D01*
X39560927Y-139624156D01*
X39608546Y-139814632D01*
X39608546Y-139957489D01*
X39560927Y-140147965D01*
X39513308Y-140243203D01*
X39418070Y-140338441D01*
X39275213Y-140386060D01*
X39037118Y-140386060D01*
X40799022Y-140005108D02*
X41560927Y-140005108D01*
X41179975Y-140386060D02*
X41179975Y-139624156D01*
X42799022Y-140005108D02*
X43560927Y-140005108D01*
X30424335Y-132370580D02*
X30995763Y-132370580D01*
X30710049Y-133370580D02*
X30710049Y-132370580D01*
X31329097Y-132846771D02*
X31662430Y-132846771D01*
X31805287Y-133370580D02*
X31329097Y-133370580D01*
X31329097Y-132370580D01*
X31805287Y-132370580D01*
X32805287Y-133370580D02*
X32471954Y-132894390D01*
X32233859Y-133370580D02*
X32233859Y-132370580D01*
X32614811Y-132370580D01*
X32710049Y-132418200D01*
X32757668Y-132465819D01*
X32805287Y-132561057D01*
X32805287Y-132703914D01*
X32757668Y-132799152D01*
X32710049Y-132846771D01*
X32614811Y-132894390D01*
X32233859Y-132894390D01*
X33233859Y-133370580D02*
X33233859Y-132370580D01*
X33567192Y-133084866D01*
X33900525Y-132370580D01*
X33900525Y-133370580D01*
X35662430Y-133370580D02*
X35091001Y-133370580D01*
X35376716Y-133370580D02*
X35376716Y-132370580D01*
X35281478Y-132513438D01*
X35186240Y-132608676D01*
X35091001Y-132656295D01*
X36519573Y-132370580D02*
X36329097Y-132370580D01*
X36233859Y-132418200D01*
X36186240Y-132465819D01*
X36091001Y-132608676D01*
X36043382Y-132799152D01*
X36043382Y-133180104D01*
X36091001Y-133275342D01*
X36138620Y-133322961D01*
X36233859Y-133370580D01*
X36424335Y-133370580D01*
X36519573Y-133322961D01*
X36567192Y-133275342D01*
X36614811Y-133180104D01*
X36614811Y-132942009D01*
X36567192Y-132846771D01*
X36519573Y-132799152D01*
X36424335Y-132751533D01*
X36233859Y-132751533D01*
X36138620Y-132799152D01*
X36091001Y-132846771D01*
X36043382Y-132942009D01*
X37376716Y-132846771D02*
X37519573Y-132894390D01*
X37567192Y-132942009D01*
X37614811Y-133037247D01*
X37614811Y-133180104D01*
X37567192Y-133275342D01*
X37519573Y-133322961D01*
X37424335Y-133370580D01*
X37043382Y-133370580D01*
X37043382Y-132370580D01*
X37376716Y-132370580D01*
X37471954Y-132418200D01*
X37519573Y-132465819D01*
X37567192Y-132561057D01*
X37567192Y-132656295D01*
X37519573Y-132751533D01*
X37471954Y-132799152D01*
X37376716Y-132846771D01*
X37043382Y-132846771D01*
X38043382Y-133370580D02*
X38043382Y-132370580D01*
X38376716Y-132370580D02*
X38948144Y-132370580D01*
X38662430Y-133370580D02*
X38662430Y-132370580D01*
X35919119Y-124198333D02*
X35919119Y-123722142D01*
X36919119Y-123722142D01*
X35919119Y-124531666D02*
X36919119Y-124531666D01*
X36204833Y-124865000D01*
X36919119Y-125198333D01*
X35919119Y-125198333D01*
X35919119Y-126198333D02*
X35919119Y-125626904D01*
X35919119Y-125912619D02*
X36919119Y-125912619D01*
X36776261Y-125817380D01*
X36681023Y-125722142D01*
X36633404Y-125626904D01*
X35919119Y-127150714D02*
X35919119Y-126579285D01*
X35919119Y-126865000D02*
X36919119Y-126865000D01*
X36776261Y-126769761D01*
X36681023Y-126674523D01*
X36633404Y-126579285D01*
X35919119Y-128103095D02*
X35919119Y-127531666D01*
X35919119Y-127817380D02*
X36919119Y-127817380D01*
X36776261Y-127722142D01*
X36681023Y-127626904D01*
X36633404Y-127531666D01*
X36919119Y-128436428D02*
X36919119Y-129103095D01*
X35919119Y-128674523D01*
X35073880Y-124460238D02*
X35121500Y-124507857D01*
X35169119Y-124603095D01*
X35169119Y-124841190D01*
X35121500Y-124936428D01*
X35073880Y-124984047D01*
X34978642Y-125031666D01*
X34883404Y-125031666D01*
X34740547Y-124984047D01*
X34169119Y-124412619D01*
X34169119Y-125031666D01*
X34264357Y-125460238D02*
X34216738Y-125507857D01*
X34169119Y-125460238D01*
X34216738Y-125412619D01*
X34264357Y-125460238D01*
X34169119Y-125460238D01*
X34740547Y-126079285D02*
X34788166Y-125984047D01*
X34835785Y-125936428D01*
X34931023Y-125888809D01*
X34978642Y-125888809D01*
X35073880Y-125936428D01*
X35121500Y-125984047D01*
X35169119Y-126079285D01*
X35169119Y-126269761D01*
X35121500Y-126365000D01*
X35073880Y-126412619D01*
X34978642Y-126460238D01*
X34931023Y-126460238D01*
X34835785Y-126412619D01*
X34788166Y-126365000D01*
X34740547Y-126269761D01*
X34740547Y-126079285D01*
X34692928Y-125984047D01*
X34645309Y-125936428D01*
X34550071Y-125888809D01*
X34359595Y-125888809D01*
X34264357Y-125936428D01*
X34216738Y-125984047D01*
X34169119Y-126079285D01*
X34169119Y-126269761D01*
X34216738Y-126365000D01*
X34264357Y-126412619D01*
X34359595Y-126460238D01*
X34550071Y-126460238D01*
X34645309Y-126412619D01*
X34692928Y-126365000D01*
X34740547Y-126269761D01*
X35169119Y-127365000D02*
X35169119Y-126888809D01*
X34692928Y-126841190D01*
X34740547Y-126888809D01*
X34788166Y-126984047D01*
X34788166Y-127222142D01*
X34740547Y-127317380D01*
X34692928Y-127365000D01*
X34597690Y-127412619D01*
X34359595Y-127412619D01*
X34264357Y-127365000D01*
X34216738Y-127317380D01*
X34169119Y-127222142D01*
X34169119Y-126984047D01*
X34216738Y-126888809D01*
X34264357Y-126841190D01*
X35169119Y-127698333D02*
X34169119Y-128031666D01*
X35169119Y-128365000D01*
X37219142Y-120959619D02*
X37266761Y-120912000D01*
X37362000Y-120864380D01*
X37600095Y-120864380D01*
X37695333Y-120912000D01*
X37742952Y-120959619D01*
X37790571Y-121054857D01*
X37790571Y-121150095D01*
X37742952Y-121292952D01*
X37171523Y-121864380D01*
X37790571Y-121864380D01*
X38171523Y-120959619D02*
X38219142Y-120912000D01*
X38314380Y-120864380D01*
X38552476Y-120864380D01*
X38647714Y-120912000D01*
X38695333Y-120959619D01*
X38742952Y-121054857D01*
X38742952Y-121150095D01*
X38695333Y-121292952D01*
X38123904Y-121864380D01*
X38742952Y-121864380D01*
X39600095Y-121197714D02*
X39600095Y-121864380D01*
X39171523Y-121197714D02*
X39171523Y-121721523D01*
X39219142Y-121816761D01*
X39314380Y-121864380D01*
X39457238Y-121864380D01*
X39552476Y-121816761D01*
X39600095Y-121769142D01*
X40409619Y-121340571D02*
X40076285Y-121340571D01*
X40076285Y-121864380D02*
X40076285Y-120864380D01*
X40552476Y-120864380D01*
X38044571Y-131008380D02*
X37473142Y-131008380D01*
X37758857Y-131008380D02*
X37758857Y-130008380D01*
X37663619Y-130151238D01*
X37568380Y-130246476D01*
X37473142Y-130294095D01*
X38663619Y-130008380D02*
X38758857Y-130008380D01*
X38854095Y-130056000D01*
X38901714Y-130103619D01*
X38949333Y-130198857D01*
X38996952Y-130389333D01*
X38996952Y-130627428D01*
X38949333Y-130817904D01*
X38901714Y-130913142D01*
X38854095Y-130960761D01*
X38758857Y-131008380D01*
X38663619Y-131008380D01*
X38568380Y-130960761D01*
X38520761Y-130913142D01*
X38473142Y-130817904D01*
X38425523Y-130627428D01*
X38425523Y-130389333D01*
X38473142Y-130198857D01*
X38520761Y-130103619D01*
X38568380Y-130056000D01*
X38663619Y-130008380D01*
X39854095Y-130341714D02*
X39854095Y-131008380D01*
X39425523Y-130341714D02*
X39425523Y-130865523D01*
X39473142Y-130960761D01*
X39568380Y-131008380D01*
X39711238Y-131008380D01*
X39806476Y-130960761D01*
X39854095Y-130913142D01*
X40663619Y-130484571D02*
X40330285Y-130484571D01*
X40330285Y-131008380D02*
X40330285Y-130008380D01*
X40806476Y-130008380D01*
X42307095Y-135961428D02*
X43069000Y-135961428D01*
X42688047Y-136342380D02*
X42688047Y-135580476D01*
X44069000Y-136342380D02*
X43497571Y-136342380D01*
X43783285Y-136342380D02*
X43783285Y-135342380D01*
X43688047Y-135485238D01*
X43592809Y-135580476D01*
X43497571Y-135628095D01*
X44449952Y-135437619D02*
X44497571Y-135390000D01*
X44592809Y-135342380D01*
X44830904Y-135342380D01*
X44926142Y-135390000D01*
X44973761Y-135437619D01*
X45021380Y-135532857D01*
X45021380Y-135628095D01*
X44973761Y-135770952D01*
X44402333Y-136342380D01*
X45021380Y-136342380D01*
X45307095Y-135342380D02*
X45640428Y-136342380D01*
X45973761Y-135342380D01*
X42338785Y-133992928D02*
X43100690Y-133992928D01*
X42719738Y-134373880D02*
X42719738Y-133611976D01*
X44053071Y-133373880D02*
X43576880Y-133373880D01*
X43529261Y-133850071D01*
X43576880Y-133802452D01*
X43672119Y-133754833D01*
X43910214Y-133754833D01*
X44005452Y-133802452D01*
X44053071Y-133850071D01*
X44100690Y-133945309D01*
X44100690Y-134183404D01*
X44053071Y-134278642D01*
X44005452Y-134326261D01*
X43910214Y-134373880D01*
X43672119Y-134373880D01*
X43576880Y-134326261D01*
X43529261Y-134278642D01*
X44386404Y-133373880D02*
X44719738Y-134373880D01*
X45053071Y-133373880D01*
X42695952Y-132246666D02*
X43172142Y-132246666D01*
X42600714Y-132532380D02*
X42934047Y-131532380D01*
X43267380Y-132532380D01*
X44172142Y-132437142D02*
X44124523Y-132484761D01*
X43981666Y-132532380D01*
X43886428Y-132532380D01*
X43743571Y-132484761D01*
X43648333Y-132389523D01*
X43600714Y-132294285D01*
X43553095Y-132103809D01*
X43553095Y-131960952D01*
X43600714Y-131770476D01*
X43648333Y-131675238D01*
X43743571Y-131580000D01*
X43886428Y-131532380D01*
X43981666Y-131532380D01*
X44124523Y-131580000D01*
X44172142Y-131627619D01*
X44457857Y-131532380D02*
X45029285Y-131532380D01*
X44743571Y-132532380D02*
X44743571Y-131532380D01*
X74438333Y-137564880D02*
X74533571Y-137564880D01*
X74628809Y-137612500D01*
X74676428Y-137660119D01*
X74724047Y-137755357D01*
X74771666Y-137945833D01*
X74771666Y-138183928D01*
X74724047Y-138374404D01*
X74676428Y-138469642D01*
X74628809Y-138517261D01*
X74533571Y-138564880D01*
X74438333Y-138564880D01*
X74343095Y-138517261D01*
X74295476Y-138469642D01*
X74247857Y-138374404D01*
X74200238Y-138183928D01*
X74200238Y-137945833D01*
X74247857Y-137755357D01*
X74295476Y-137660119D01*
X74343095Y-137612500D01*
X74438333Y-137564880D01*
X75628809Y-137564880D02*
X75438333Y-137564880D01*
X75343095Y-137612500D01*
X75295476Y-137660119D01*
X75200238Y-137802976D01*
X75152619Y-137993452D01*
X75152619Y-138374404D01*
X75200238Y-138469642D01*
X75247857Y-138517261D01*
X75343095Y-138564880D01*
X75533571Y-138564880D01*
X75628809Y-138517261D01*
X75676428Y-138469642D01*
X75724047Y-138374404D01*
X75724047Y-138136309D01*
X75676428Y-138041071D01*
X75628809Y-137993452D01*
X75533571Y-137945833D01*
X75343095Y-137945833D01*
X75247857Y-137993452D01*
X75200238Y-138041071D01*
X75152619Y-138136309D01*
X76152619Y-138183928D02*
X76914523Y-138183928D01*
X77581190Y-137564880D02*
X77676428Y-137564880D01*
X77771666Y-137612500D01*
X77819285Y-137660119D01*
X77866904Y-137755357D01*
X77914523Y-137945833D01*
X77914523Y-138183928D01*
X77866904Y-138374404D01*
X77819285Y-138469642D01*
X77771666Y-138517261D01*
X77676428Y-138564880D01*
X77581190Y-138564880D01*
X77485952Y-138517261D01*
X77438333Y-138469642D01*
X77390714Y-138374404D01*
X77343095Y-138183928D01*
X77343095Y-137945833D01*
X77390714Y-137755357D01*
X77438333Y-137660119D01*
X77485952Y-137612500D01*
X77581190Y-137564880D01*
X78295476Y-137660119D02*
X78343095Y-137612500D01*
X78438333Y-137564880D01*
X78676428Y-137564880D01*
X78771666Y-137612500D01*
X78819285Y-137660119D01*
X78866904Y-137755357D01*
X78866904Y-137850595D01*
X78819285Y-137993452D01*
X78247857Y-138564880D01*
X78866904Y-138564880D01*
X79295476Y-138183928D02*
X80057380Y-138183928D01*
X80485952Y-137660119D02*
X80533571Y-137612500D01*
X80628809Y-137564880D01*
X80866904Y-137564880D01*
X80962142Y-137612500D01*
X81009761Y-137660119D01*
X81057380Y-137755357D01*
X81057380Y-137850595D01*
X81009761Y-137993452D01*
X80438333Y-138564880D01*
X81057380Y-138564880D01*
X82009761Y-138564880D02*
X81438333Y-138564880D01*
X81724047Y-138564880D02*
X81724047Y-137564880D01*
X81628809Y-137707738D01*
X81533571Y-137802976D01*
X81438333Y-137850595D01*
X66462142Y-136739261D02*
X66605000Y-136786880D01*
X66843095Y-136786880D01*
X66938333Y-136739261D01*
X66985952Y-136691642D01*
X67033571Y-136596404D01*
X67033571Y-136501166D01*
X66985952Y-136405928D01*
X66938333Y-136358309D01*
X66843095Y-136310690D01*
X66652619Y-136263071D01*
X66557380Y-136215452D01*
X66509761Y-136167833D01*
X66462142Y-136072595D01*
X66462142Y-135977357D01*
X66509761Y-135882119D01*
X66557380Y-135834500D01*
X66652619Y-135786880D01*
X66890714Y-135786880D01*
X67033571Y-135834500D01*
X68033571Y-136691642D02*
X67985952Y-136739261D01*
X67843095Y-136786880D01*
X67747857Y-136786880D01*
X67605000Y-136739261D01*
X67509761Y-136644023D01*
X67462142Y-136548785D01*
X67414523Y-136358309D01*
X67414523Y-136215452D01*
X67462142Y-136024976D01*
X67509761Y-135929738D01*
X67605000Y-135834500D01*
X67747857Y-135786880D01*
X67843095Y-135786880D01*
X67985952Y-135834500D01*
X68033571Y-135882119D01*
X68414523Y-136739261D02*
X68557380Y-136786880D01*
X68795476Y-136786880D01*
X68890714Y-136739261D01*
X68938333Y-136691642D01*
X68985952Y-136596404D01*
X68985952Y-136501166D01*
X68938333Y-136405928D01*
X68890714Y-136358309D01*
X68795476Y-136310690D01*
X68605000Y-136263071D01*
X68509761Y-136215452D01*
X68462142Y-136167833D01*
X68414523Y-136072595D01*
X68414523Y-135977357D01*
X68462142Y-135882119D01*
X68509761Y-135834500D01*
X68605000Y-135786880D01*
X68843095Y-135786880D01*
X68985952Y-135834500D01*
X69414523Y-136786880D02*
X69414523Y-135786880D01*
X70509761Y-136120214D02*
X70890714Y-136120214D01*
X70652619Y-135786880D02*
X70652619Y-136644023D01*
X70700238Y-136739261D01*
X70795476Y-136786880D01*
X70890714Y-136786880D01*
X71366904Y-136786880D02*
X71271666Y-136739261D01*
X71224047Y-136691642D01*
X71176428Y-136596404D01*
X71176428Y-136310690D01*
X71224047Y-136215452D01*
X71271666Y-136167833D01*
X71366904Y-136120214D01*
X71509761Y-136120214D01*
X71605000Y-136167833D01*
X71652619Y-136215452D01*
X71700238Y-136310690D01*
X71700238Y-136596404D01*
X71652619Y-136691642D01*
X71605000Y-136739261D01*
X71509761Y-136786880D01*
X71366904Y-136786880D01*
X72843095Y-136739261D02*
X72985952Y-136786880D01*
X73224047Y-136786880D01*
X73319285Y-136739261D01*
X73366904Y-136691642D01*
X73414523Y-136596404D01*
X73414523Y-136501166D01*
X73366904Y-136405928D01*
X73319285Y-136358309D01*
X73224047Y-136310690D01*
X73033571Y-136263071D01*
X72938333Y-136215452D01*
X72890714Y-136167833D01*
X72843095Y-136072595D01*
X72843095Y-135977357D01*
X72890714Y-135882119D01*
X72938333Y-135834500D01*
X73033571Y-135786880D01*
X73271666Y-135786880D01*
X73414523Y-135834500D01*
X74414523Y-136691642D02*
X74366904Y-136739261D01*
X74224047Y-136786880D01*
X74128809Y-136786880D01*
X73985952Y-136739261D01*
X73890714Y-136644023D01*
X73843095Y-136548785D01*
X73795476Y-136358309D01*
X73795476Y-136215452D01*
X73843095Y-136024976D01*
X73890714Y-135929738D01*
X73985952Y-135834500D01*
X74128809Y-135786880D01*
X74224047Y-135786880D01*
X74366904Y-135834500D01*
X74414523Y-135882119D01*
X74795476Y-136501166D02*
X75271666Y-136501166D01*
X74700238Y-136786880D02*
X75033571Y-135786880D01*
X75366904Y-136786880D01*
X76319285Y-135786880D02*
X76652619Y-136786880D01*
X76985952Y-135786880D01*
X77795476Y-135786880D02*
X77319285Y-135786880D01*
X77271666Y-136263071D01*
X77319285Y-136215452D01*
X77414523Y-136167833D01*
X77652619Y-136167833D01*
X77747857Y-136215452D01*
X77795476Y-136263071D01*
X77843095Y-136358309D01*
X77843095Y-136596404D01*
X77795476Y-136691642D01*
X77747857Y-136739261D01*
X77652619Y-136786880D01*
X77414523Y-136786880D01*
X77319285Y-136739261D01*
X77271666Y-136691642D01*
X78271666Y-136691642D02*
X78319285Y-136739261D01*
X78271666Y-136786880D01*
X78224047Y-136739261D01*
X78271666Y-136691642D01*
X78271666Y-136786880D01*
X79271666Y-136786880D02*
X78700238Y-136786880D01*
X78985952Y-136786880D02*
X78985952Y-135786880D01*
X78890714Y-135929738D01*
X78795476Y-136024976D01*
X78700238Y-136072595D01*
X80224047Y-136786880D02*
X79652619Y-136786880D01*
X79938333Y-136786880D02*
X79938333Y-135786880D01*
X79843095Y-135929738D01*
X79747857Y-136024976D01*
X79652619Y-136072595D01*
X81747857Y-136263071D02*
X81890714Y-136310690D01*
X81938333Y-136358309D01*
X81985952Y-136453547D01*
X81985952Y-136596404D01*
X81938333Y-136691642D01*
X81890714Y-136739261D01*
X81795476Y-136786880D01*
X81414523Y-136786880D01*
X81414523Y-135786880D01*
X81747857Y-135786880D01*
X81843095Y-135834500D01*
X81890714Y-135882119D01*
X81938333Y-135977357D01*
X81938333Y-136072595D01*
X81890714Y-136167833D01*
X81843095Y-136215452D01*
X81747857Y-136263071D01*
X81414523Y-136263071D01*
X82319285Y-136120214D02*
X82557380Y-136786880D01*
X82795476Y-136120214D02*
X82557380Y-136786880D01*
X82462142Y-137024976D01*
X82414523Y-137072595D01*
X82319285Y-137120214D01*
X83938333Y-136786880D02*
X83938333Y-135786880D01*
X84271666Y-136501166D01*
X84604999Y-135786880D01*
X84604999Y-136786880D01*
X85509761Y-136786880D02*
X85509761Y-136263071D01*
X85462142Y-136167833D01*
X85366904Y-136120214D01*
X85176428Y-136120214D01*
X85081190Y-136167833D01*
X85509761Y-136739261D02*
X85414523Y-136786880D01*
X85176428Y-136786880D01*
X85081190Y-136739261D01*
X85033571Y-136644023D01*
X85033571Y-136548785D01*
X85081190Y-136453547D01*
X85176428Y-136405928D01*
X85414523Y-136405928D01*
X85509761Y-136358309D01*
X85890714Y-136786880D02*
X86414523Y-136120214D01*
X85890714Y-136120214D02*
X86414523Y-136786880D01*
X87319285Y-136786880D02*
X86747857Y-136786880D01*
X87033571Y-136786880D02*
X87033571Y-135786880D01*
X86938333Y-135929738D01*
X86843095Y-136024976D01*
X86747857Y-136072595D01*
X87652619Y-136120214D02*
X88176428Y-136120214D01*
X87652619Y-136786880D01*
X88176428Y-136786880D01*
X88462142Y-136120214D02*
X88985952Y-136120214D01*
X88462142Y-136786880D01*
X88985952Y-136786880D01*
X89271666Y-136120214D02*
X89795476Y-136120214D01*
X89271666Y-136786880D01*
X89795476Y-136786880D01*
D11*
%TO.C,J2*%
X31309000Y-148967500D02*
X36509000Y-148967500D01*
X31309000Y-136207500D02*
X31309000Y-148967500D01*
X36509000Y-133607500D02*
X36509000Y-148967500D01*
X31309000Y-136207500D02*
X33909000Y-136207500D01*
X33909000Y-136207500D02*
X33909000Y-133607500D01*
X33909000Y-133607500D02*
X36509000Y-133607500D01*
X31309000Y-134937500D02*
X31309000Y-133607500D01*
X31309000Y-133607500D02*
X32639000Y-133607500D01*
%TO.C,U1*%
X37470000Y-129775000D02*
X37470000Y-128515000D01*
X37470000Y-122955000D02*
X37470000Y-124215000D01*
X33710000Y-129775000D02*
X37470000Y-129775000D01*
X31460000Y-122955000D02*
X37470000Y-122955000D01*
%TO.C,D3*%
X41287500Y-135155000D02*
X39002500Y-135155000D01*
X39002500Y-135155000D02*
X39002500Y-136625000D01*
X39002500Y-136625000D02*
X41287500Y-136625000D01*
%TO.C,R32*%
X47090000Y-131852936D02*
X47090000Y-132307064D01*
X45620000Y-131852936D02*
X45620000Y-132307064D01*
%TO.C,R31*%
X49630000Y-131852936D02*
X49630000Y-132307064D01*
X48160000Y-131852936D02*
X48160000Y-132307064D01*
%TO.C,R30*%
X52170000Y-131852936D02*
X52170000Y-132307064D01*
X50700000Y-131852936D02*
X50700000Y-132307064D01*
%TO.C,R29*%
X54710000Y-131852936D02*
X54710000Y-132307064D01*
X53240000Y-131852936D02*
X53240000Y-132307064D01*
%TO.C,R28*%
X57250000Y-131852936D02*
X57250000Y-132307064D01*
X55780000Y-131852936D02*
X55780000Y-132307064D01*
%TO.C,R27*%
X59790000Y-131852936D02*
X59790000Y-132307064D01*
X58320000Y-131852936D02*
X58320000Y-132307064D01*
%TO.C,R26*%
X62330000Y-131852936D02*
X62330000Y-132307064D01*
X60860000Y-131852936D02*
X60860000Y-132307064D01*
%TO.C,R25*%
X64870000Y-131852936D02*
X64870000Y-132307064D01*
X63400000Y-131852936D02*
X63400000Y-132307064D01*
%TO.C,R24*%
X69950000Y-131852936D02*
X69950000Y-132307064D01*
X68480000Y-131852936D02*
X68480000Y-132307064D01*
%TO.C,R23*%
X87730000Y-131852936D02*
X87730000Y-132307064D01*
X86260000Y-131852936D02*
X86260000Y-132307064D01*
%TO.C,R22*%
X80110000Y-131852936D02*
X80110000Y-132307064D01*
X78640000Y-131852936D02*
X78640000Y-132307064D01*
%TO.C,R21*%
X82650000Y-131852936D02*
X82650000Y-132307064D01*
X81180000Y-131852936D02*
X81180000Y-132307064D01*
%TO.C,R20*%
X85190000Y-131852936D02*
X85190000Y-132307064D01*
X83720000Y-131852936D02*
X83720000Y-132307064D01*
%TO.C,R19*%
X110590000Y-131852936D02*
X110590000Y-132307064D01*
X109120000Y-131852936D02*
X109120000Y-132307064D01*
%TO.C,R18*%
X113130000Y-131852936D02*
X113130000Y-132307064D01*
X111660000Y-131852936D02*
X111660000Y-132307064D01*
%TO.C,R17*%
X67410000Y-131852936D02*
X67410000Y-132307064D01*
X65940000Y-131852936D02*
X65940000Y-132307064D01*
%TO.C,R16*%
X72490000Y-131852936D02*
X72490000Y-132307064D01*
X71020000Y-131852936D02*
X71020000Y-132307064D01*
%TO.C,R15*%
X75030000Y-131852936D02*
X75030000Y-132307064D01*
X73560000Y-131852936D02*
X73560000Y-132307064D01*
%TO.C,R14*%
X77570000Y-131852936D02*
X77570000Y-132307064D01*
X76100000Y-131852936D02*
X76100000Y-132307064D01*
%TO.C,R13*%
X90270000Y-131852936D02*
X90270000Y-132307064D01*
X88800000Y-131852936D02*
X88800000Y-132307064D01*
%TO.C,R12*%
X92810000Y-131852936D02*
X92810000Y-132307064D01*
X91340000Y-131852936D02*
X91340000Y-132307064D01*
%TO.C,R11*%
X95350000Y-131852936D02*
X95350000Y-132307064D01*
X93880000Y-131852936D02*
X93880000Y-132307064D01*
%TO.C,R10*%
X97890000Y-131852936D02*
X97890000Y-132307064D01*
X96420000Y-131852936D02*
X96420000Y-132307064D01*
%TO.C,R9*%
X100430000Y-131852936D02*
X100430000Y-132307064D01*
X98960000Y-131852936D02*
X98960000Y-132307064D01*
%TO.C,R8*%
X102970000Y-131852936D02*
X102970000Y-132307064D01*
X101500000Y-131852936D02*
X101500000Y-132307064D01*
%TO.C,R7*%
X105510000Y-131852936D02*
X105510000Y-132307064D01*
X104040000Y-131852936D02*
X104040000Y-132307064D01*
%TO.C,R6*%
X108050000Y-131852936D02*
X108050000Y-132307064D01*
X106580000Y-131852936D02*
X106580000Y-132307064D01*
%TO.C,J4*%
X112525000Y-120535000D02*
X112525000Y-129655000D01*
X112525000Y-129655000D02*
X41145000Y-129655000D01*
X41145000Y-129655000D02*
X41145000Y-120535000D01*
X41145000Y-120535000D02*
X112525000Y-120535000D01*
X78885000Y-120535000D02*
X78885000Y-121845000D01*
X78885000Y-121845000D02*
X111225000Y-121845000D01*
X111225000Y-121845000D02*
X111225000Y-128345000D01*
X111225000Y-128345000D02*
X42445000Y-128345000D01*
X42445000Y-128345000D02*
X42445000Y-121845000D01*
X42445000Y-121845000D02*
X74785000Y-121845000D01*
X74785000Y-121845000D02*
X74785000Y-121845000D01*
X74785000Y-121845000D02*
X74785000Y-120535000D01*
X107315000Y-120145000D02*
X107815000Y-119145000D01*
X107815000Y-119145000D02*
X106815000Y-119145000D01*
X106815000Y-119145000D02*
X107315000Y-120145000D01*
%TO.C,J3*%
X124220000Y-124050000D02*
X124220000Y-145190000D01*
X124220000Y-145190000D02*
X119610000Y-145190000D01*
X119610000Y-145190000D02*
X117780000Y-143360000D01*
X117780000Y-143360000D02*
X117780000Y-125880000D01*
X117780000Y-125880000D02*
X119610000Y-124050000D01*
X119610000Y-124050000D02*
X124220000Y-124050000D01*
X116720000Y-123990000D02*
X116720000Y-145250000D01*
X117860000Y-146390000D02*
X126670000Y-146390000D01*
X125280000Y-145250000D02*
X125280000Y-123990000D01*
X124140000Y-122850000D02*
X117860000Y-122850000D01*
X119140000Y-146390000D02*
X119140000Y-147470000D01*
X119140000Y-147470000D02*
X122860000Y-147470000D01*
X122860000Y-147470000D02*
X122860000Y-146390000D01*
X119140000Y-122850000D02*
X119140000Y-121770000D01*
X119140000Y-121770000D02*
X122860000Y-121770000D01*
X122860000Y-121770000D02*
X122860000Y-122850000D01*
X125280000Y-144700000D02*
X126670000Y-144700000D01*
X126670000Y-144700000D02*
X126670000Y-146390000D01*
X126670000Y-124530000D02*
X126670000Y-126220000D01*
X126670000Y-126220000D02*
X125280000Y-126220000D01*
X125280000Y-124530000D02*
X126670000Y-124530000D01*
X126670000Y-141290000D02*
X125280000Y-141290000D01*
X125280000Y-139600000D02*
X126670000Y-139600000D01*
X126670000Y-139600000D02*
X126670000Y-141290000D01*
X126670000Y-134500000D02*
X126670000Y-136190000D01*
X126670000Y-136190000D02*
X125280000Y-136190000D01*
X125280000Y-134500000D02*
X126670000Y-134500000D01*
X125280000Y-129420000D02*
X126670000Y-129420000D01*
X126670000Y-131110000D02*
X125280000Y-131110000D01*
X126670000Y-129420000D02*
X126670000Y-131110000D01*
X116720000Y-123990000D02*
G75*
G02*
X117860000Y-122850000I1140000J0D01*
G01*
X124140000Y-122850000D02*
G75*
G02*
X125280000Y-123990000I0J-1140000D01*
G01*
X117860000Y-146390000D02*
G75*
G02*
X116720000Y-145250000I0J1140000D01*
G01*
X125280000Y-145250000D02*
G75*
G02*
X124140000Y-146390000I-1140000J0D01*
G01*
%TO.C,D2*%
X41287500Y-133250000D02*
X39002500Y-133250000D01*
X39002500Y-133250000D02*
X39002500Y-134720000D01*
X39002500Y-134720000D02*
X41287500Y-134720000D01*
%TO.C,D1*%
X39675000Y-132815000D02*
X41960000Y-132815000D01*
X41960000Y-132815000D02*
X41960000Y-131345000D01*
X41960000Y-131345000D02*
X39675000Y-131345000D01*
%TO.C,C2*%
X35506252Y-122020000D02*
X34983748Y-122020000D01*
X35506252Y-120550000D02*
X34983748Y-120550000D01*
%TO.C,C1*%
X35298748Y-130710000D02*
X35821252Y-130710000D01*
X35298748Y-132180000D02*
X35821252Y-132180000D01*
%TD*%
M02*
