M48
; DRILL file {KiCad (5.1.7)-1} date 02/10/21 19:53:11
; FORMAT={-:-/ absolute / inch / decimal}
; #@! TF.CreationDate,2021-02-10T19:53:11+00:00
; #@! TF.GenerationSoftware,Kicad,Pcbnew,(5.1.7)-1
FMAT,2
INCH
T1C0.0118
T2C0.0157
T3C0.0354
T4C0.0394
T5C0.0701
T6C0.1024
T7C0.1102
%
G90
G05
T1
X1.2125Y-4.9375
X1.4616Y-4.9334
X1.4944Y-5.35
X1.5975Y-5.0825
X1.625Y-5.2
X1.625Y-5.275
X1.6275Y-5.35
X1.6475Y-5.63
X1.825Y-5.235
X1.925Y-5.235
X2.025Y-5.235
X2.125Y-5.235
X2.225Y-5.235
X2.325Y-5.235
X2.425Y-5.235
X2.525Y-5.235
X2.6249Y-5.1641
X2.625Y-5.235
X2.725Y-5.235
X2.8249Y-5.1641
X2.825Y-5.235
X2.9249Y-5.1641
X2.925Y-5.235
X3.0249Y-5.1641
X3.025Y-5.235
X3.1249Y-5.1641
X3.125Y-5.235
X3.2249Y-5.1641
X3.225Y-5.235
X3.3249Y-5.1641
X3.325Y-5.235
X3.425Y-5.235
X3.525Y-5.235
X3.625Y-5.235
X3.725Y-5.235
X3.825Y-5.235
X3.925Y-5.235
X4.025Y-5.235
X4.125Y-5.235
X4.225Y-5.235
X4.3249Y-5.1641
X4.325Y-5.235
X4.425Y-5.164
X4.425Y-5.235
T2
X1.295Y-4.7925
X1.3502Y-4.775
X1.4375Y-5.175
X1.6756Y-5.0481
X1.6992Y-5.0722
T3
X2.025Y-5.6623
X2.025Y-5.8127
X2.075Y-5.5871
X2.075Y-5.7375
X2.125Y-5.6623
X2.125Y-5.8127
X2.175Y-5.5871
X2.175Y-5.7375
X2.225Y-5.6623
X2.225Y-5.8127
X2.275Y-5.5871
X2.275Y-5.7375
X2.325Y-5.6623
X2.325Y-5.8127
X2.375Y-5.5871
X2.375Y-5.7375
X2.425Y-5.6623
X2.425Y-5.8127
X2.475Y-5.5871
X2.475Y-5.7375
X2.525Y-5.6623
X2.525Y-5.8127
X2.575Y-5.5871
X2.575Y-5.7375
X2.625Y-5.6623
X2.625Y-5.8127
X2.675Y-5.5871
X2.675Y-5.7375
X2.725Y-5.6623
X2.725Y-5.8127
X2.775Y-5.5871
X2.775Y-5.7375
X2.825Y-5.6623
X2.825Y-5.8127
X2.875Y-5.5871
X2.875Y-5.7375
X2.925Y-5.6623
X2.925Y-5.8127
X2.975Y-5.5871
X2.975Y-5.7375
X3.025Y-5.6623
X3.025Y-5.8127
X3.075Y-5.5871
X3.075Y-5.7375
X3.125Y-5.6623
X3.125Y-5.8127
X3.175Y-5.5871
X3.175Y-5.7375
X3.225Y-5.6623
X3.225Y-5.8127
X3.275Y-5.5871
X3.275Y-5.7375
X3.325Y-5.6623
X3.325Y-5.8127
X3.375Y-5.5871
X3.375Y-5.7375
X3.425Y-5.6623
X3.425Y-5.8127
X3.475Y-5.5871
X3.475Y-5.7375
X3.525Y-5.6623
X3.525Y-5.8127
X3.575Y-5.5871
X3.575Y-5.7375
X3.625Y-5.6623
X3.625Y-5.8127
X3.675Y-5.5871
X3.675Y-5.7375
X3.725Y-5.6623
X3.725Y-5.8127
X3.775Y-5.5871
X3.775Y-5.7375
X3.825Y-5.6623
X3.825Y-5.8127
X3.875Y-5.5871
X3.875Y-5.7375
X3.925Y-5.6623
X3.925Y-5.8127
X3.975Y-5.5871
X3.975Y-5.7375
T4
X1.825Y-4.875
X1.825Y-4.975
X1.925Y-4.875
X1.925Y-4.975
X2.025Y-4.875
X2.025Y-4.975
X2.125Y-4.875
X2.125Y-4.975
X2.225Y-4.875
X2.225Y-4.975
X2.325Y-4.875
X2.325Y-4.975
X2.425Y-4.875
X2.425Y-4.975
X2.525Y-4.875
X2.525Y-4.975
X2.625Y-4.875
X2.625Y-4.975
X2.725Y-4.875
X2.725Y-4.975
X2.825Y-4.875
X2.825Y-4.975
X2.925Y-4.875
X2.925Y-4.975
X3.025Y-4.875
X3.025Y-4.975
X3.125Y-4.875
X3.125Y-4.975
X3.225Y-4.875
X3.225Y-4.975
X3.325Y-4.875
X3.325Y-4.975
X3.425Y-4.875
X3.425Y-4.975
X3.525Y-4.875
X3.525Y-4.975
X3.625Y-4.875
X3.625Y-4.975
X3.725Y-4.875
X3.725Y-4.975
X3.825Y-4.875
X3.825Y-4.975
X3.925Y-4.875
X3.925Y-4.975
X4.025Y-4.875
X4.025Y-4.975
X4.125Y-4.875
X4.125Y-4.975
X4.225Y-4.875
X4.225Y-4.975
X1.285Y-5.3125
X1.285Y-5.4125
X1.285Y-5.5125
X1.285Y-5.6125
X1.285Y-5.7125
X1.285Y-5.8125
X1.385Y-5.3125
X1.385Y-5.4125
X1.385Y-5.5125
X1.385Y-5.6125
X1.385Y-5.7125
X1.385Y-5.8125
T5
X4.7638Y-5.0
X4.7638Y-5.2
X4.7638Y-5.4
X4.7638Y-5.6
T6
X1.94Y-5.61
T7
X1.83Y-5.7
X4.17Y-5.7
T0
M30
