%TF.GenerationSoftware,KiCad,Pcbnew,(5.1.7)-1*%
%TF.CreationDate,2021-02-10T19:53:02+00:00*%
%TF.ProjectId,SCSI to SCA MK5.1,53435349-2074-46f2-9053-4341204d4b35,rev?*%
%TF.SameCoordinates,Original*%
%TF.FileFunction,Copper,L4,Bot*%
%TF.FilePolarity,Positive*%
%FSLAX46Y46*%
G04 Gerber Fmt 4.6, Leading zero omitted, Abs format (unit mm)*
G04 Created by KiCad (PCBNEW (5.1.7)-1) date 2021-02-10 19:53:02*
%MOMM*%
%LPD*%
G01*
G04 APERTURE LIST*
%TA.AperFunction,SMDPad,CuDef*%
%ADD10R,0.700000X0.450000*%
%TD*%
%TA.AperFunction,ComponentPad*%
%ADD11O,1.700000X1.700000*%
%TD*%
%TA.AperFunction,ComponentPad*%
%ADD12R,1.700000X1.700000*%
%TD*%
%TA.AperFunction,ComponentPad*%
%ADD13C,1.700000*%
%TD*%
%TA.AperFunction,ComponentPad*%
%ADD14C,2.780000*%
%TD*%
%TA.AperFunction,ComponentPad*%
%ADD15R,2.780000X2.780000*%
%TD*%
%TA.AperFunction,ComponentPad*%
%ADD16C,1.270000*%
%TD*%
%TA.AperFunction,ViaPad*%
%ADD17C,0.800000*%
%TD*%
%TA.AperFunction,ViaPad*%
%ADD18C,0.600000*%
%TD*%
%TA.AperFunction,Conductor*%
%ADD19C,1.000000*%
%TD*%
%TA.AperFunction,Conductor*%
%ADD20C,2.000000*%
%TD*%
%TA.AperFunction,Conductor*%
%ADD21C,4.000000*%
%TD*%
%TA.AperFunction,Conductor*%
%ADD22C,0.250000*%
%TD*%
%TA.AperFunction,Conductor*%
%ADD23C,0.500000*%
%TD*%
%TA.AperFunction,Conductor*%
%ADD24C,1.500000*%
%TD*%
%TA.AperFunction,Conductor*%
%ADD25C,0.127000*%
%TD*%
G04 APERTURE END LIST*
D10*
%TO.P,Q2,3*%
%TO.N,/LED_T*%
X38036500Y-127825500D03*
%TO.P,Q2,2*%
%TO.N,+5V*%
X36036500Y-127175500D03*
%TO.P,Q2,1*%
%TO.N,Net-(Q2-Pad1)*%
X36036500Y-128475500D03*
%TD*%
%TO.P,Q1,3*%
%TO.N,Net-(D1-Pad2)*%
X38036500Y-124269500D03*
%TO.P,Q1,2*%
%TO.N,+5V*%
X36036500Y-123619500D03*
%TO.P,Q1,1*%
%TO.N,Net-(Q1-Pad1)*%
X36036500Y-124919500D03*
%TD*%
D11*
%TO.P,J2,12*%
%TO.N,GND*%
X35179000Y-147637500D03*
%TO.P,J2,11*%
%TO.N,/ID2*%
X32639000Y-147637500D03*
%TO.P,J2,10*%
%TO.N,GND*%
X35179000Y-145097500D03*
%TO.P,J2,9*%
%TO.N,/ID1*%
X32639000Y-145097500D03*
%TO.P,J2,8*%
%TO.N,GND*%
X35179000Y-142557500D03*
%TO.P,J2,7*%
%TO.N,/ID0*%
X32639000Y-142557500D03*
%TO.P,J2,6*%
%TO.N,Net-(J2-Pad6)*%
X35179000Y-140017500D03*
%TO.P,J2,5*%
%TO.N,/LED_T*%
X32639000Y-140017500D03*
%TO.P,J2,4*%
%TO.N,/TERMPWR_8BIT*%
X35179000Y-137477500D03*
%TO.P,J2,3*%
%TO.N,/TERMPWR_REG*%
X32639000Y-137477500D03*
%TO.P,J2,2*%
%TO.N,/TERMPWR*%
X35179000Y-134937500D03*
D12*
%TO.P,J2,1*%
%TO.N,Net-(F1-Pad2)*%
X32639000Y-134937500D03*
%TD*%
%TO.P,R34,2*%
%TO.N,+5V*%
%TA.AperFunction,SMDPad,CuDef*%
G36*
G01*
X40847600Y-123841560D02*
X41397600Y-123841560D01*
G75*
G02*
X41597600Y-124041560I0J-200000D01*
G01*
X41597600Y-124441560D01*
G75*
G02*
X41397600Y-124641560I-200000J0D01*
G01*
X40847600Y-124641560D01*
G75*
G02*
X40647600Y-124441560I0J200000D01*
G01*
X40647600Y-124041560D01*
G75*
G02*
X40847600Y-123841560I200000J0D01*
G01*
G37*
%TD.AperFunction*%
%TO.P,R34,1*%
%TO.N,/LED*%
%TA.AperFunction,SMDPad,CuDef*%
G36*
G01*
X40847600Y-122191560D02*
X41397600Y-122191560D01*
G75*
G02*
X41597600Y-122391560I0J-200000D01*
G01*
X41597600Y-122791560D01*
G75*
G02*
X41397600Y-122991560I-200000J0D01*
G01*
X40847600Y-122991560D01*
G75*
G02*
X40647600Y-122791560I0J200000D01*
G01*
X40647600Y-122391560D01*
G75*
G02*
X40847600Y-122191560I200000J0D01*
G01*
G37*
%TD.AperFunction*%
%TD*%
%TO.P,R33,2*%
%TO.N,Net-(D3-Pad2)*%
%TA.AperFunction,SMDPad,CuDef*%
G36*
G01*
X41613500Y-136290000D02*
X41063500Y-136290000D01*
G75*
G02*
X40863500Y-136090000I0J200000D01*
G01*
X40863500Y-135690000D01*
G75*
G02*
X41063500Y-135490000I200000J0D01*
G01*
X41613500Y-135490000D01*
G75*
G02*
X41813500Y-135690000I0J-200000D01*
G01*
X41813500Y-136090000D01*
G75*
G02*
X41613500Y-136290000I-200000J0D01*
G01*
G37*
%TD.AperFunction*%
%TO.P,R33,1*%
%TO.N,+12V*%
%TA.AperFunction,SMDPad,CuDef*%
G36*
G01*
X41613500Y-137940000D02*
X41063500Y-137940000D01*
G75*
G02*
X40863500Y-137740000I0J200000D01*
G01*
X40863500Y-137340000D01*
G75*
G02*
X41063500Y-137140000I200000J0D01*
G01*
X41613500Y-137140000D01*
G75*
G02*
X41813500Y-137340000I0J-200000D01*
G01*
X41813500Y-137740000D01*
G75*
G02*
X41613500Y-137940000I-200000J0D01*
G01*
G37*
%TD.AperFunction*%
%TD*%
%TO.P,R5,2*%
%TO.N,Net-(D2-Pad2)*%
%TA.AperFunction,SMDPad,CuDef*%
G36*
G01*
X40875000Y-134260000D02*
X40875000Y-133710000D01*
G75*
G02*
X41075000Y-133510000I200000J0D01*
G01*
X41475000Y-133510000D01*
G75*
G02*
X41675000Y-133710000I0J-200000D01*
G01*
X41675000Y-134260000D01*
G75*
G02*
X41475000Y-134460000I-200000J0D01*
G01*
X41075000Y-134460000D01*
G75*
G02*
X40875000Y-134260000I0J200000D01*
G01*
G37*
%TD.AperFunction*%
%TO.P,R5,1*%
%TO.N,+5V*%
%TA.AperFunction,SMDPad,CuDef*%
G36*
G01*
X39225000Y-134260000D02*
X39225000Y-133710000D01*
G75*
G02*
X39425000Y-133510000I200000J0D01*
G01*
X39825000Y-133510000D01*
G75*
G02*
X40025000Y-133710000I0J-200000D01*
G01*
X40025000Y-134260000D01*
G75*
G02*
X39825000Y-134460000I-200000J0D01*
G01*
X39425000Y-134460000D01*
G75*
G02*
X39225000Y-134260000I0J200000D01*
G01*
G37*
%TD.AperFunction*%
%TD*%
%TO.P,R4,2*%
%TO.N,Net-(D1-Pad1)*%
%TA.AperFunction,SMDPad,CuDef*%
G36*
G01*
X40875000Y-132355000D02*
X40875000Y-131805000D01*
G75*
G02*
X41075000Y-131605000I200000J0D01*
G01*
X41475000Y-131605000D01*
G75*
G02*
X41675000Y-131805000I0J-200000D01*
G01*
X41675000Y-132355000D01*
G75*
G02*
X41475000Y-132555000I-200000J0D01*
G01*
X41075000Y-132555000D01*
G75*
G02*
X40875000Y-132355000I0J200000D01*
G01*
G37*
%TD.AperFunction*%
%TO.P,R4,1*%
%TO.N,GND*%
%TA.AperFunction,SMDPad,CuDef*%
G36*
G01*
X39225000Y-132355000D02*
X39225000Y-131805000D01*
G75*
G02*
X39425000Y-131605000I200000J0D01*
G01*
X39825000Y-131605000D01*
G75*
G02*
X40025000Y-131805000I0J-200000D01*
G01*
X40025000Y-132355000D01*
G75*
G02*
X39825000Y-132555000I-200000J0D01*
G01*
X39425000Y-132555000D01*
G75*
G02*
X39225000Y-132355000I0J200000D01*
G01*
G37*
%TD.AperFunction*%
%TD*%
%TO.P,R3,2*%
%TO.N,/LED*%
%TA.AperFunction,SMDPad,CuDef*%
G36*
G01*
X32025000Y-123400500D02*
X31475000Y-123400500D01*
G75*
G02*
X31275000Y-123200500I0J200000D01*
G01*
X31275000Y-122800500D01*
G75*
G02*
X31475000Y-122600500I200000J0D01*
G01*
X32025000Y-122600500D01*
G75*
G02*
X32225000Y-122800500I0J-200000D01*
G01*
X32225000Y-123200500D01*
G75*
G02*
X32025000Y-123400500I-200000J0D01*
G01*
G37*
%TD.AperFunction*%
%TO.P,R3,1*%
%TO.N,Net-(Q1-Pad1)*%
%TA.AperFunction,SMDPad,CuDef*%
G36*
G01*
X32025000Y-125050500D02*
X31475000Y-125050500D01*
G75*
G02*
X31275000Y-124850500I0J200000D01*
G01*
X31275000Y-124450500D01*
G75*
G02*
X31475000Y-124250500I200000J0D01*
G01*
X32025000Y-124250500D01*
G75*
G02*
X32225000Y-124450500I0J-200000D01*
G01*
X32225000Y-124850500D01*
G75*
G02*
X32025000Y-125050500I-200000J0D01*
G01*
G37*
%TD.AperFunction*%
%TD*%
%TO.P,R2,2*%
%TO.N,/LED*%
%TA.AperFunction,SMDPad,CuDef*%
G36*
G01*
X32025000Y-126574500D02*
X31475000Y-126574500D01*
G75*
G02*
X31275000Y-126374500I0J200000D01*
G01*
X31275000Y-125974500D01*
G75*
G02*
X31475000Y-125774500I200000J0D01*
G01*
X32025000Y-125774500D01*
G75*
G02*
X32225000Y-125974500I0J-200000D01*
G01*
X32225000Y-126374500D01*
G75*
G02*
X32025000Y-126574500I-200000J0D01*
G01*
G37*
%TD.AperFunction*%
%TO.P,R2,1*%
%TO.N,Net-(Q2-Pad1)*%
%TA.AperFunction,SMDPad,CuDef*%
G36*
G01*
X32025000Y-128224500D02*
X31475000Y-128224500D01*
G75*
G02*
X31275000Y-128024500I0J200000D01*
G01*
X31275000Y-127624500D01*
G75*
G02*
X31475000Y-127424500I200000J0D01*
G01*
X32025000Y-127424500D01*
G75*
G02*
X32225000Y-127624500I0J-200000D01*
G01*
X32225000Y-128024500D01*
G75*
G02*
X32025000Y-128224500I-200000J0D01*
G01*
G37*
%TD.AperFunction*%
%TD*%
%TO.P,R1,2*%
%TO.N,GND*%
%TA.AperFunction,SMDPad,CuDef*%
G36*
G01*
X39962500Y-136291000D02*
X39412500Y-136291000D01*
G75*
G02*
X39212500Y-136091000I0J200000D01*
G01*
X39212500Y-135691000D01*
G75*
G02*
X39412500Y-135491000I200000J0D01*
G01*
X39962500Y-135491000D01*
G75*
G02*
X40162500Y-135691000I0J-200000D01*
G01*
X40162500Y-136091000D01*
G75*
G02*
X39962500Y-136291000I-200000J0D01*
G01*
G37*
%TD.AperFunction*%
%TO.P,R1,1*%
%TO.N,Net-(J2-Pad6)*%
%TA.AperFunction,SMDPad,CuDef*%
G36*
G01*
X39962500Y-137941000D02*
X39412500Y-137941000D01*
G75*
G02*
X39212500Y-137741000I0J200000D01*
G01*
X39212500Y-137341000D01*
G75*
G02*
X39412500Y-137141000I200000J0D01*
G01*
X39962500Y-137141000D01*
G75*
G02*
X40162500Y-137341000I0J-200000D01*
G01*
X40162500Y-137741000D01*
G75*
G02*
X39962500Y-137941000I-200000J0D01*
G01*
G37*
%TD.AperFunction*%
%TD*%
D13*
%TO.P,J4,50*%
%TO.N,/I-O*%
X46355000Y-126365000D03*
%TO.P,J4,48*%
%TO.N,/REQ*%
X48895000Y-126365000D03*
%TO.P,J4,46*%
%TO.N,/C-D*%
X51435000Y-126365000D03*
%TO.P,J4,44*%
%TO.N,/SEL*%
X53975000Y-126365000D03*
%TO.P,J4,42*%
%TO.N,/MSG*%
X56515000Y-126365000D03*
%TO.P,J4,40*%
%TO.N,/RST*%
X59055000Y-126365000D03*
%TO.P,J4,38*%
%TO.N,/ACK*%
X61595000Y-126365000D03*
%TO.P,J4,36*%
%TO.N,/BSY*%
X64135000Y-126365000D03*
%TO.P,J4,34*%
%TO.N,GND*%
X66675000Y-126365000D03*
%TO.P,J4,32*%
%TO.N,/ATN*%
X69215000Y-126365000D03*
%TO.P,J4,30*%
%TO.N,GND*%
X71755000Y-126365000D03*
%TO.P,J4,28*%
X74295000Y-126365000D03*
%TO.P,J4,26*%
%TO.N,Net-(J4-Pad26)*%
X76835000Y-126365000D03*
%TO.P,J4,24*%
%TO.N,GND*%
X79375000Y-126365000D03*
%TO.P,J4,22*%
X81915000Y-126365000D03*
%TO.P,J4,20*%
X84455000Y-126365000D03*
%TO.P,J4,18*%
%TO.N,/PARITY*%
X86995000Y-126365000D03*
%TO.P,J4,16*%
%TO.N,/DB7*%
X89535000Y-126365000D03*
%TO.P,J4,14*%
%TO.N,/DB6*%
X92075000Y-126365000D03*
%TO.P,J4,12*%
%TO.N,/DB5*%
X94615000Y-126365000D03*
%TO.P,J4,10*%
%TO.N,/DB4*%
X97155000Y-126365000D03*
%TO.P,J4,8*%
%TO.N,/DB3*%
X99695000Y-126365000D03*
%TO.P,J4,6*%
%TO.N,/DB2*%
X102235000Y-126365000D03*
%TO.P,J4,4*%
%TO.N,/DB1*%
X104775000Y-126365000D03*
%TO.P,J4,2*%
%TO.N,/DB0*%
X107315000Y-126365000D03*
%TO.P,J4,49*%
%TO.N,GND*%
X46355000Y-123825000D03*
%TO.P,J4,47*%
X48895000Y-123825000D03*
%TO.P,J4,45*%
X51435000Y-123825000D03*
%TO.P,J4,43*%
X53975000Y-123825000D03*
%TO.P,J4,41*%
X56515000Y-123825000D03*
%TO.P,J4,39*%
X59055000Y-123825000D03*
%TO.P,J4,37*%
X61595000Y-123825000D03*
%TO.P,J4,35*%
X64135000Y-123825000D03*
%TO.P,J4,33*%
X66675000Y-123825000D03*
%TO.P,J4,31*%
X69215000Y-123825000D03*
%TO.P,J4,29*%
X71755000Y-123825000D03*
%TO.P,J4,27*%
X74295000Y-123825000D03*
%TO.P,J4,25*%
%TO.N,Net-(J4-Pad25)*%
X76835000Y-123825000D03*
%TO.P,J4,23*%
%TO.N,GND*%
X79375000Y-123825000D03*
%TO.P,J4,21*%
X81915000Y-123825000D03*
%TO.P,J4,19*%
X84455000Y-123825000D03*
%TO.P,J4,17*%
X86995000Y-123825000D03*
%TO.P,J4,15*%
X89535000Y-123825000D03*
%TO.P,J4,13*%
X92075000Y-123825000D03*
%TO.P,J4,11*%
X94615000Y-123825000D03*
%TO.P,J4,9*%
X97155000Y-123825000D03*
%TO.P,J4,7*%
X99695000Y-123825000D03*
%TO.P,J4,5*%
X102235000Y-123825000D03*
%TO.P,J4,3*%
X104775000Y-123825000D03*
%TO.P,J4,1*%
%TA.AperFunction,ComponentPad*%
G36*
G01*
X106715000Y-122975000D02*
X107915000Y-122975000D01*
G75*
G02*
X108165000Y-123225000I0J-250000D01*
G01*
X108165000Y-124425000D01*
G75*
G02*
X107915000Y-124675000I-250000J0D01*
G01*
X106715000Y-124675000D01*
G75*
G02*
X106465000Y-124425000I0J250000D01*
G01*
X106465000Y-123225000D01*
G75*
G02*
X106715000Y-122975000I250000J0D01*
G01*
G37*
%TD.AperFunction*%
%TD*%
D14*
%TO.P,J3,4*%
%TO.N,+5V*%
X121000000Y-142240000D03*
%TO.P,J3,3*%
%TO.N,GND*%
X121000000Y-137160000D03*
%TO.P,J3,2*%
X121000000Y-132080000D03*
D15*
%TO.P,J3,1*%
%TO.N,+12V*%
X121000000Y-127000000D03*
%TD*%
%TO.P,F1,2*%
%TO.N,Net-(F1-Pad2)*%
%TA.AperFunction,SMDPad,CuDef*%
G36*
G01*
X32559500Y-130947000D02*
X32559500Y-132197000D01*
G75*
G02*
X32309500Y-132447000I-250000J0D01*
G01*
X31559500Y-132447000D01*
G75*
G02*
X31309500Y-132197000I0J250000D01*
G01*
X31309500Y-130947000D01*
G75*
G02*
X31559500Y-130697000I250000J0D01*
G01*
X32309500Y-130697000D01*
G75*
G02*
X32559500Y-130947000I0J-250000D01*
G01*
G37*
%TD.AperFunction*%
%TO.P,F1,1*%
%TO.N,+5V*%
%TA.AperFunction,SMDPad,CuDef*%
G36*
G01*
X35359500Y-130947000D02*
X35359500Y-132197000D01*
G75*
G02*
X35109500Y-132447000I-250000J0D01*
G01*
X34359500Y-132447000D01*
G75*
G02*
X34109500Y-132197000I0J250000D01*
G01*
X34109500Y-130947000D01*
G75*
G02*
X34359500Y-130697000I250000J0D01*
G01*
X35109500Y-130697000D01*
G75*
G02*
X35359500Y-130947000I0J-250000D01*
G01*
G37*
%TD.AperFunction*%
%TD*%
D16*
%TO.P,J1,41*%
%TO.N,GND*%
X51435000Y-143823000D03*
%TO.P,J1,42*%
X52705000Y-141913000D03*
%TO.P,J1,43*%
X53975000Y-143823000D03*
%TO.P,J1,44*%
X55245000Y-141913000D03*
%TO.P,J1,45*%
%TO.N,Net-(J1-Pad45)*%
X56515000Y-143823000D03*
%TO.P,J1,46*%
%TO.N,GND*%
X57785000Y-141913000D03*
%TO.P,J1,47*%
X59055000Y-143823000D03*
%TO.P,J1,48*%
X60325000Y-141913000D03*
%TO.P,J1,49*%
X61595000Y-143823000D03*
%TO.P,J1,50*%
X62865000Y-141913000D03*
%TO.P,J1,51*%
X64135000Y-143823000D03*
%TO.P,J1,52*%
X65405000Y-141913000D03*
%TO.P,J1,53*%
X66675000Y-143823000D03*
%TO.P,J1,54*%
X67945000Y-141913000D03*
%TO.P,J1,55*%
X69215000Y-143823000D03*
%TO.P,J1,56*%
X70485000Y-141913000D03*
%TO.P,J1,57*%
X71755000Y-143823000D03*
%TO.P,J1,58*%
X73025000Y-141913000D03*
%TO.P,J1,59*%
X74295000Y-143823000D03*
%TO.P,J1,60*%
X75565000Y-141913000D03*
%TO.P,J1,61*%
X76835000Y-143823000D03*
%TO.P,J1,62*%
X78105000Y-141913000D03*
%TO.P,J1,63*%
X79375000Y-143823000D03*
%TO.P,J1,64*%
X80645000Y-141913000D03*
%TO.P,J1,65*%
X81915000Y-143823000D03*
%TO.P,J1,66*%
X83185000Y-141913000D03*
%TO.P,J1,67*%
X84455000Y-143823000D03*
%TO.P,J1,68*%
X85725000Y-141913000D03*
%TO.P,J1,69*%
X86995000Y-143823000D03*
%TO.P,J1,70*%
X88265000Y-141913000D03*
%TO.P,J1,71*%
X89535000Y-143823000D03*
%TO.P,J1,72*%
X90805000Y-141913000D03*
%TO.P,J1,73*%
X92075000Y-143823000D03*
%TO.P,J1,74*%
X93345000Y-141913000D03*
%TO.P,J1,75*%
X94615000Y-143823000D03*
%TO.P,J1,76*%
X95885000Y-141913000D03*
%TO.P,J1,77*%
%TO.N,/LED*%
X97155000Y-143823000D03*
%TO.P,J1,78*%
%TO.N,Net-(J1-Pad78)*%
X98425000Y-141913000D03*
%TO.P,J1,79*%
%TO.N,/ID1*%
X99695000Y-143823000D03*
%TO.P,J1,80*%
%TO.N,Net-(J1-Pad80)*%
X100965000Y-141913000D03*
%TO.P,J1,1*%
%TO.N,+12V*%
X51435000Y-147643000D03*
%TO.P,J1,2*%
X52705000Y-145733000D03*
%TO.P,J1,3*%
X53975000Y-147643000D03*
%TO.P,J1,4*%
X55245000Y-145733000D03*
%TO.P,J1,5*%
%TO.N,Net-(J1-Pad5)*%
X56515000Y-147643000D03*
%TO.P,J1,6*%
%TO.N,Net-(J1-Pad6)*%
X57785000Y-145733000D03*
%TO.P,J1,7*%
%TO.N,/DB11*%
X59055000Y-147643000D03*
%TO.P,J1,8*%
%TO.N,/DB10*%
X60325000Y-145733000D03*
%TO.P,J1,9*%
%TO.N,/DB9*%
X61595000Y-147643000D03*
%TO.P,J1,10*%
%TO.N,/DB8*%
X62865000Y-145733000D03*
%TO.P,J1,11*%
%TO.N,/I-O*%
X64135000Y-147643000D03*
%TO.P,J1,12*%
%TO.N,/REQ*%
X65405000Y-145733000D03*
%TO.P,J1,13*%
%TO.N,/C-D*%
X66675000Y-147643000D03*
%TO.P,J1,14*%
%TO.N,/SEL*%
X67945000Y-145733000D03*
%TO.P,J1,15*%
%TO.N,/MSG*%
X69215000Y-147643000D03*
%TO.P,J1,16*%
%TO.N,/RST*%
X70485000Y-145733000D03*
%TO.P,J1,17*%
%TO.N,/ACK*%
X71755000Y-147643000D03*
%TO.P,J1,18*%
%TO.N,/BSY*%
X73025000Y-145733000D03*
%TO.P,J1,19*%
%TO.N,/ATN*%
X74295000Y-147643000D03*
%TO.P,J1,20*%
%TO.N,/PARITY*%
X75565000Y-145733000D03*
%TO.P,J1,21*%
%TO.N,/DB7*%
X76835000Y-147643000D03*
%TO.P,J1,22*%
%TO.N,/DB6*%
X78105000Y-145733000D03*
%TO.P,J1,23*%
%TO.N,/DB5*%
X79375000Y-147643000D03*
%TO.P,J1,24*%
%TO.N,/DB4*%
X80645000Y-145733000D03*
%TO.P,J1,25*%
%TO.N,/DB3*%
X81915000Y-147643000D03*
%TO.P,J1,26*%
%TO.N,/DB2*%
X83185000Y-145733000D03*
%TO.P,J1,27*%
%TO.N,/DB1*%
X84455000Y-147643000D03*
%TO.P,J1,28*%
%TO.N,/DB0*%
X85725000Y-145733000D03*
%TO.P,J1,29*%
%TO.N,/DBP1*%
X86995000Y-147643000D03*
%TO.P,J1,30*%
%TO.N,/DB15*%
X88265000Y-145733000D03*
%TO.P,J1,31*%
%TO.N,/DB14*%
X89535000Y-147643000D03*
%TO.P,J1,32*%
%TO.N,/DB13*%
X90805000Y-145733000D03*
%TO.P,J1,33*%
%TO.N,/DB12*%
X92075000Y-147643000D03*
%TO.P,J1,34*%
%TO.N,+5V*%
X93345000Y-145733000D03*
%TO.P,J1,35*%
X94615000Y-147643000D03*
%TO.P,J1,36*%
%TO.N,Net-(J1-Pad36)*%
X95885000Y-145733000D03*
%TO.P,J1,37*%
%TO.N,Net-(J1-Pad37)*%
X97155000Y-147643000D03*
%TO.P,J1,38*%
%TO.N,Net-(J1-Pad38)*%
X98425000Y-145733000D03*
%TO.P,J1,39*%
%TO.N,/ID0*%
X99695000Y-147643000D03*
%TO.P,J1,40*%
%TO.N,/ID2*%
X100965000Y-145733000D03*
%TD*%
D17*
%TO.N,GND*%
X36512500Y-131445000D03*
X32893000Y-121729500D03*
X34295000Y-121285000D03*
D18*
X37958760Y-135891000D03*
%TO.N,/TERMPWR_REG*%
X66673100Y-131167500D03*
X71753100Y-131167500D03*
X74293100Y-131167500D03*
X76833100Y-131167500D03*
X79373100Y-131167500D03*
X81913100Y-131167500D03*
X84453100Y-131167500D03*
X109853100Y-131167500D03*
X112395000Y-131165600D03*
D17*
X42561510Y-128223010D03*
X43159680Y-128833880D03*
D18*
%TO.N,Net-(D1-Pad2)*%
X40576500Y-129095500D03*
X37124640Y-125308360D03*
%TO.N,Net-(D1-Pad1)*%
X41275000Y-132080000D03*
%TO.N,Net-(D2-Pad2)*%
X41275000Y-133985000D03*
%TO.N,/LED*%
X30797500Y-125412500D03*
%TO.N,+12V*%
X41846500Y-143002000D03*
%TO.N,/DB11*%
X66675000Y-132969000D03*
%TO.N,/DB10*%
X71755000Y-132969000D03*
%TO.N,/DB9*%
X74295000Y-132969000D03*
%TO.N,/DB8*%
X76835000Y-132969000D03*
%TO.N,/I-O*%
X46355000Y-132969000D03*
%TO.N,/REQ*%
X48895000Y-132969000D03*
%TO.N,/C-D*%
X51435000Y-132969000D03*
%TO.N,/SEL*%
X53975000Y-132969000D03*
%TO.N,/MSG*%
X56515000Y-132969000D03*
%TO.N,/RST*%
X59055000Y-132969000D03*
%TO.N,/ACK*%
X61595000Y-132969000D03*
%TO.N,/BSY*%
X64135000Y-132969000D03*
%TO.N,/ATN*%
X69215000Y-132969000D03*
%TO.N,/PARITY*%
X86995000Y-132969000D03*
%TO.N,/DB7*%
X89535000Y-132969000D03*
%TO.N,/DB6*%
X92075000Y-132969000D03*
%TO.N,/DB5*%
X94615000Y-132969000D03*
%TO.N,/DB4*%
X97155000Y-132969000D03*
%TO.N,/DB3*%
X99695000Y-132969000D03*
%TO.N,/DB2*%
X102235000Y-132969000D03*
%TO.N,/DB1*%
X104775000Y-132969000D03*
%TO.N,/DB0*%
X107315000Y-132969000D03*
%TO.N,/DBP1*%
X79375000Y-132969000D03*
%TO.N,/DB15*%
X81915000Y-132969000D03*
%TO.N,/DB14*%
X84455000Y-132969000D03*
%TO.N,/DB13*%
X109855000Y-132969000D03*
%TO.N,/DB12*%
X112395000Y-132969000D03*
%TO.N,Net-(D3-Pad2)*%
X41338500Y-135890000D03*
%TD*%
D19*
%TO.N,GND*%
X33017500Y-121605000D02*
X32893000Y-121729500D01*
D20*
X94615000Y-143183000D02*
X94615000Y-143823000D01*
X95885000Y-141913000D02*
X94615000Y-143183000D01*
X94615000Y-143183000D02*
X93345000Y-141913000D01*
X93345000Y-142553000D02*
X92075000Y-143823000D01*
X93345000Y-141913000D02*
X93345000Y-142553000D01*
X92075000Y-143183000D02*
X90805000Y-141913000D01*
X92075000Y-143823000D02*
X92075000Y-143183000D01*
X90805000Y-142553000D02*
X89535000Y-143823000D01*
X90805000Y-141913000D02*
X90805000Y-142553000D01*
X89535000Y-143183000D02*
X88265000Y-141913000D01*
X89535000Y-143823000D02*
X89535000Y-143183000D01*
X88265000Y-142553000D02*
X86995000Y-143823000D01*
X88265000Y-141913000D02*
X88265000Y-142553000D01*
X86995000Y-143183000D02*
X85725000Y-141913000D01*
X86995000Y-143823000D02*
X86995000Y-143183000D01*
X85725000Y-142553000D02*
X84455000Y-143823000D01*
X85725000Y-141913000D02*
X85725000Y-142553000D01*
X84455000Y-143183000D02*
X83185000Y-141913000D01*
X84455000Y-143823000D02*
X84455000Y-143183000D01*
X83185000Y-142553000D02*
X81915000Y-143823000D01*
X83185000Y-141913000D02*
X83185000Y-142553000D01*
X81915000Y-143183000D02*
X80645000Y-141913000D01*
X81915000Y-143823000D02*
X81915000Y-143183000D01*
X52705000Y-141913000D02*
X60325000Y-141913000D01*
X60325000Y-141913000D02*
X95885000Y-141913000D01*
X51435000Y-143823000D02*
X53975000Y-143823000D01*
X53975000Y-143183000D02*
X55245000Y-141913000D01*
X53975000Y-143823000D02*
X53975000Y-143183000D01*
X59055000Y-143183000D02*
X57785000Y-141913000D01*
X59055000Y-143823000D02*
X59055000Y-143183000D01*
X92075000Y-143823000D02*
X59055000Y-143823000D01*
X92709999Y-143188001D02*
X92075000Y-143823000D01*
X93557731Y-143188001D02*
X92709999Y-143188001D01*
X94192730Y-143823000D02*
X93557731Y-143188001D01*
X94615000Y-143823000D02*
X94192730Y-143823000D01*
D19*
X107315000Y-123825000D02*
X111125000Y-123825000D01*
X119380000Y-132080000D02*
X121000000Y-132080000D01*
X111125000Y-123825000D02*
X119380000Y-132080000D01*
X107315000Y-123825000D02*
X79375000Y-123825000D01*
X77824999Y-122274999D02*
X79375000Y-123825000D01*
X76090999Y-122274999D02*
X77824999Y-122274999D01*
X74540998Y-123825000D02*
X76090999Y-122274999D01*
X74295000Y-123825000D02*
X74540998Y-123825000D01*
X74295000Y-123825000D02*
X46355000Y-123825000D01*
X66675000Y-126365000D02*
X66675000Y-123825000D01*
X71755000Y-126365000D02*
X71755000Y-123825000D01*
X74295000Y-126365000D02*
X74295000Y-123825000D01*
X79375000Y-126365000D02*
X79375000Y-123825000D01*
X81915000Y-126365000D02*
X81915000Y-123825000D01*
X84455000Y-126365000D02*
X84455000Y-123825000D01*
D21*
X121000000Y-132080000D02*
X121000000Y-137160000D01*
X95558000Y-137160000D02*
X90805000Y-141913000D01*
X121000000Y-137160000D02*
X95558000Y-137160000D01*
D19*
X32893000Y-121729500D02*
X33464500Y-121158000D01*
X34168000Y-121158000D02*
X34295000Y-121285000D01*
X33464500Y-121158000D02*
X34168000Y-121158000D01*
D22*
X39625000Y-132080000D02*
X39941500Y-132080000D01*
X39941500Y-132080000D02*
X40449500Y-132588000D01*
X40449500Y-135129000D02*
X39687500Y-135891000D01*
X40449500Y-132588000D02*
X40449500Y-135129000D01*
D20*
X52705000Y-142553000D02*
X51435000Y-143823000D01*
X52705000Y-141913000D02*
X52705000Y-142553000D01*
D19*
X46355000Y-122999500D02*
X46355000Y-123825000D01*
X44450000Y-121094500D02*
X46355000Y-122999500D01*
X37147500Y-121094500D02*
X44450000Y-121094500D01*
X36957000Y-121285000D02*
X37147500Y-121094500D01*
X34295000Y-121285000D02*
X36957000Y-121285000D01*
D23*
X39687500Y-135891000D02*
X39051500Y-135891000D01*
X39051500Y-135891000D02*
X37958760Y-135891000D01*
X37958760Y-135891000D02*
X37958760Y-135891000D01*
D22*
%TO.N,Net-(D1-Pad2)*%
X38036500Y-124269500D02*
X37381180Y-124269500D01*
X37381180Y-124269500D02*
X37124640Y-124526040D01*
X37124640Y-124526040D02*
X37124640Y-125308360D01*
X37124640Y-125308360D02*
X37124640Y-125308360D01*
D19*
%TO.N,Net-(F1-Pad2)*%
X31934500Y-131572000D02*
X31934500Y-132645500D01*
X32639000Y-133350000D02*
X32639000Y-134937500D01*
X31934500Y-132645500D02*
X32639000Y-133350000D01*
D23*
%TO.N,+5V*%
X39687500Y-134047500D02*
X39625000Y-133985000D01*
D24*
X94615000Y-147643000D02*
X94615000Y-147002500D01*
X94614500Y-147002500D02*
X94615000Y-147002500D01*
X93345000Y-145733000D02*
X94614500Y-147002500D01*
D19*
X96075001Y-149103001D02*
X111945499Y-149103001D01*
X94615000Y-147643000D02*
X96075001Y-149103001D01*
X118808500Y-142240000D02*
X121000000Y-142240000D01*
X111945499Y-149103001D02*
X118808500Y-142240000D01*
X91117499Y-149103001D02*
X91112498Y-149098000D01*
X96075001Y-149103001D02*
X91117499Y-149103001D01*
D23*
X37401500Y-126174500D02*
X39433500Y-126174500D01*
X39433500Y-126174500D02*
X39878000Y-125730000D01*
X39433500Y-130365500D02*
X39306500Y-130492500D01*
X39433500Y-126174500D02*
X39433500Y-130365500D01*
D19*
X38798500Y-130492500D02*
X39306500Y-130492500D01*
X38036500Y-131254500D02*
X38798500Y-130492500D01*
X38036500Y-132842000D02*
X38036500Y-131254500D01*
X37973000Y-132905500D02*
X38036500Y-132842000D01*
X35814000Y-132905500D02*
X37973000Y-132905500D01*
X34734500Y-131826000D02*
X35814000Y-132905500D01*
X34734500Y-131572000D02*
X34734500Y-131826000D01*
D23*
X39625000Y-133985000D02*
X39625000Y-133414500D01*
X39625000Y-133414500D02*
X39306500Y-133096000D01*
X38163500Y-133096000D02*
X37973000Y-132905500D01*
X39306500Y-133096000D02*
X38163500Y-133096000D01*
D19*
X82301001Y-149103001D02*
X91117499Y-149103001D01*
X82296000Y-149098000D02*
X82301001Y-149103001D01*
X44323000Y-149098000D02*
X82296000Y-149098000D01*
X42926000Y-147701000D02*
X44323000Y-149098000D01*
X43751500Y-143510000D02*
X42926000Y-144335500D01*
X42926000Y-144335500D02*
X42926000Y-147701000D01*
X43751500Y-130492500D02*
X43751500Y-143510000D01*
X39306500Y-130492500D02*
X43751500Y-130492500D01*
D25*
X40111680Y-124241560D02*
X39878000Y-124475240D01*
X41122600Y-124241560D02*
X40111680Y-124241560D01*
D23*
X39878000Y-124475240D02*
X39878000Y-123380500D01*
X39878000Y-125730000D02*
X39878000Y-124475240D01*
X36400500Y-127175500D02*
X37401500Y-126174500D01*
X36036500Y-127175500D02*
X36400500Y-127175500D01*
X36036500Y-123619500D02*
X36603700Y-123619500D01*
X36842700Y-123380500D02*
X39878000Y-123380500D01*
X36603700Y-123619500D02*
X36842700Y-123380500D01*
D25*
%TO.N,/LED*%
X30987000Y-123000500D02*
X31750000Y-123000500D01*
X30797500Y-123190000D02*
X30987000Y-123000500D01*
X30797500Y-125412500D02*
X30797500Y-123190000D01*
X30797500Y-125412500D02*
X30797500Y-126047500D01*
X30924500Y-126174500D02*
X31750000Y-126174500D01*
X30797500Y-126047500D02*
X30924500Y-126174500D01*
X32945340Y-123000500D02*
X31750000Y-123000500D01*
X33482280Y-122463560D02*
X32945340Y-123000500D01*
X37307520Y-122463560D02*
X33482280Y-122463560D01*
X37435520Y-122591560D02*
X37307520Y-122463560D01*
X41122600Y-122591560D02*
X37435520Y-122591560D01*
D22*
%TO.N,+12V*%
X41846500Y-143002000D02*
X41846500Y-139509500D01*
X41338500Y-139001500D02*
X41338500Y-137540000D01*
X41846500Y-139509500D02*
X41338500Y-139001500D01*
D23*
%TO.N,/LED_T*%
X38036500Y-129159000D02*
X38036500Y-127825500D01*
X37091620Y-130103880D02*
X38036500Y-129159000D01*
X30850840Y-130103880D02*
X37091620Y-130103880D01*
X30652720Y-130302000D02*
X30850840Y-130103880D01*
X31676340Y-140017500D02*
X30652720Y-138993880D01*
X30652720Y-138993880D02*
X30652720Y-130302000D01*
X32639000Y-140017500D02*
X31676340Y-140017500D01*
D25*
%TO.N,Net-(Q1-Pad1)*%
X34144980Y-124919500D02*
X36036500Y-124919500D01*
X33875980Y-124650500D02*
X34144980Y-124919500D01*
X31750000Y-124650500D02*
X33875980Y-124650500D01*
%TO.N,Net-(Q2-Pad1)*%
X34389300Y-128475500D02*
X36036500Y-128475500D01*
X33732740Y-127824500D02*
X34386520Y-128478280D01*
X34386520Y-128478280D02*
X34389300Y-128475500D01*
X31750000Y-127824500D02*
X33732740Y-127824500D01*
D23*
%TO.N,Net-(J2-Pad6)*%
X38925500Y-140017500D02*
X35179000Y-140017500D01*
X39687500Y-139255500D02*
X38925500Y-140017500D01*
X39687500Y-137541000D02*
X39687500Y-139255500D01*
%TD*%
M02*
