%TF.GenerationSoftware,KiCad,Pcbnew,(5.1.7)-1*%
%TF.CreationDate,2021-02-10T19:53:02+00:00*%
%TF.ProjectId,SCSI to SCA MK5.1,53435349-2074-46f2-9053-4341204d4b35,rev?*%
%TF.SameCoordinates,Original*%
%TF.FileFunction,Paste,Bot*%
%TF.FilePolarity,Positive*%
%FSLAX46Y46*%
G04 Gerber Fmt 4.6, Leading zero omitted, Abs format (unit mm)*
G04 Created by KiCad (PCBNEW (5.1.7)-1) date 2021-02-10 19:53:02*
%MOMM*%
%LPD*%
G01*
G04 APERTURE LIST*
%ADD10R,0.700000X0.450000*%
G04 APERTURE END LIST*
D10*
%TO.C,Q2*%
X38036500Y-127825500D03*
X36036500Y-127175500D03*
X36036500Y-128475500D03*
%TD*%
%TO.C,Q1*%
X38036500Y-124269500D03*
X36036500Y-123619500D03*
X36036500Y-124919500D03*
%TD*%
%TO.C,R34*%
G36*
G01*
X40847600Y-123841560D02*
X41397600Y-123841560D01*
G75*
G02*
X41597600Y-124041560I0J-200000D01*
G01*
X41597600Y-124441560D01*
G75*
G02*
X41397600Y-124641560I-200000J0D01*
G01*
X40847600Y-124641560D01*
G75*
G02*
X40647600Y-124441560I0J200000D01*
G01*
X40647600Y-124041560D01*
G75*
G02*
X40847600Y-123841560I200000J0D01*
G01*
G37*
G36*
G01*
X40847600Y-122191560D02*
X41397600Y-122191560D01*
G75*
G02*
X41597600Y-122391560I0J-200000D01*
G01*
X41597600Y-122791560D01*
G75*
G02*
X41397600Y-122991560I-200000J0D01*
G01*
X40847600Y-122991560D01*
G75*
G02*
X40647600Y-122791560I0J200000D01*
G01*
X40647600Y-122391560D01*
G75*
G02*
X40847600Y-122191560I200000J0D01*
G01*
G37*
%TD*%
%TO.C,R33*%
G36*
G01*
X41613500Y-136290000D02*
X41063500Y-136290000D01*
G75*
G02*
X40863500Y-136090000I0J200000D01*
G01*
X40863500Y-135690000D01*
G75*
G02*
X41063500Y-135490000I200000J0D01*
G01*
X41613500Y-135490000D01*
G75*
G02*
X41813500Y-135690000I0J-200000D01*
G01*
X41813500Y-136090000D01*
G75*
G02*
X41613500Y-136290000I-200000J0D01*
G01*
G37*
G36*
G01*
X41613500Y-137940000D02*
X41063500Y-137940000D01*
G75*
G02*
X40863500Y-137740000I0J200000D01*
G01*
X40863500Y-137340000D01*
G75*
G02*
X41063500Y-137140000I200000J0D01*
G01*
X41613500Y-137140000D01*
G75*
G02*
X41813500Y-137340000I0J-200000D01*
G01*
X41813500Y-137740000D01*
G75*
G02*
X41613500Y-137940000I-200000J0D01*
G01*
G37*
%TD*%
%TO.C,R5*%
G36*
G01*
X40875000Y-134260000D02*
X40875000Y-133710000D01*
G75*
G02*
X41075000Y-133510000I200000J0D01*
G01*
X41475000Y-133510000D01*
G75*
G02*
X41675000Y-133710000I0J-200000D01*
G01*
X41675000Y-134260000D01*
G75*
G02*
X41475000Y-134460000I-200000J0D01*
G01*
X41075000Y-134460000D01*
G75*
G02*
X40875000Y-134260000I0J200000D01*
G01*
G37*
G36*
G01*
X39225000Y-134260000D02*
X39225000Y-133710000D01*
G75*
G02*
X39425000Y-133510000I200000J0D01*
G01*
X39825000Y-133510000D01*
G75*
G02*
X40025000Y-133710000I0J-200000D01*
G01*
X40025000Y-134260000D01*
G75*
G02*
X39825000Y-134460000I-200000J0D01*
G01*
X39425000Y-134460000D01*
G75*
G02*
X39225000Y-134260000I0J200000D01*
G01*
G37*
%TD*%
%TO.C,R4*%
G36*
G01*
X40875000Y-132355000D02*
X40875000Y-131805000D01*
G75*
G02*
X41075000Y-131605000I200000J0D01*
G01*
X41475000Y-131605000D01*
G75*
G02*
X41675000Y-131805000I0J-200000D01*
G01*
X41675000Y-132355000D01*
G75*
G02*
X41475000Y-132555000I-200000J0D01*
G01*
X41075000Y-132555000D01*
G75*
G02*
X40875000Y-132355000I0J200000D01*
G01*
G37*
G36*
G01*
X39225000Y-132355000D02*
X39225000Y-131805000D01*
G75*
G02*
X39425000Y-131605000I200000J0D01*
G01*
X39825000Y-131605000D01*
G75*
G02*
X40025000Y-131805000I0J-200000D01*
G01*
X40025000Y-132355000D01*
G75*
G02*
X39825000Y-132555000I-200000J0D01*
G01*
X39425000Y-132555000D01*
G75*
G02*
X39225000Y-132355000I0J200000D01*
G01*
G37*
%TD*%
%TO.C,R3*%
G36*
G01*
X32025000Y-123400500D02*
X31475000Y-123400500D01*
G75*
G02*
X31275000Y-123200500I0J200000D01*
G01*
X31275000Y-122800500D01*
G75*
G02*
X31475000Y-122600500I200000J0D01*
G01*
X32025000Y-122600500D01*
G75*
G02*
X32225000Y-122800500I0J-200000D01*
G01*
X32225000Y-123200500D01*
G75*
G02*
X32025000Y-123400500I-200000J0D01*
G01*
G37*
G36*
G01*
X32025000Y-125050500D02*
X31475000Y-125050500D01*
G75*
G02*
X31275000Y-124850500I0J200000D01*
G01*
X31275000Y-124450500D01*
G75*
G02*
X31475000Y-124250500I200000J0D01*
G01*
X32025000Y-124250500D01*
G75*
G02*
X32225000Y-124450500I0J-200000D01*
G01*
X32225000Y-124850500D01*
G75*
G02*
X32025000Y-125050500I-200000J0D01*
G01*
G37*
%TD*%
%TO.C,R2*%
G36*
G01*
X32025000Y-126574500D02*
X31475000Y-126574500D01*
G75*
G02*
X31275000Y-126374500I0J200000D01*
G01*
X31275000Y-125974500D01*
G75*
G02*
X31475000Y-125774500I200000J0D01*
G01*
X32025000Y-125774500D01*
G75*
G02*
X32225000Y-125974500I0J-200000D01*
G01*
X32225000Y-126374500D01*
G75*
G02*
X32025000Y-126574500I-200000J0D01*
G01*
G37*
G36*
G01*
X32025000Y-128224500D02*
X31475000Y-128224500D01*
G75*
G02*
X31275000Y-128024500I0J200000D01*
G01*
X31275000Y-127624500D01*
G75*
G02*
X31475000Y-127424500I200000J0D01*
G01*
X32025000Y-127424500D01*
G75*
G02*
X32225000Y-127624500I0J-200000D01*
G01*
X32225000Y-128024500D01*
G75*
G02*
X32025000Y-128224500I-200000J0D01*
G01*
G37*
%TD*%
%TO.C,R1*%
G36*
G01*
X39962500Y-136291000D02*
X39412500Y-136291000D01*
G75*
G02*
X39212500Y-136091000I0J200000D01*
G01*
X39212500Y-135691000D01*
G75*
G02*
X39412500Y-135491000I200000J0D01*
G01*
X39962500Y-135491000D01*
G75*
G02*
X40162500Y-135691000I0J-200000D01*
G01*
X40162500Y-136091000D01*
G75*
G02*
X39962500Y-136291000I-200000J0D01*
G01*
G37*
G36*
G01*
X39962500Y-137941000D02*
X39412500Y-137941000D01*
G75*
G02*
X39212500Y-137741000I0J200000D01*
G01*
X39212500Y-137341000D01*
G75*
G02*
X39412500Y-137141000I200000J0D01*
G01*
X39962500Y-137141000D01*
G75*
G02*
X40162500Y-137341000I0J-200000D01*
G01*
X40162500Y-137741000D01*
G75*
G02*
X39962500Y-137941000I-200000J0D01*
G01*
G37*
%TD*%
%TO.C,F1*%
G36*
G01*
X32559500Y-130947000D02*
X32559500Y-132197000D01*
G75*
G02*
X32309500Y-132447000I-250000J0D01*
G01*
X31559500Y-132447000D01*
G75*
G02*
X31309500Y-132197000I0J250000D01*
G01*
X31309500Y-130947000D01*
G75*
G02*
X31559500Y-130697000I250000J0D01*
G01*
X32309500Y-130697000D01*
G75*
G02*
X32559500Y-130947000I0J-250000D01*
G01*
G37*
G36*
G01*
X35359500Y-130947000D02*
X35359500Y-132197000D01*
G75*
G02*
X35109500Y-132447000I-250000J0D01*
G01*
X34359500Y-132447000D01*
G75*
G02*
X34109500Y-132197000I0J250000D01*
G01*
X34109500Y-130947000D01*
G75*
G02*
X34359500Y-130697000I250000J0D01*
G01*
X35109500Y-130697000D01*
G75*
G02*
X35359500Y-130947000I0J-250000D01*
G01*
G37*
%TD*%
M02*
