  0
SECTION
  2
HEADER
  9
$ANGBASE
  50
0.0
  9
$ANGDIR
  70
1
  9
$MEASUREMENT
  70
0
  0
ENDSEC
  0
SECTION
  2
TABLES
  0
TABLE
  2
LTYPE
  70
4
  0
LTYPE
  5
40F
  2
CONTINUOUS
  70
0
  3
Solid line
  72
65
  73
0
  40
0.0
  0
LTYPE
  5
410
  2
DASHDOT
 70
0
  3
Dash Dot ____ _ ____ _
 72
65
 73
4
 40
2.0
 49
1.25
 49
-0.25
 49
0.25
 49
-0.25
  0
LTYPE
  5
411
  2
DASHED
 70
0
  3
Dashed __ __ __ __ __
 72
65
 73
2
 40
0.75
 49
0.5
 49
-0.25
  0
LTYPE
  5
43B
  2
DOTTED
 70
0
  3
Dotted .  .  .  .
 72
65
 73
2
 40
0.2
 49
0.0
 49
-0.2
  0
ENDTAB
  0
TABLE
  2
STYLE
  70
4
  0
STYLE
  2
KICAD
  70
0
  40
0
  41
1
  42
1
  50
0
  71
0
  3
isocp.shx
  0
STYLE
  2
KICADB
  70
0
  40
0
  41
1
  42
1
  50
0
  71
0
  3
isocp.shx
  0
STYLE
  2
KICADI
  70
0
  40
0
  41
1
  42
1
  50
15
  71
0
  3
isocp.shx
  0
STYLE
  2
KICADBI
  70
0
  40
0
  41
1
  42
1
  50
15
  71
0
  3
isocp.shx
  0
ENDTAB
  0
TABLE
  2
LAYER
  70
1
  0
LAYER
  2
BLACK
  70
0
  62
7
  6
CONTINUOUS
  0
ENDTAB
  0
ENDSEC
  0
SECTION
  2
ENTITIES
0
LINE
8
BLACK
6
CONTINUOUS
10
1.57486
20
-5.3994
11
1.57634
21
-5.39985
0
LINE
8
BLACK
6
CONTINUOUS
10
1.57634
20
-5.39985
11
1.5777
21
-5.40058
0
LINE
8
BLACK
6
CONTINUOUS
10
1.5777
20
-5.40058
11
1.57889
21
-5.40156
0
LINE
8
BLACK
6
CONTINUOUS
10
1.57889
20
-5.40156
11
1.57987
21
-5.40275
0
LINE
8
BLACK
6
CONTINUOUS
10
1.57987
20
-5.40275
11
1.5806
21
-5.40411
0
LINE
8
BLACK
6
CONTINUOUS
10
1.5806
20
-5.40411
11
1.58105
21
-5.40559
0
LINE
8
BLACK
6
CONTINUOUS
10
1.58105
20
-5.40559
11
1.5812
21
-5.40713
0
LINE
8
BLACK
6
CONTINUOUS
10
1.5812
20
-5.40713
11
1.5812
21
-5.42287
0
LINE
8
BLACK
6
CONTINUOUS
10
1.5812
20
-5.42287
11
1.58105
21
-5.42441
0
LINE
8
BLACK
6
CONTINUOUS
10
1.58105
20
-5.42441
11
1.5806
21
-5.42589
0
LINE
8
BLACK
6
CONTINUOUS
10
1.5806
20
-5.42589
11
1.57987
21
-5.42725
0
LINE
8
BLACK
6
CONTINUOUS
10
1.57987
20
-5.42725
11
1.57889
21
-5.42844
0
LINE
8
BLACK
6
CONTINUOUS
10
1.57889
20
-5.42844
11
1.5777
21
-5.42942
0
LINE
8
BLACK
6
CONTINUOUS
10
1.5777
20
-5.42942
11
1.57634
21
-5.43015
0
LINE
8
BLACK
6
CONTINUOUS
10
1.57634
20
-5.43015
11
1.57486
21
-5.4306
0
LINE
8
BLACK
6
CONTINUOUS
10
1.57486
20
-5.4306
11
1.57333
21
-5.43075
0
LINE
8
BLACK
6
CONTINUOUS
10
1.57333
20
-5.43075
11
1.55167
21
-5.43075
0
LINE
8
BLACK
6
CONTINUOUS
10
1.55167
20
-5.43075
11
1.55014
21
-5.4306
0
LINE
8
BLACK
6
CONTINUOUS
10
1.55014
20
-5.4306
11
1.54866
21
-5.43015
0
LINE
8
BLACK
6
CONTINUOUS
10
1.54866
20
-5.43015
11
1.5473
21
-5.42942
0
LINE
8
BLACK
6
CONTINUOUS
10
1.5473
20
-5.42942
11
1.54611
21
-5.42844
0
LINE
8
BLACK
6
CONTINUOUS
10
1.54611
20
-5.42844
11
1.54513
21
-5.42725
0
LINE
8
BLACK
6
CONTINUOUS
10
1.54513
20
-5.42725
11
1.5444
21
-5.42589
0
LINE
8
BLACK
6
CONTINUOUS
10
1.5444
20
-5.42589
11
1.54395
21
-5.42441
0
LINE
8
BLACK
6
CONTINUOUS
10
1.54395
20
-5.42441
11
1.5438
21
-5.42287
0
LINE
8
BLACK
6
CONTINUOUS
10
1.5438
20
-5.42287
11
1.5438
21
-5.40713
0
LINE
8
BLACK
6
CONTINUOUS
10
1.5438
20
-5.40713
11
1.54395
21
-5.40559
0
LINE
8
BLACK
6
CONTINUOUS
10
1.54395
20
-5.40559
11
1.5444
21
-5.40411
0
LINE
8
BLACK
6
CONTINUOUS
10
1.5444
20
-5.40411
11
1.54513
21
-5.40275
0
LINE
8
BLACK
6
CONTINUOUS
10
1.54513
20
-5.40275
11
1.54611
21
-5.40156
0
LINE
8
BLACK
6
CONTINUOUS
10
1.54611
20
-5.40156
11
1.5473
21
-5.40058
0
LINE
8
BLACK
6
CONTINUOUS
10
1.5473
20
-5.40058
11
1.54866
21
-5.39985
0
LINE
8
BLACK
6
CONTINUOUS
10
1.54866
20
-5.39985
11
1.55014
21
-5.3994
0
LINE
8
BLACK
6
CONTINUOUS
10
1.55014
20
-5.3994
11
1.55167
21
-5.39925
0
LINE
8
BLACK
6
CONTINUOUS
10
1.55167
20
-5.39925
11
1.57333
21
-5.39925
0
LINE
8
BLACK
6
CONTINUOUS
10
1.57333
20
-5.39925
11
1.57486
21
-5.3994
0
LINE
8
BLACK
6
CONTINUOUS
10
1.63986
20
-5.39936
11
1.64134
21
-5.39981
0
LINE
8
BLACK
6
CONTINUOUS
10
1.64134
20
-5.39981
11
1.6427
21
-5.40054
0
LINE
8
BLACK
6
CONTINUOUS
10
1.6427
20
-5.40054
11
1.64389
21
-5.40152
0
LINE
8
BLACK
6
CONTINUOUS
10
1.64389
20
-5.40152
11
1.64487
21
-5.40271
0
LINE
8
BLACK
6
CONTINUOUS
10
1.64487
20
-5.40271
11
1.6456
21
-5.40407
0
LINE
8
BLACK
6
CONTINUOUS
10
1.6456
20
-5.40407
11
1.64605
21
-5.40555
0
LINE
8
BLACK
6
CONTINUOUS
10
1.64605
20
-5.40555
11
1.6462
21
-5.40709
0
LINE
8
BLACK
6
CONTINUOUS
10
1.6462
20
-5.40709
11
1.6462
21
-5.42283
0
LINE
8
BLACK
6
CONTINUOUS
10
1.6462
20
-5.42283
11
1.64605
21
-5.42437
0
LINE
8
BLACK
6
CONTINUOUS
10
1.64605
20
-5.42437
11
1.6456
21
-5.42585
0
LINE
8
BLACK
6
CONTINUOUS
10
1.6456
20
-5.42585
11
1.64487
21
-5.42721
0
LINE
8
BLACK
6
CONTINUOUS
10
1.64487
20
-5.42721
11
1.64389
21
-5.4284
0
LINE
8
BLACK
6
CONTINUOUS
10
1.64389
20
-5.4284
11
1.6427
21
-5.42938
0
LINE
8
BLACK
6
CONTINUOUS
10
1.6427
20
-5.42938
11
1.64134
21
-5.43011
0
LINE
8
BLACK
6
CONTINUOUS
10
1.64134
20
-5.43011
11
1.63986
21
-5.43056
0
LINE
8
BLACK
6
CONTINUOUS
10
1.63986
20
-5.43056
11
1.63833
21
-5.43071
0
LINE
8
BLACK
6
CONTINUOUS
10
1.63833
20
-5.43071
11
1.61667
21
-5.43071
0
LINE
8
BLACK
6
CONTINUOUS
10
1.61667
20
-5.43071
11
1.61514
21
-5.43056
0
LINE
8
BLACK
6
CONTINUOUS
10
1.61514
20
-5.43056
11
1.61366
21
-5.43011
0
LINE
8
BLACK
6
CONTINUOUS
10
1.61366
20
-5.43011
11
1.6123
21
-5.42938
0
LINE
8
BLACK
6
CONTINUOUS
10
1.6123
20
-5.42938
11
1.61111
21
-5.4284
0
LINE
8
BLACK
6
CONTINUOUS
10
1.61111
20
-5.4284
11
1.61013
21
-5.42721
0
LINE
8
BLACK
6
CONTINUOUS
10
1.61013
20
-5.42721
11
1.6094
21
-5.42585
0
LINE
8
BLACK
6
CONTINUOUS
10
1.6094
20
-5.42585
11
1.60895
21
-5.42437
0
LINE
8
BLACK
6
CONTINUOUS
10
1.60895
20
-5.42437
11
1.6088
21
-5.42283
0
LINE
8
BLACK
6
CONTINUOUS
10
1.6088
20
-5.42283
11
1.6088
21
-5.40709
0
LINE
8
BLACK
6
CONTINUOUS
10
1.6088
20
-5.40709
11
1.60895
21
-5.40555
0
LINE
8
BLACK
6
CONTINUOUS
10
1.60895
20
-5.40555
11
1.6094
21
-5.40407
0
LINE
8
BLACK
6
CONTINUOUS
10
1.6094
20
-5.40407
11
1.61013
21
-5.40271
0
LINE
8
BLACK
6
CONTINUOUS
10
1.61013
20
-5.40271
11
1.61111
21
-5.40152
0
LINE
8
BLACK
6
CONTINUOUS
10
1.61111
20
-5.40152
11
1.6123
21
-5.40054
0
LINE
8
BLACK
6
CONTINUOUS
10
1.6123
20
-5.40054
11
1.61366
21
-5.39981
0
LINE
8
BLACK
6
CONTINUOUS
10
1.61366
20
-5.39981
11
1.61514
21
-5.39936
0
LINE
8
BLACK
6
CONTINUOUS
10
1.61514
20
-5.39936
11
1.61667
21
-5.39921
0
LINE
8
BLACK
6
CONTINUOUS
10
1.61667
20
-5.39921
11
1.63833
21
-5.39921
0
LINE
8
BLACK
6
CONTINUOUS
10
1.63833
20
-5.39921
11
1.63986
21
-5.39936
0
LINE
8
BLACK
6
CONTINUOUS
10
1.57486
20
-5.33444
11
1.57634
21
-5.33489
0
LINE
8
BLACK
6
CONTINUOUS
10
1.57634
20
-5.33489
11
1.5777
21
-5.33562
0
LINE
8
BLACK
6
CONTINUOUS
10
1.5777
20
-5.33562
11
1.57889
21
-5.3366
0
LINE
8
BLACK
6
CONTINUOUS
10
1.57889
20
-5.3366
11
1.57987
21
-5.33779
0
LINE
8
BLACK
6
CONTINUOUS
10
1.57987
20
-5.33779
11
1.5806
21
-5.33915
0
LINE
8
BLACK
6
CONTINUOUS
10
1.5806
20
-5.33915
11
1.58105
21
-5.34063
0
LINE
8
BLACK
6
CONTINUOUS
10
1.58105
20
-5.34063
11
1.5812
21
-5.34217
0
LINE
8
BLACK
6
CONTINUOUS
10
1.5812
20
-5.34217
11
1.5812
21
-5.35791
0
LINE
8
BLACK
6
CONTINUOUS
10
1.5812
20
-5.35791
11
1.58105
21
-5.35945
0
LINE
8
BLACK
6
CONTINUOUS
10
1.58105
20
-5.35945
11
1.5806
21
-5.36093
0
LINE
8
BLACK
6
CONTINUOUS
10
1.5806
20
-5.36093
11
1.57987
21
-5.36229
0
LINE
8
BLACK
6
CONTINUOUS
10
1.57987
20
-5.36229
11
1.57889
21
-5.36348
0
LINE
8
BLACK
6
CONTINUOUS
10
1.57889
20
-5.36348
11
1.5777
21
-5.36446
0
LINE
8
BLACK
6
CONTINUOUS
10
1.5777
20
-5.36446
11
1.57634
21
-5.36519
0
LINE
8
BLACK
6
CONTINUOUS
10
1.57634
20
-5.36519
11
1.57486
21
-5.36564
0
LINE
8
BLACK
6
CONTINUOUS
10
1.57486
20
-5.36564
11
1.57333
21
-5.36579
0
LINE
8
BLACK
6
CONTINUOUS
10
1.57333
20
-5.36579
11
1.55167
21
-5.36579
0
LINE
8
BLACK
6
CONTINUOUS
10
1.55167
20
-5.36579
11
1.55014
21
-5.36564
0
LINE
8
BLACK
6
CONTINUOUS
10
1.55014
20
-5.36564
11
1.54866
21
-5.36519
0
LINE
8
BLACK
6
CONTINUOUS
10
1.54866
20
-5.36519
11
1.5473
21
-5.36446
0
LINE
8
BLACK
6
CONTINUOUS
10
1.5473
20
-5.36446
11
1.54611
21
-5.36348
0
LINE
8
BLACK
6
CONTINUOUS
10
1.54611
20
-5.36348
11
1.54513
21
-5.36229
0
LINE
8
BLACK
6
CONTINUOUS
10
1.54513
20
-5.36229
11
1.5444
21
-5.36093
0
LINE
8
BLACK
6
CONTINUOUS
10
1.5444
20
-5.36093
11
1.54395
21
-5.35945
0
LINE
8
BLACK
6
CONTINUOUS
10
1.54395
20
-5.35945
11
1.5438
21
-5.35791
0
LINE
8
BLACK
6
CONTINUOUS
10
1.5438
20
-5.35791
11
1.5438
21
-5.34217
0
LINE
8
BLACK
6
CONTINUOUS
10
1.5438
20
-5.34217
11
1.54395
21
-5.34063
0
LINE
8
BLACK
6
CONTINUOUS
10
1.54395
20
-5.34063
11
1.5444
21
-5.33915
0
LINE
8
BLACK
6
CONTINUOUS
10
1.5444
20
-5.33915
11
1.54513
21
-5.33779
0
LINE
8
BLACK
6
CONTINUOUS
10
1.54513
20
-5.33779
11
1.54611
21
-5.3366
0
LINE
8
BLACK
6
CONTINUOUS
10
1.54611
20
-5.3366
11
1.5473
21
-5.33562
0
LINE
8
BLACK
6
CONTINUOUS
10
1.5473
20
-5.33562
11
1.54866
21
-5.33489
0
LINE
8
BLACK
6
CONTINUOUS
10
1.54866
20
-5.33489
11
1.55014
21
-5.33444
0
LINE
8
BLACK
6
CONTINUOUS
10
1.55014
20
-5.33444
11
1.55167
21
-5.33429
0
LINE
8
BLACK
6
CONTINUOUS
10
1.55167
20
-5.33429
11
1.57333
21
-5.33429
0
LINE
8
BLACK
6
CONTINUOUS
10
1.57333
20
-5.33429
11
1.57486
21
-5.33444
0
LINE
8
BLACK
6
CONTINUOUS
10
1.63986
20
-5.3344
11
1.64134
21
-5.33485
0
LINE
8
BLACK
6
CONTINUOUS
10
1.64134
20
-5.33485
11
1.6427
21
-5.33558
0
LINE
8
BLACK
6
CONTINUOUS
10
1.6427
20
-5.33558
11
1.64389
21
-5.33656
0
LINE
8
BLACK
6
CONTINUOUS
10
1.64389
20
-5.33656
11
1.64487
21
-5.33775
0
LINE
8
BLACK
6
CONTINUOUS
10
1.64487
20
-5.33775
11
1.6456
21
-5.33911
0
LINE
8
BLACK
6
CONTINUOUS
10
1.6456
20
-5.33911
11
1.64605
21
-5.34059
0
LINE
8
BLACK
6
CONTINUOUS
10
1.64605
20
-5.34059
11
1.6462
21
-5.34213
0
LINE
8
BLACK
6
CONTINUOUS
10
1.6462
20
-5.34213
11
1.6462
21
-5.35787
0
LINE
8
BLACK
6
CONTINUOUS
10
1.6462
20
-5.35787
11
1.64605
21
-5.35941
0
LINE
8
BLACK
6
CONTINUOUS
10
1.64605
20
-5.35941
11
1.6456
21
-5.36089
0
LINE
8
BLACK
6
CONTINUOUS
10
1.6456
20
-5.36089
11
1.64487
21
-5.36225
0
LINE
8
BLACK
6
CONTINUOUS
10
1.64487
20
-5.36225
11
1.64389
21
-5.36344
0
LINE
8
BLACK
6
CONTINUOUS
10
1.64389
20
-5.36344
11
1.6427
21
-5.36442
0
LINE
8
BLACK
6
CONTINUOUS
10
1.6427
20
-5.36442
11
1.64134
21
-5.36515
0
LINE
8
BLACK
6
CONTINUOUS
10
1.64134
20
-5.36515
11
1.63986
21
-5.3656
0
LINE
8
BLACK
6
CONTINUOUS
10
1.63986
20
-5.3656
11
1.63833
21
-5.36575
0
LINE
8
BLACK
6
CONTINUOUS
10
1.63833
20
-5.36575
11
1.61667
21
-5.36575
0
LINE
8
BLACK
6
CONTINUOUS
10
1.61667
20
-5.36575
11
1.61514
21
-5.3656
0
LINE
8
BLACK
6
CONTINUOUS
10
1.61514
20
-5.3656
11
1.61366
21
-5.36515
0
LINE
8
BLACK
6
CONTINUOUS
10
1.61366
20
-5.36515
11
1.6123
21
-5.36442
0
LINE
8
BLACK
6
CONTINUOUS
10
1.6123
20
-5.36442
11
1.61111
21
-5.36344
0
LINE
8
BLACK
6
CONTINUOUS
10
1.61111
20
-5.36344
11
1.61013
21
-5.36225
0
LINE
8
BLACK
6
CONTINUOUS
10
1.61013
20
-5.36225
11
1.6094
21
-5.36089
0
LINE
8
BLACK
6
CONTINUOUS
10
1.6094
20
-5.36089
11
1.60895
21
-5.35941
0
LINE
8
BLACK
6
CONTINUOUS
10
1.60895
20
-5.35941
11
1.6088
21
-5.35787
0
LINE
8
BLACK
6
CONTINUOUS
10
1.6088
20
-5.35787
11
1.6088
21
-5.34213
0
LINE
8
BLACK
6
CONTINUOUS
10
1.6088
20
-5.34213
11
1.60895
21
-5.34059
0
LINE
8
BLACK
6
CONTINUOUS
10
1.60895
20
-5.34059
11
1.6094
21
-5.33911
0
LINE
8
BLACK
6
CONTINUOUS
10
1.6094
20
-5.33911
11
1.61013
21
-5.33775
0
LINE
8
BLACK
6
CONTINUOUS
10
1.61013
20
-5.33775
11
1.61111
21
-5.33656
0
LINE
8
BLACK
6
CONTINUOUS
10
1.61111
20
-5.33656
11
1.6123
21
-5.33558
0
LINE
8
BLACK
6
CONTINUOUS
10
1.6123
20
-5.33558
11
1.61366
21
-5.33485
0
LINE
8
BLACK
6
CONTINUOUS
10
1.61366
20
-5.33485
11
1.61514
21
-5.3344
0
LINE
8
BLACK
6
CONTINUOUS
10
1.61514
20
-5.3344
11
1.61667
21
-5.33425
0
LINE
8
BLACK
6
CONTINUOUS
10
1.61667
20
-5.33425
11
1.63833
21
-5.33425
0
LINE
8
BLACK
6
CONTINUOUS
10
1.63833
20
-5.33425
11
1.63986
21
-5.3344
0
LINE
8
BLACK
6
CONTINUOUS
10
1.56945
20
-5.25645
11
1.57093
21
-5.2569
0
LINE
8
BLACK
6
CONTINUOUS
10
1.57093
20
-5.2569
11
1.57229
21
-5.25763
0
LINE
8
BLACK
6
CONTINUOUS
10
1.57229
20
-5.25763
11
1.57348
21
-5.25861
0
LINE
8
BLACK
6
CONTINUOUS
10
1.57348
20
-5.25861
11
1.57446
21
-5.2598
0
LINE
8
BLACK
6
CONTINUOUS
10
1.57446
20
-5.2598
11
1.57519
21
-5.26116
0
LINE
8
BLACK
6
CONTINUOUS
10
1.57519
20
-5.26116
11
1.57564
21
-5.26264
0
LINE
8
BLACK
6
CONTINUOUS
10
1.57564
20
-5.26264
11
1.57579
21
-5.26417
0
LINE
8
BLACK
6
CONTINUOUS
10
1.57579
20
-5.26417
11
1.57579
21
-5.28583
0
LINE
8
BLACK
6
CONTINUOUS
10
1.57579
20
-5.28583
11
1.57564
21
-5.28736
0
LINE
8
BLACK
6
CONTINUOUS
10
1.57564
20
-5.28736
11
1.57519
21
-5.28884
0
LINE
8
BLACK
6
CONTINUOUS
10
1.57519
20
-5.28884
11
1.57446
21
-5.2902
0
LINE
8
BLACK
6
CONTINUOUS
10
1.57446
20
-5.2902
11
1.57348
21
-5.29139
0
LINE
8
BLACK
6
CONTINUOUS
10
1.57348
20
-5.29139
11
1.57229
21
-5.29237
0
LINE
8
BLACK
6
CONTINUOUS
10
1.57229
20
-5.29237
11
1.57093
21
-5.2931
0
LINE
8
BLACK
6
CONTINUOUS
10
1.57093
20
-5.2931
11
1.56945
21
-5.29355
0
LINE
8
BLACK
6
CONTINUOUS
10
1.56945
20
-5.29355
11
1.56791
21
-5.2937
0
LINE
8
BLACK
6
CONTINUOUS
10
1.56791
20
-5.2937
11
1.55217
21
-5.2937
0
LINE
8
BLACK
6
CONTINUOUS
10
1.55217
20
-5.2937
11
1.55063
21
-5.29355
0
LINE
8
BLACK
6
CONTINUOUS
10
1.55063
20
-5.29355
11
1.54915
21
-5.2931
0
LINE
8
BLACK
6
CONTINUOUS
10
1.54915
20
-5.2931
11
1.54779
21
-5.29237
0
LINE
8
BLACK
6
CONTINUOUS
10
1.54779
20
-5.29237
11
1.5466
21
-5.29139
0
LINE
8
BLACK
6
CONTINUOUS
10
1.5466
20
-5.29139
11
1.54562
21
-5.2902
0
LINE
8
BLACK
6
CONTINUOUS
10
1.54562
20
-5.2902
11
1.54489
21
-5.28884
0
LINE
8
BLACK
6
CONTINUOUS
10
1.54489
20
-5.28884
11
1.54444
21
-5.28736
0
LINE
8
BLACK
6
CONTINUOUS
10
1.54444
20
-5.28736
11
1.54429
21
-5.28583
0
LINE
8
BLACK
6
CONTINUOUS
10
1.54429
20
-5.28583
11
1.54429
21
-5.26417
0
LINE
8
BLACK
6
CONTINUOUS
10
1.54429
20
-5.26417
11
1.54444
21
-5.26264
0
LINE
8
BLACK
6
CONTINUOUS
10
1.54444
20
-5.26264
11
1.54489
21
-5.26116
0
LINE
8
BLACK
6
CONTINUOUS
10
1.54489
20
-5.26116
11
1.54562
21
-5.2598
0
LINE
8
BLACK
6
CONTINUOUS
10
1.54562
20
-5.2598
11
1.5466
21
-5.25861
0
LINE
8
BLACK
6
CONTINUOUS
10
1.5466
20
-5.25861
11
1.54779
21
-5.25763
0
LINE
8
BLACK
6
CONTINUOUS
10
1.54779
20
-5.25763
11
1.54915
21
-5.2569
0
LINE
8
BLACK
6
CONTINUOUS
10
1.54915
20
-5.2569
11
1.55063
21
-5.25645
0
LINE
8
BLACK
6
CONTINUOUS
10
1.55063
20
-5.25645
11
1.55217
21
-5.2563
0
LINE
8
BLACK
6
CONTINUOUS
10
1.55217
20
-5.2563
11
1.56791
21
-5.2563
0
LINE
8
BLACK
6
CONTINUOUS
10
1.56791
20
-5.2563
11
1.56945
21
-5.25645
0
LINE
8
BLACK
6
CONTINUOUS
10
1.63441
20
-5.25645
11
1.63589
21
-5.2569
0
LINE
8
BLACK
6
CONTINUOUS
10
1.63589
20
-5.2569
11
1.63725
21
-5.25763
0
LINE
8
BLACK
6
CONTINUOUS
10
1.63725
20
-5.25763
11
1.63844
21
-5.25861
0
LINE
8
BLACK
6
CONTINUOUS
10
1.63844
20
-5.25861
11
1.63942
21
-5.2598
0
LINE
8
BLACK
6
CONTINUOUS
10
1.63942
20
-5.2598
11
1.64015
21
-5.26116
0
LINE
8
BLACK
6
CONTINUOUS
10
1.64015
20
-5.26116
11
1.6406
21
-5.26264
0
LINE
8
BLACK
6
CONTINUOUS
10
1.6406
20
-5.26264
11
1.64075
21
-5.26417
0
LINE
8
BLACK
6
CONTINUOUS
10
1.64075
20
-5.26417
11
1.64075
21
-5.28583
0
LINE
8
BLACK
6
CONTINUOUS
10
1.64075
20
-5.28583
11
1.6406
21
-5.28736
0
LINE
8
BLACK
6
CONTINUOUS
10
1.6406
20
-5.28736
11
1.64015
21
-5.28884
0
LINE
8
BLACK
6
CONTINUOUS
10
1.64015
20
-5.28884
11
1.63942
21
-5.2902
0
LINE
8
BLACK
6
CONTINUOUS
10
1.63942
20
-5.2902
11
1.63844
21
-5.29139
0
LINE
8
BLACK
6
CONTINUOUS
10
1.63844
20
-5.29139
11
1.63725
21
-5.29237
0
LINE
8
BLACK
6
CONTINUOUS
10
1.63725
20
-5.29237
11
1.63589
21
-5.2931
0
LINE
8
BLACK
6
CONTINUOUS
10
1.63589
20
-5.2931
11
1.63441
21
-5.29355
0
LINE
8
BLACK
6
CONTINUOUS
10
1.63441
20
-5.29355
11
1.63287
21
-5.2937
0
LINE
8
BLACK
6
CONTINUOUS
10
1.63287
20
-5.2937
11
1.61713
21
-5.2937
0
LINE
8
BLACK
6
CONTINUOUS
10
1.61713
20
-5.2937
11
1.61559
21
-5.29355
0
LINE
8
BLACK
6
CONTINUOUS
10
1.61559
20
-5.29355
11
1.61411
21
-5.2931
0
LINE
8
BLACK
6
CONTINUOUS
10
1.61411
20
-5.2931
11
1.61275
21
-5.29237
0
LINE
8
BLACK
6
CONTINUOUS
10
1.61275
20
-5.29237
11
1.61156
21
-5.29139
0
LINE
8
BLACK
6
CONTINUOUS
10
1.61156
20
-5.29139
11
1.61058
21
-5.2902
0
LINE
8
BLACK
6
CONTINUOUS
10
1.61058
20
-5.2902
11
1.60985
21
-5.28884
0
LINE
8
BLACK
6
CONTINUOUS
10
1.60985
20
-5.28884
11
1.6094
21
-5.28736
0
LINE
8
BLACK
6
CONTINUOUS
10
1.6094
20
-5.28736
11
1.60925
21
-5.28583
0
LINE
8
BLACK
6
CONTINUOUS
10
1.60925
20
-5.28583
11
1.60925
21
-5.26417
0
LINE
8
BLACK
6
CONTINUOUS
10
1.60925
20
-5.26417
11
1.6094
21
-5.26264
0
LINE
8
BLACK
6
CONTINUOUS
10
1.6094
20
-5.26264
11
1.60985
21
-5.26116
0
LINE
8
BLACK
6
CONTINUOUS
10
1.60985
20
-5.26116
11
1.61058
21
-5.2598
0
LINE
8
BLACK
6
CONTINUOUS
10
1.61058
20
-5.2598
11
1.61156
21
-5.25861
0
LINE
8
BLACK
6
CONTINUOUS
10
1.61156
20
-5.25861
11
1.61275
21
-5.25763
0
LINE
8
BLACK
6
CONTINUOUS
10
1.61275
20
-5.25763
11
1.61411
21
-5.2569
0
LINE
8
BLACK
6
CONTINUOUS
10
1.61411
20
-5.2569
11
1.61559
21
-5.25645
0
LINE
8
BLACK
6
CONTINUOUS
10
1.61559
20
-5.25645
11
1.61713
21
-5.2563
0
LINE
8
BLACK
6
CONTINUOUS
10
1.61713
20
-5.2563
11
1.63287
21
-5.2563
0
LINE
8
BLACK
6
CONTINUOUS
10
1.63287
20
-5.2563
11
1.63441
21
-5.25645
0
LINE
8
BLACK
6
CONTINUOUS
10
1.56945
20
-5.18145
11
1.57093
21
-5.1819
0
LINE
8
BLACK
6
CONTINUOUS
10
1.57093
20
-5.1819
11
1.57229
21
-5.18263
0
LINE
8
BLACK
6
CONTINUOUS
10
1.57229
20
-5.18263
11
1.57348
21
-5.18361
0
LINE
8
BLACK
6
CONTINUOUS
10
1.57348
20
-5.18361
11
1.57446
21
-5.1848
0
LINE
8
BLACK
6
CONTINUOUS
10
1.57446
20
-5.1848
11
1.57519
21
-5.18616
0
LINE
8
BLACK
6
CONTINUOUS
10
1.57519
20
-5.18616
11
1.57564
21
-5.18764
0
LINE
8
BLACK
6
CONTINUOUS
10
1.57564
20
-5.18764
11
1.57579
21
-5.18917
0
LINE
8
BLACK
6
CONTINUOUS
10
1.57579
20
-5.18917
11
1.57579
21
-5.21083
0
LINE
8
BLACK
6
CONTINUOUS
10
1.57579
20
-5.21083
11
1.57564
21
-5.21236
0
LINE
8
BLACK
6
CONTINUOUS
10
1.57564
20
-5.21236
11
1.57519
21
-5.21384
0
LINE
8
BLACK
6
CONTINUOUS
10
1.57519
20
-5.21384
11
1.57446
21
-5.2152
0
LINE
8
BLACK
6
CONTINUOUS
10
1.57446
20
-5.2152
11
1.57348
21
-5.21639
0
LINE
8
BLACK
6
CONTINUOUS
10
1.57348
20
-5.21639
11
1.57229
21
-5.21737
0
LINE
8
BLACK
6
CONTINUOUS
10
1.57229
20
-5.21737
11
1.57093
21
-5.2181
0
LINE
8
BLACK
6
CONTINUOUS
10
1.57093
20
-5.2181
11
1.56945
21
-5.21855
0
LINE
8
BLACK
6
CONTINUOUS
10
1.56945
20
-5.21855
11
1.56791
21
-5.2187
0
LINE
8
BLACK
6
CONTINUOUS
10
1.56791
20
-5.2187
11
1.55217
21
-5.2187
0
LINE
8
BLACK
6
CONTINUOUS
10
1.55217
20
-5.2187
11
1.55063
21
-5.21855
0
LINE
8
BLACK
6
CONTINUOUS
10
1.55063
20
-5.21855
11
1.54915
21
-5.2181
0
LINE
8
BLACK
6
CONTINUOUS
10
1.54915
20
-5.2181
11
1.54779
21
-5.21737
0
LINE
8
BLACK
6
CONTINUOUS
10
1.54779
20
-5.21737
11
1.5466
21
-5.21639
0
LINE
8
BLACK
6
CONTINUOUS
10
1.5466
20
-5.21639
11
1.54562
21
-5.2152
0
LINE
8
BLACK
6
CONTINUOUS
10
1.54562
20
-5.2152
11
1.54489
21
-5.21384
0
LINE
8
BLACK
6
CONTINUOUS
10
1.54489
20
-5.21384
11
1.54444
21
-5.21236
0
LINE
8
BLACK
6
CONTINUOUS
10
1.54444
20
-5.21236
11
1.54429
21
-5.21083
0
LINE
8
BLACK
6
CONTINUOUS
10
1.54429
20
-5.21083
11
1.54429
21
-5.18917
0
LINE
8
BLACK
6
CONTINUOUS
10
1.54429
20
-5.18917
11
1.54444
21
-5.18764
0
LINE
8
BLACK
6
CONTINUOUS
10
1.54444
20
-5.18764
11
1.54489
21
-5.18616
0
LINE
8
BLACK
6
CONTINUOUS
10
1.54489
20
-5.18616
11
1.54562
21
-5.1848
0
LINE
8
BLACK
6
CONTINUOUS
10
1.54562
20
-5.1848
11
1.5466
21
-5.18361
0
LINE
8
BLACK
6
CONTINUOUS
10
1.5466
20
-5.18361
11
1.54779
21
-5.18263
0
LINE
8
BLACK
6
CONTINUOUS
10
1.54779
20
-5.18263
11
1.54915
21
-5.1819
0
LINE
8
BLACK
6
CONTINUOUS
10
1.54915
20
-5.1819
11
1.55063
21
-5.18145
0
LINE
8
BLACK
6
CONTINUOUS
10
1.55063
20
-5.18145
11
1.55217
21
-5.1813
0
LINE
8
BLACK
6
CONTINUOUS
10
1.55217
20
-5.1813
11
1.56791
21
-5.1813
0
LINE
8
BLACK
6
CONTINUOUS
10
1.56791
20
-5.1813
11
1.56945
21
-5.18145
0
LINE
8
BLACK
6
CONTINUOUS
10
1.63441
20
-5.18145
11
1.63589
21
-5.1819
0
LINE
8
BLACK
6
CONTINUOUS
10
1.63589
20
-5.1819
11
1.63725
21
-5.18263
0
LINE
8
BLACK
6
CONTINUOUS
10
1.63725
20
-5.18263
11
1.63844
21
-5.18361
0
LINE
8
BLACK
6
CONTINUOUS
10
1.63844
20
-5.18361
11
1.63942
21
-5.1848
0
LINE
8
BLACK
6
CONTINUOUS
10
1.63942
20
-5.1848
11
1.64015
21
-5.18616
0
LINE
8
BLACK
6
CONTINUOUS
10
1.64015
20
-5.18616
11
1.6406
21
-5.18764
0
LINE
8
BLACK
6
CONTINUOUS
10
1.6406
20
-5.18764
11
1.64075
21
-5.18917
0
LINE
8
BLACK
6
CONTINUOUS
10
1.64075
20
-5.18917
11
1.64075
21
-5.21083
0
LINE
8
BLACK
6
CONTINUOUS
10
1.64075
20
-5.21083
11
1.6406
21
-5.21236
0
LINE
8
BLACK
6
CONTINUOUS
10
1.6406
20
-5.21236
11
1.64015
21
-5.21384
0
LINE
8
BLACK
6
CONTINUOUS
10
1.64015
20
-5.21384
11
1.63942
21
-5.2152
0
LINE
8
BLACK
6
CONTINUOUS
10
1.63942
20
-5.2152
11
1.63844
21
-5.21639
0
LINE
8
BLACK
6
CONTINUOUS
10
1.63844
20
-5.21639
11
1.63725
21
-5.21737
0
LINE
8
BLACK
6
CONTINUOUS
10
1.63725
20
-5.21737
11
1.63589
21
-5.2181
0
LINE
8
BLACK
6
CONTINUOUS
10
1.63589
20
-5.2181
11
1.63441
21
-5.21855
0
LINE
8
BLACK
6
CONTINUOUS
10
1.63441
20
-5.21855
11
1.63287
21
-5.2187
0
LINE
8
BLACK
6
CONTINUOUS
10
1.63287
20
-5.2187
11
1.61713
21
-5.2187
0
LINE
8
BLACK
6
CONTINUOUS
10
1.61713
20
-5.2187
11
1.61559
21
-5.21855
0
LINE
8
BLACK
6
CONTINUOUS
10
1.61559
20
-5.21855
11
1.61411
21
-5.2181
0
LINE
8
BLACK
6
CONTINUOUS
10
1.61411
20
-5.2181
11
1.61275
21
-5.21737
0
LINE
8
BLACK
6
CONTINUOUS
10
1.61275
20
-5.21737
11
1.61156
21
-5.21639
0
LINE
8
BLACK
6
CONTINUOUS
10
1.61156
20
-5.21639
11
1.61058
21
-5.2152
0
LINE
8
BLACK
6
CONTINUOUS
10
1.61058
20
-5.2152
11
1.60985
21
-5.21384
0
LINE
8
BLACK
6
CONTINUOUS
10
1.60985
20
-5.21384
11
1.6094
21
-5.21236
0
LINE
8
BLACK
6
CONTINUOUS
10
1.6094
20
-5.21236
11
1.60925
21
-5.21083
0
LINE
8
BLACK
6
CONTINUOUS
10
1.60925
20
-5.21083
11
1.60925
21
-5.18917
0
LINE
8
BLACK
6
CONTINUOUS
10
1.60925
20
-5.18917
11
1.6094
21
-5.18764
0
LINE
8
BLACK
6
CONTINUOUS
10
1.6094
20
-5.18764
11
1.60985
21
-5.18616
0
LINE
8
BLACK
6
CONTINUOUS
10
1.60985
20
-5.18616
11
1.61058
21
-5.1848
0
LINE
8
BLACK
6
CONTINUOUS
10
1.61058
20
-5.1848
11
1.61156
21
-5.18361
0
LINE
8
BLACK
6
CONTINUOUS
10
1.61156
20
-5.18361
11
1.61275
21
-5.18263
0
LINE
8
BLACK
6
CONTINUOUS
10
1.61275
20
-5.18263
11
1.61411
21
-5.1819
0
LINE
8
BLACK
6
CONTINUOUS
10
1.61411
20
-5.1819
11
1.61559
21
-5.18145
0
LINE
8
BLACK
6
CONTINUOUS
10
1.61559
20
-5.18145
11
1.61713
21
-5.1813
0
LINE
8
BLACK
6
CONTINUOUS
10
1.61713
20
-5.1813
11
1.63287
21
-5.1813
0
LINE
8
BLACK
6
CONTINUOUS
10
1.63287
20
-5.1813
11
1.63441
21
-5.18145
0
LINE
8
BLACK
6
CONTINUOUS
10
1.38418
20
-5.14574
11
1.38603
21
-5.1463
0
LINE
8
BLACK
6
CONTINUOUS
10
1.38603
20
-5.1463
11
1.38773
21
-5.14721
0
LINE
8
BLACK
6
CONTINUOUS
10
1.38773
20
-5.14721
11
1.38922
21
-5.14843
0
LINE
8
BLACK
6
CONTINUOUS
10
1.38922
20
-5.14843
11
1.39045
21
-5.14993
0
LINE
8
BLACK
6
CONTINUOUS
10
1.39045
20
-5.14993
11
1.39136
21
-5.15163
0
LINE
8
BLACK
6
CONTINUOUS
10
1.39136
20
-5.15163
11
1.39192
21
-5.15347
0
LINE
8
BLACK
6
CONTINUOUS
10
1.39192
20
-5.15347
11
1.39211
21
-5.15539
0
LINE
8
BLACK
6
CONTINUOUS
10
1.39211
20
-5.15539
11
1.39211
21
-5.20461
0
LINE
8
BLACK
6
CONTINUOUS
10
1.39211
20
-5.20461
11
1.39192
21
-5.20653
0
LINE
8
BLACK
6
CONTINUOUS
10
1.39192
20
-5.20653
11
1.39136
21
-5.20837
0
LINE
8
BLACK
6
CONTINUOUS
10
1.39136
20
-5.20837
11
1.39045
21
-5.21007
0
LINE
8
BLACK
6
CONTINUOUS
10
1.39045
20
-5.21007
11
1.38922
21
-5.21157
0
LINE
8
BLACK
6
CONTINUOUS
10
1.38922
20
-5.21157
11
1.38773
21
-5.21279
0
LINE
8
BLACK
6
CONTINUOUS
10
1.38773
20
-5.21279
11
1.38603
21
-5.2137
0
LINE
8
BLACK
6
CONTINUOUS
10
1.38603
20
-5.2137
11
1.38418
21
-5.21426
0
LINE
8
BLACK
6
CONTINUOUS
10
1.38418
20
-5.21426
11
1.38226
21
-5.21445
0
LINE
8
BLACK
6
CONTINUOUS
10
1.38226
20
-5.21445
11
1.35274
21
-5.21445
0
LINE
8
BLACK
6
CONTINUOUS
10
1.35274
20
-5.21445
11
1.35082
21
-5.21426
0
LINE
8
BLACK
6
CONTINUOUS
10
1.35082
20
-5.21426
11
1.34897
21
-5.2137
0
LINE
8
BLACK
6
CONTINUOUS
10
1.34897
20
-5.2137
11
1.34727
21
-5.21279
0
LINE
8
BLACK
6
CONTINUOUS
10
1.34727
20
-5.21279
11
1.34578
21
-5.21157
0
LINE
8
BLACK
6
CONTINUOUS
10
1.34578
20
-5.21157
11
1.34455
21
-5.21007
0
LINE
8
BLACK
6
CONTINUOUS
10
1.34455
20
-5.21007
11
1.34364
21
-5.20837
0
LINE
8
BLACK
6
CONTINUOUS
10
1.34364
20
-5.20837
11
1.34308
21
-5.20653
0
LINE
8
BLACK
6
CONTINUOUS
10
1.34308
20
-5.20653
11
1.34289
21
-5.20461
0
LINE
8
BLACK
6
CONTINUOUS
10
1.34289
20
-5.20461
11
1.34289
21
-5.15539
0
LINE
8
BLACK
6
CONTINUOUS
10
1.34289
20
-5.15539
11
1.34308
21
-5.15347
0
LINE
8
BLACK
6
CONTINUOUS
10
1.34308
20
-5.15347
11
1.34364
21
-5.15163
0
LINE
8
BLACK
6
CONTINUOUS
10
1.34364
20
-5.15163
11
1.34455
21
-5.14993
0
LINE
8
BLACK
6
CONTINUOUS
10
1.34455
20
-5.14993
11
1.34578
21
-5.14843
0
LINE
8
BLACK
6
CONTINUOUS
10
1.34578
20
-5.14843
11
1.34727
21
-5.14721
0
LINE
8
BLACK
6
CONTINUOUS
10
1.34727
20
-5.14721
11
1.34897
21
-5.1463
0
LINE
8
BLACK
6
CONTINUOUS
10
1.34897
20
-5.1463
11
1.35082
21
-5.14574
0
LINE
8
BLACK
6
CONTINUOUS
10
1.35082
20
-5.14574
11
1.35274
21
-5.14555
0
LINE
8
BLACK
6
CONTINUOUS
10
1.35274
20
-5.14555
11
1.38226
21
-5.14555
0
LINE
8
BLACK
6
CONTINUOUS
10
1.38226
20
-5.14555
11
1.38418
21
-5.14574
0
LINE
8
BLACK
6
CONTINUOUS
10
1.27395
20
-5.14574
11
1.27579
21
-5.1463
0
LINE
8
BLACK
6
CONTINUOUS
10
1.27579
20
-5.1463
11
1.2775
21
-5.14721
0
LINE
8
BLACK
6
CONTINUOUS
10
1.2775
20
-5.14721
11
1.27899
21
-5.14843
0
LINE
8
BLACK
6
CONTINUOUS
10
1.27899
20
-5.14843
11
1.28021
21
-5.14993
0
LINE
8
BLACK
6
CONTINUOUS
10
1.28021
20
-5.14993
11
1.28112
21
-5.15163
0
LINE
8
BLACK
6
CONTINUOUS
10
1.28112
20
-5.15163
11
1.28168
21
-5.15347
0
LINE
8
BLACK
6
CONTINUOUS
10
1.28168
20
-5.15347
11
1.28187
21
-5.15539
0
LINE
8
BLACK
6
CONTINUOUS
10
1.28187
20
-5.15539
11
1.28187
21
-5.20461
0
LINE
8
BLACK
6
CONTINUOUS
10
1.28187
20
-5.20461
11
1.28168
21
-5.20653
0
LINE
8
BLACK
6
CONTINUOUS
10
1.28168
20
-5.20653
11
1.28112
21
-5.20837
0
LINE
8
BLACK
6
CONTINUOUS
10
1.28112
20
-5.20837
11
1.28021
21
-5.21007
0
LINE
8
BLACK
6
CONTINUOUS
10
1.28021
20
-5.21007
11
1.27899
21
-5.21157
0
LINE
8
BLACK
6
CONTINUOUS
10
1.27899
20
-5.21157
11
1.2775
21
-5.21279
0
LINE
8
BLACK
6
CONTINUOUS
10
1.2775
20
-5.21279
11
1.27579
21
-5.2137
0
LINE
8
BLACK
6
CONTINUOUS
10
1.27579
20
-5.2137
11
1.27395
21
-5.21426
0
LINE
8
BLACK
6
CONTINUOUS
10
1.27395
20
-5.21426
11
1.27203
21
-5.21445
0
LINE
8
BLACK
6
CONTINUOUS
10
1.27203
20
-5.21445
11
1.2425
21
-5.21445
0
LINE
8
BLACK
6
CONTINUOUS
10
1.2425
20
-5.21445
11
1.24058
21
-5.21426
0
LINE
8
BLACK
6
CONTINUOUS
10
1.24058
20
-5.21426
11
1.23873
21
-5.2137
0
LINE
8
BLACK
6
CONTINUOUS
10
1.23873
20
-5.2137
11
1.23703
21
-5.21279
0
LINE
8
BLACK
6
CONTINUOUS
10
1.23703
20
-5.21279
11
1.23554
21
-5.21157
0
LINE
8
BLACK
6
CONTINUOUS
10
1.23554
20
-5.21157
11
1.23432
21
-5.21007
0
LINE
8
BLACK
6
CONTINUOUS
10
1.23432
20
-5.21007
11
1.23341
21
-5.20837
0
LINE
8
BLACK
6
CONTINUOUS
10
1.23341
20
-5.20837
11
1.23285
21
-5.20653
0
LINE
8
BLACK
6
CONTINUOUS
10
1.23285
20
-5.20653
11
1.23266
21
-5.20461
0
LINE
8
BLACK
6
CONTINUOUS
10
1.23266
20
-5.20461
11
1.23266
21
-5.15539
0
LINE
8
BLACK
6
CONTINUOUS
10
1.23266
20
-5.15539
11
1.23285
21
-5.15347
0
LINE
8
BLACK
6
CONTINUOUS
10
1.23285
20
-5.15347
11
1.23341
21
-5.15163
0
LINE
8
BLACK
6
CONTINUOUS
10
1.23341
20
-5.15163
11
1.23432
21
-5.14993
0
LINE
8
BLACK
6
CONTINUOUS
10
1.23432
20
-5.14993
11
1.23554
21
-5.14843
0
LINE
8
BLACK
6
CONTINUOUS
10
1.23554
20
-5.14843
11
1.23703
21
-5.14721
0
LINE
8
BLACK
6
CONTINUOUS
10
1.23703
20
-5.14721
11
1.23873
21
-5.1463
0
LINE
8
BLACK
6
CONTINUOUS
10
1.23873
20
-5.1463
11
1.24058
21
-5.14574
0
LINE
8
BLACK
6
CONTINUOUS
10
1.24058
20
-5.14574
11
1.2425
21
-5.14555
0
LINE
8
BLACK
6
CONTINUOUS
10
1.2425
20
-5.14555
11
1.27203
21
-5.14555
0
LINE
8
BLACK
6
CONTINUOUS
10
1.27203
20
-5.14555
11
1.27395
21
-5.14574
0
LINE
8
BLACK
6
CONTINUOUS
10
1.43254
20
-5.06695
11
1.40498
21
-5.06695
0
LINE
8
BLACK
6
CONTINUOUS
10
1.40498
20
-5.06695
11
1.40498
21
-5.04923
0
LINE
8
BLACK
6
CONTINUOUS
10
1.40498
20
-5.04923
11
1.43254
21
-5.04923
0
LINE
8
BLACK
6
CONTINUOUS
10
1.43254
20
-5.04923
11
1.43254
21
-5.06695
0
LINE
8
BLACK
6
CONTINUOUS
10
1.26236
20
-5.01686
11
1.26384
21
-5.01731
0
LINE
8
BLACK
6
CONTINUOUS
10
1.26384
20
-5.01731
11
1.2652
21
-5.01804
0
LINE
8
BLACK
6
CONTINUOUS
10
1.2652
20
-5.01804
11
1.26639
21
-5.01902
0
LINE
8
BLACK
6
CONTINUOUS
10
1.26639
20
-5.01902
11
1.26737
21
-5.02021
0
LINE
8
BLACK
6
CONTINUOUS
10
1.26737
20
-5.02021
11
1.2681
21
-5.02157
0
LINE
8
BLACK
6
CONTINUOUS
10
1.2681
20
-5.02157
11
1.26855
21
-5.02305
0
LINE
8
BLACK
6
CONTINUOUS
10
1.26855
20
-5.02305
11
1.2687
21
-5.02459
0
LINE
8
BLACK
6
CONTINUOUS
10
1.2687
20
-5.02459
11
1.2687
21
-5.04033
0
LINE
8
BLACK
6
CONTINUOUS
10
1.2687
20
-5.04033
11
1.26855
21
-5.04187
0
LINE
8
BLACK
6
CONTINUOUS
10
1.26855
20
-5.04187
11
1.2681
21
-5.04335
0
LINE
8
BLACK
6
CONTINUOUS
10
1.2681
20
-5.04335
11
1.26737
21
-5.04471
0
LINE
8
BLACK
6
CONTINUOUS
10
1.26737
20
-5.04471
11
1.26639
21
-5.0459
0
LINE
8
BLACK
6
CONTINUOUS
10
1.26639
20
-5.0459
11
1.2652
21
-5.04688
0
LINE
8
BLACK
6
CONTINUOUS
10
1.2652
20
-5.04688
11
1.26384
21
-5.04761
0
LINE
8
BLACK
6
CONTINUOUS
10
1.26384
20
-5.04761
11
1.26236
21
-5.04806
0
LINE
8
BLACK
6
CONTINUOUS
10
1.26236
20
-5.04806
11
1.26083
21
-5.04821
0
LINE
8
BLACK
6
CONTINUOUS
10
1.26083
20
-5.04821
11
1.23917
21
-5.04821
0
LINE
8
BLACK
6
CONTINUOUS
10
1.23917
20
-5.04821
11
1.23764
21
-5.04806
0
LINE
8
BLACK
6
CONTINUOUS
10
1.23764
20
-5.04806
11
1.23616
21
-5.04761
0
LINE
8
BLACK
6
CONTINUOUS
10
1.23616
20
-5.04761
11
1.2348
21
-5.04688
0
LINE
8
BLACK
6
CONTINUOUS
10
1.2348
20
-5.04688
11
1.23361
21
-5.0459
0
LINE
8
BLACK
6
CONTINUOUS
10
1.23361
20
-5.0459
11
1.23263
21
-5.04471
0
LINE
8
BLACK
6
CONTINUOUS
10
1.23263
20
-5.04471
11
1.2319
21
-5.04335
0
LINE
8
BLACK
6
CONTINUOUS
10
1.2319
20
-5.04335
11
1.23145
21
-5.04187
0
LINE
8
BLACK
6
CONTINUOUS
10
1.23145
20
-5.04187
11
1.2313
21
-5.04033
0
LINE
8
BLACK
6
CONTINUOUS
10
1.2313
20
-5.04033
11
1.2313
21
-5.02459
0
LINE
8
BLACK
6
CONTINUOUS
10
1.2313
20
-5.02459
11
1.23145
21
-5.02305
0
LINE
8
BLACK
6
CONTINUOUS
10
1.23145
20
-5.02305
11
1.2319
21
-5.02157
0
LINE
8
BLACK
6
CONTINUOUS
10
1.2319
20
-5.02157
11
1.23263
21
-5.02021
0
LINE
8
BLACK
6
CONTINUOUS
10
1.23263
20
-5.02021
11
1.23361
21
-5.01902
0
LINE
8
BLACK
6
CONTINUOUS
10
1.23361
20
-5.01902
11
1.2348
21
-5.01804
0
LINE
8
BLACK
6
CONTINUOUS
10
1.2348
20
-5.01804
11
1.23616
21
-5.01731
0
LINE
8
BLACK
6
CONTINUOUS
10
1.23616
20
-5.01731
11
1.23764
21
-5.01686
0
LINE
8
BLACK
6
CONTINUOUS
10
1.23764
20
-5.01686
11
1.23917
21
-5.01671
0
LINE
8
BLACK
6
CONTINUOUS
10
1.23917
20
-5.01671
11
1.26083
21
-5.01671
0
LINE
8
BLACK
6
CONTINUOUS
10
1.26083
20
-5.01671
11
1.26236
21
-5.01686
0
LINE
8
BLACK
6
CONTINUOUS
10
1.51128
20
-5.04136
11
1.48372
21
-5.04136
0
LINE
8
BLACK
6
CONTINUOUS
10
1.48372
20
-5.04136
11
1.48372
21
-5.02364
0
LINE
8
BLACK
6
CONTINUOUS
10
1.48372
20
-5.02364
11
1.51128
21
-5.02364
0
LINE
8
BLACK
6
CONTINUOUS
10
1.51128
20
-5.02364
11
1.51128
21
-5.04136
0
LINE
8
BLACK
6
CONTINUOUS
10
1.43254
20
-5.01577
11
1.40498
21
-5.01577
0
LINE
8
BLACK
6
CONTINUOUS
10
1.40498
20
-5.01577
11
1.40498
21
-4.99805
0
LINE
8
BLACK
6
CONTINUOUS
10
1.40498
20
-4.99805
11
1.43254
21
-4.99805
0
LINE
8
BLACK
6
CONTINUOUS
10
1.43254
20
-4.99805
11
1.43254
21
-5.01577
0
LINE
8
BLACK
6
CONTINUOUS
10
1.26236
20
-4.9519
11
1.26384
21
-4.95235
0
LINE
8
BLACK
6
CONTINUOUS
10
1.26384
20
-4.95235
11
1.2652
21
-4.95308
0
LINE
8
BLACK
6
CONTINUOUS
10
1.2652
20
-4.95308
11
1.26639
21
-4.95406
0
LINE
8
BLACK
6
CONTINUOUS
10
1.26639
20
-4.95406
11
1.26737
21
-4.95525
0
LINE
8
BLACK
6
CONTINUOUS
10
1.26737
20
-4.95525
11
1.2681
21
-4.95661
0
LINE
8
BLACK
6
CONTINUOUS
10
1.2681
20
-4.95661
11
1.26855
21
-4.95809
0
LINE
8
BLACK
6
CONTINUOUS
10
1.26855
20
-4.95809
11
1.2687
21
-4.95963
0
LINE
8
BLACK
6
CONTINUOUS
10
1.2687
20
-4.95963
11
1.2687
21
-4.97537
0
LINE
8
BLACK
6
CONTINUOUS
10
1.2687
20
-4.97537
11
1.26855
21
-4.97691
0
LINE
8
BLACK
6
CONTINUOUS
10
1.26855
20
-4.97691
11
1.2681
21
-4.97839
0
LINE
8
BLACK
6
CONTINUOUS
10
1.2681
20
-4.97839
11
1.26737
21
-4.97975
0
LINE
8
BLACK
6
CONTINUOUS
10
1.26737
20
-4.97975
11
1.26639
21
-4.98094
0
LINE
8
BLACK
6
CONTINUOUS
10
1.26639
20
-4.98094
11
1.2652
21
-4.98192
0
LINE
8
BLACK
6
CONTINUOUS
10
1.2652
20
-4.98192
11
1.26384
21
-4.98265
0
LINE
8
BLACK
6
CONTINUOUS
10
1.26384
20
-4.98265
11
1.26236
21
-4.9831
0
LINE
8
BLACK
6
CONTINUOUS
10
1.26236
20
-4.9831
11
1.26083
21
-4.98325
0
LINE
8
BLACK
6
CONTINUOUS
10
1.26083
20
-4.98325
11
1.23917
21
-4.98325
0
LINE
8
BLACK
6
CONTINUOUS
10
1.23917
20
-4.98325
11
1.23764
21
-4.9831
0
LINE
8
BLACK
6
CONTINUOUS
10
1.23764
20
-4.9831
11
1.23616
21
-4.98265
0
LINE
8
BLACK
6
CONTINUOUS
10
1.23616
20
-4.98265
11
1.2348
21
-4.98192
0
LINE
8
BLACK
6
CONTINUOUS
10
1.2348
20
-4.98192
11
1.23361
21
-4.98094
0
LINE
8
BLACK
6
CONTINUOUS
10
1.23361
20
-4.98094
11
1.23263
21
-4.97975
0
LINE
8
BLACK
6
CONTINUOUS
10
1.23263
20
-4.97975
11
1.2319
21
-4.97839
0
LINE
8
BLACK
6
CONTINUOUS
10
1.2319
20
-4.97839
11
1.23145
21
-4.97691
0
LINE
8
BLACK
6
CONTINUOUS
10
1.23145
20
-4.97691
11
1.2313
21
-4.97537
0
LINE
8
BLACK
6
CONTINUOUS
10
1.2313
20
-4.97537
11
1.2313
21
-4.95963
0
LINE
8
BLACK
6
CONTINUOUS
10
1.2313
20
-4.95963
11
1.23145
21
-4.95809
0
LINE
8
BLACK
6
CONTINUOUS
10
1.23145
20
-4.95809
11
1.2319
21
-4.95661
0
LINE
8
BLACK
6
CONTINUOUS
10
1.2319
20
-4.95661
11
1.23263
21
-4.95525
0
LINE
8
BLACK
6
CONTINUOUS
10
1.23263
20
-4.95525
11
1.23361
21
-4.95406
0
LINE
8
BLACK
6
CONTINUOUS
10
1.23361
20
-4.95406
11
1.2348
21
-4.95308
0
LINE
8
BLACK
6
CONTINUOUS
10
1.2348
20
-4.95308
11
1.23616
21
-4.95235
0
LINE
8
BLACK
6
CONTINUOUS
10
1.23616
20
-4.95235
11
1.23764
21
-4.9519
0
LINE
8
BLACK
6
CONTINUOUS
10
1.23764
20
-4.9519
11
1.23917
21
-4.95175
0
LINE
8
BLACK
6
CONTINUOUS
10
1.23917
20
-4.95175
11
1.26083
21
-4.95175
0
LINE
8
BLACK
6
CONTINUOUS
10
1.26083
20
-4.95175
11
1.26236
21
-4.9519
0
LINE
8
BLACK
6
CONTINUOUS
10
1.43254
20
-4.92695
11
1.40498
21
-4.92695
0
LINE
8
BLACK
6
CONTINUOUS
10
1.40498
20
-4.92695
11
1.40498
21
-4.90923
0
LINE
8
BLACK
6
CONTINUOUS
10
1.40498
20
-4.90923
11
1.43254
21
-4.90923
0
LINE
8
BLACK
6
CONTINUOUS
10
1.43254
20
-4.90923
11
1.43254
21
-4.92695
0
LINE
8
BLACK
6
CONTINUOUS
10
1.26236
20
-4.8919
11
1.26384
21
-4.89235
0
LINE
8
BLACK
6
CONTINUOUS
10
1.26384
20
-4.89235
11
1.2652
21
-4.89308
0
LINE
8
BLACK
6
CONTINUOUS
10
1.2652
20
-4.89308
11
1.26639
21
-4.89406
0
LINE
8
BLACK
6
CONTINUOUS
10
1.26639
20
-4.89406
11
1.26737
21
-4.89525
0
LINE
8
BLACK
6
CONTINUOUS
10
1.26737
20
-4.89525
11
1.2681
21
-4.89661
0
LINE
8
BLACK
6
CONTINUOUS
10
1.2681
20
-4.89661
11
1.26855
21
-4.89809
0
LINE
8
BLACK
6
CONTINUOUS
10
1.26855
20
-4.89809
11
1.2687
21
-4.89963
0
LINE
8
BLACK
6
CONTINUOUS
10
1.2687
20
-4.89963
11
1.2687
21
-4.91537
0
LINE
8
BLACK
6
CONTINUOUS
10
1.2687
20
-4.91537
11
1.26855
21
-4.91691
0
LINE
8
BLACK
6
CONTINUOUS
10
1.26855
20
-4.91691
11
1.2681
21
-4.91839
0
LINE
8
BLACK
6
CONTINUOUS
10
1.2681
20
-4.91839
11
1.26737
21
-4.91975
0
LINE
8
BLACK
6
CONTINUOUS
10
1.26737
20
-4.91975
11
1.26639
21
-4.92094
0
LINE
8
BLACK
6
CONTINUOUS
10
1.26639
20
-4.92094
11
1.2652
21
-4.92192
0
LINE
8
BLACK
6
CONTINUOUS
10
1.2652
20
-4.92192
11
1.26384
21
-4.92265
0
LINE
8
BLACK
6
CONTINUOUS
10
1.26384
20
-4.92265
11
1.26236
21
-4.9231
0
LINE
8
BLACK
6
CONTINUOUS
10
1.26236
20
-4.9231
11
1.26083
21
-4.92325
0
LINE
8
BLACK
6
CONTINUOUS
10
1.26083
20
-4.92325
11
1.23917
21
-4.92325
0
LINE
8
BLACK
6
CONTINUOUS
10
1.23917
20
-4.92325
11
1.23764
21
-4.9231
0
LINE
8
BLACK
6
CONTINUOUS
10
1.23764
20
-4.9231
11
1.23616
21
-4.92265
0
LINE
8
BLACK
6
CONTINUOUS
10
1.23616
20
-4.92265
11
1.2348
21
-4.92192
0
LINE
8
BLACK
6
CONTINUOUS
10
1.2348
20
-4.92192
11
1.23361
21
-4.92094
0
LINE
8
BLACK
6
CONTINUOUS
10
1.23361
20
-4.92094
11
1.23263
21
-4.91975
0
LINE
8
BLACK
6
CONTINUOUS
10
1.23263
20
-4.91975
11
1.2319
21
-4.91839
0
LINE
8
BLACK
6
CONTINUOUS
10
1.2319
20
-4.91839
11
1.23145
21
-4.91691
0
LINE
8
BLACK
6
CONTINUOUS
10
1.23145
20
-4.91691
11
1.2313
21
-4.91537
0
LINE
8
BLACK
6
CONTINUOUS
10
1.2313
20
-4.91537
11
1.2313
21
-4.89963
0
LINE
8
BLACK
6
CONTINUOUS
10
1.2313
20
-4.89963
11
1.23145
21
-4.89809
0
LINE
8
BLACK
6
CONTINUOUS
10
1.23145
20
-4.89809
11
1.2319
21
-4.89661
0
LINE
8
BLACK
6
CONTINUOUS
10
1.2319
20
-4.89661
11
1.23263
21
-4.89525
0
LINE
8
BLACK
6
CONTINUOUS
10
1.23263
20
-4.89525
11
1.23361
21
-4.89406
0
LINE
8
BLACK
6
CONTINUOUS
10
1.23361
20
-4.89406
11
1.2348
21
-4.89308
0
LINE
8
BLACK
6
CONTINUOUS
10
1.2348
20
-4.89308
11
1.23616
21
-4.89235
0
LINE
8
BLACK
6
CONTINUOUS
10
1.23616
20
-4.89235
11
1.23764
21
-4.8919
0
LINE
8
BLACK
6
CONTINUOUS
10
1.23764
20
-4.8919
11
1.23917
21
-4.89175
0
LINE
8
BLACK
6
CONTINUOUS
10
1.23917
20
-4.89175
11
1.26083
21
-4.89175
0
LINE
8
BLACK
6
CONTINUOUS
10
1.26083
20
-4.89175
11
1.26236
21
-4.8919
0
LINE
8
BLACK
6
CONTINUOUS
10
1.63136
20
-4.8758
11
1.63284
21
-4.87625
0
LINE
8
BLACK
6
CONTINUOUS
10
1.63284
20
-4.87625
11
1.6342
21
-4.87698
0
LINE
8
BLACK
6
CONTINUOUS
10
1.6342
20
-4.87698
11
1.63539
21
-4.87796
0
LINE
8
BLACK
6
CONTINUOUS
10
1.63539
20
-4.87796
11
1.63637
21
-4.87915
0
LINE
8
BLACK
6
CONTINUOUS
10
1.63637
20
-4.87915
11
1.6371
21
-4.88051
0
LINE
8
BLACK
6
CONTINUOUS
10
1.6371
20
-4.88051
11
1.63755
21
-4.88199
0
LINE
8
BLACK
6
CONTINUOUS
10
1.63755
20
-4.88199
11
1.6377
21
-4.88353
0
LINE
8
BLACK
6
CONTINUOUS
10
1.6377
20
-4.88353
11
1.6377
21
-4.89927
0
LINE
8
BLACK
6
CONTINUOUS
10
1.6377
20
-4.89927
11
1.63755
21
-4.90081
0
LINE
8
BLACK
6
CONTINUOUS
10
1.63755
20
-4.90081
11
1.6371
21
-4.90229
0
LINE
8
BLACK
6
CONTINUOUS
10
1.6371
20
-4.90229
11
1.63637
21
-4.90365
0
LINE
8
BLACK
6
CONTINUOUS
10
1.63637
20
-4.90365
11
1.63539
21
-4.90484
0
LINE
8
BLACK
6
CONTINUOUS
10
1.63539
20
-4.90484
11
1.6342
21
-4.90582
0
LINE
8
BLACK
6
CONTINUOUS
10
1.6342
20
-4.90582
11
1.63284
21
-4.90655
0
LINE
8
BLACK
6
CONTINUOUS
10
1.63284
20
-4.90655
11
1.63136
21
-4.907
0
LINE
8
BLACK
6
CONTINUOUS
10
1.63136
20
-4.907
11
1.62983
21
-4.90715
0
LINE
8
BLACK
6
CONTINUOUS
10
1.62983
20
-4.90715
11
1.60817
21
-4.90715
0
LINE
8
BLACK
6
CONTINUOUS
10
1.60817
20
-4.90715
11
1.60664
21
-4.907
0
LINE
8
BLACK
6
CONTINUOUS
10
1.60664
20
-4.907
11
1.60516
21
-4.90655
0
LINE
8
BLACK
6
CONTINUOUS
10
1.60516
20
-4.90655
11
1.6038
21
-4.90582
0
LINE
8
BLACK
6
CONTINUOUS
10
1.6038
20
-4.90582
11
1.60261
21
-4.90484
0
LINE
8
BLACK
6
CONTINUOUS
10
1.60261
20
-4.90484
11
1.60163
21
-4.90365
0
LINE
8
BLACK
6
CONTINUOUS
10
1.60163
20
-4.90365
11
1.6009
21
-4.90229
0
LINE
8
BLACK
6
CONTINUOUS
10
1.6009
20
-4.90229
11
1.60045
21
-4.90081
0
LINE
8
BLACK
6
CONTINUOUS
10
1.60045
20
-4.90081
11
1.6003
21
-4.89927
0
LINE
8
BLACK
6
CONTINUOUS
10
1.6003
20
-4.89927
11
1.6003
21
-4.88353
0
LINE
8
BLACK
6
CONTINUOUS
10
1.6003
20
-4.88353
11
1.60045
21
-4.88199
0
LINE
8
BLACK
6
CONTINUOUS
10
1.60045
20
-4.88199
11
1.6009
21
-4.88051
0
LINE
8
BLACK
6
CONTINUOUS
10
1.6009
20
-4.88051
11
1.60163
21
-4.87915
0
LINE
8
BLACK
6
CONTINUOUS
10
1.60163
20
-4.87915
11
1.60261
21
-4.87796
0
LINE
8
BLACK
6
CONTINUOUS
10
1.60261
20
-4.87796
11
1.6038
21
-4.87698
0
LINE
8
BLACK
6
CONTINUOUS
10
1.6038
20
-4.87698
11
1.60516
21
-4.87625
0
LINE
8
BLACK
6
CONTINUOUS
10
1.60516
20
-4.87625
11
1.60664
21
-4.8758
0
LINE
8
BLACK
6
CONTINUOUS
10
1.60664
20
-4.8758
11
1.60817
21
-4.87565
0
LINE
8
BLACK
6
CONTINUOUS
10
1.60817
20
-4.87565
11
1.62983
21
-4.87565
0
LINE
8
BLACK
6
CONTINUOUS
10
1.62983
20
-4.87565
11
1.63136
21
-4.8758
0
LINE
8
BLACK
6
CONTINUOUS
10
1.51128
20
-4.90136
11
1.48372
21
-4.90136
0
LINE
8
BLACK
6
CONTINUOUS
10
1.48372
20
-4.90136
11
1.48372
21
-4.88364
0
LINE
8
BLACK
6
CONTINUOUS
10
1.48372
20
-4.88364
11
1.51128
21
-4.88364
0
LINE
8
BLACK
6
CONTINUOUS
10
1.51128
20
-4.88364
11
1.51128
21
-4.90136
0
LINE
8
BLACK
6
CONTINUOUS
10
1.43254
20
-4.87577
11
1.40498
21
-4.87577
0
LINE
8
BLACK
6
CONTINUOUS
10
1.40498
20
-4.87577
11
1.40498
21
-4.85805
0
LINE
8
BLACK
6
CONTINUOUS
10
1.40498
20
-4.85805
11
1.43254
21
-4.85805
0
LINE
8
BLACK
6
CONTINUOUS
10
1.43254
20
-4.85805
11
1.43254
21
-4.87577
0
LINE
8
BLACK
6
CONTINUOUS
10
1.26236
20
-4.82694
11
1.26384
21
-4.82739
0
LINE
8
BLACK
6
CONTINUOUS
10
1.26384
20
-4.82739
11
1.2652
21
-4.82812
0
LINE
8
BLACK
6
CONTINUOUS
10
1.2652
20
-4.82812
11
1.26639
21
-4.8291
0
LINE
8
BLACK
6
CONTINUOUS
10
1.26639
20
-4.8291
11
1.26737
21
-4.83029
0
LINE
8
BLACK
6
CONTINUOUS
10
1.26737
20
-4.83029
11
1.2681
21
-4.83165
0
LINE
8
BLACK
6
CONTINUOUS
10
1.2681
20
-4.83165
11
1.26855
21
-4.83313
0
LINE
8
BLACK
6
CONTINUOUS
10
1.26855
20
-4.83313
11
1.2687
21
-4.83467
0
LINE
8
BLACK
6
CONTINUOUS
10
1.2687
20
-4.83467
11
1.2687
21
-4.85041
0
LINE
8
BLACK
6
CONTINUOUS
10
1.2687
20
-4.85041
11
1.26855
21
-4.85195
0
LINE
8
BLACK
6
CONTINUOUS
10
1.26855
20
-4.85195
11
1.2681
21
-4.85343
0
LINE
8
BLACK
6
CONTINUOUS
10
1.2681
20
-4.85343
11
1.26737
21
-4.85479
0
LINE
8
BLACK
6
CONTINUOUS
10
1.26737
20
-4.85479
11
1.26639
21
-4.85598
0
LINE
8
BLACK
6
CONTINUOUS
10
1.26639
20
-4.85598
11
1.2652
21
-4.85696
0
LINE
8
BLACK
6
CONTINUOUS
10
1.2652
20
-4.85696
11
1.26384
21
-4.85769
0
LINE
8
BLACK
6
CONTINUOUS
10
1.26384
20
-4.85769
11
1.26236
21
-4.85814
0
LINE
8
BLACK
6
CONTINUOUS
10
1.26236
20
-4.85814
11
1.26083
21
-4.85829
0
LINE
8
BLACK
6
CONTINUOUS
10
1.26083
20
-4.85829
11
1.23917
21
-4.85829
0
LINE
8
BLACK
6
CONTINUOUS
10
1.23917
20
-4.85829
11
1.23764
21
-4.85814
0
LINE
8
BLACK
6
CONTINUOUS
10
1.23764
20
-4.85814
11
1.23616
21
-4.85769
0
LINE
8
BLACK
6
CONTINUOUS
10
1.23616
20
-4.85769
11
1.2348
21
-4.85696
0
LINE
8
BLACK
6
CONTINUOUS
10
1.2348
20
-4.85696
11
1.23361
21
-4.85598
0
LINE
8
BLACK
6
CONTINUOUS
10
1.23361
20
-4.85598
11
1.23263
21
-4.85479
0
LINE
8
BLACK
6
CONTINUOUS
10
1.23263
20
-4.85479
11
1.2319
21
-4.85343
0
LINE
8
BLACK
6
CONTINUOUS
10
1.2319
20
-4.85343
11
1.23145
21
-4.85195
0
LINE
8
BLACK
6
CONTINUOUS
10
1.23145
20
-4.85195
11
1.2313
21
-4.85041
0
LINE
8
BLACK
6
CONTINUOUS
10
1.2313
20
-4.85041
11
1.2313
21
-4.83467
0
LINE
8
BLACK
6
CONTINUOUS
10
1.2313
20
-4.83467
11
1.23145
21
-4.83313
0
LINE
8
BLACK
6
CONTINUOUS
10
1.23145
20
-4.83313
11
1.2319
21
-4.83165
0
LINE
8
BLACK
6
CONTINUOUS
10
1.2319
20
-4.83165
11
1.23263
21
-4.83029
0
LINE
8
BLACK
6
CONTINUOUS
10
1.23263
20
-4.83029
11
1.23361
21
-4.8291
0
LINE
8
BLACK
6
CONTINUOUS
10
1.23361
20
-4.8291
11
1.2348
21
-4.82812
0
LINE
8
BLACK
6
CONTINUOUS
10
1.2348
20
-4.82812
11
1.23616
21
-4.82739
0
LINE
8
BLACK
6
CONTINUOUS
10
1.23616
20
-4.82739
11
1.23764
21
-4.82694
0
LINE
8
BLACK
6
CONTINUOUS
10
1.23764
20
-4.82694
11
1.23917
21
-4.82679
0
LINE
8
BLACK
6
CONTINUOUS
10
1.23917
20
-4.82679
11
1.26083
21
-4.82679
0
LINE
8
BLACK
6
CONTINUOUS
10
1.26083
20
-4.82679
11
1.26236
21
-4.82694
0
LINE
8
BLACK
6
CONTINUOUS
10
1.63136
20
-4.81084
11
1.63284
21
-4.81129
0
LINE
8
BLACK
6
CONTINUOUS
10
1.63284
20
-4.81129
11
1.6342
21
-4.81202
0
LINE
8
BLACK
6
CONTINUOUS
10
1.6342
20
-4.81202
11
1.63539
21
-4.813
0
LINE
8
BLACK
6
CONTINUOUS
10
1.63539
20
-4.813
11
1.63637
21
-4.81419
0
LINE
8
BLACK
6
CONTINUOUS
10
1.63637
20
-4.81419
11
1.6371
21
-4.81555
0
LINE
8
BLACK
6
CONTINUOUS
10
1.6371
20
-4.81555
11
1.63755
21
-4.81703
0
LINE
8
BLACK
6
CONTINUOUS
10
1.63755
20
-4.81703
11
1.6377
21
-4.81857
0
LINE
8
BLACK
6
CONTINUOUS
10
1.6377
20
-4.81857
11
1.6377
21
-4.83431
0
LINE
8
BLACK
6
CONTINUOUS
10
1.6377
20
-4.83431
11
1.63755
21
-4.83585
0
LINE
8
BLACK
6
CONTINUOUS
10
1.63755
20
-4.83585
11
1.6371
21
-4.83733
0
LINE
8
BLACK
6
CONTINUOUS
10
1.6371
20
-4.83733
11
1.63637
21
-4.83869
0
LINE
8
BLACK
6
CONTINUOUS
10
1.63637
20
-4.83869
11
1.63539
21
-4.83988
0
LINE
8
BLACK
6
CONTINUOUS
10
1.63539
20
-4.83988
11
1.6342
21
-4.84086
0
LINE
8
BLACK
6
CONTINUOUS
10
1.6342
20
-4.84086
11
1.63284
21
-4.84159
0
LINE
8
BLACK
6
CONTINUOUS
10
1.63284
20
-4.84159
11
1.63136
21
-4.84204
0
LINE
8
BLACK
6
CONTINUOUS
10
1.63136
20
-4.84204
11
1.62983
21
-4.84219
0
LINE
8
BLACK
6
CONTINUOUS
10
1.62983
20
-4.84219
11
1.60817
21
-4.84219
0
LINE
8
BLACK
6
CONTINUOUS
10
1.60817
20
-4.84219
11
1.60664
21
-4.84204
0
LINE
8
BLACK
6
CONTINUOUS
10
1.60664
20
-4.84204
11
1.60516
21
-4.84159
0
LINE
8
BLACK
6
CONTINUOUS
10
1.60516
20
-4.84159
11
1.6038
21
-4.84086
0
LINE
8
BLACK
6
CONTINUOUS
10
1.6038
20
-4.84086
11
1.60261
21
-4.83988
0
LINE
8
BLACK
6
CONTINUOUS
10
1.60261
20
-4.83988
11
1.60163
21
-4.83869
0
LINE
8
BLACK
6
CONTINUOUS
10
1.60163
20
-4.83869
11
1.6009
21
-4.83733
0
LINE
8
BLACK
6
CONTINUOUS
10
1.6009
20
-4.83733
11
1.60045
21
-4.83585
0
LINE
8
BLACK
6
CONTINUOUS
10
1.60045
20
-4.83585
11
1.6003
21
-4.83431
0
LINE
8
BLACK
6
CONTINUOUS
10
1.6003
20
-4.83431
11
1.6003
21
-4.81857
0
LINE
8
BLACK
6
CONTINUOUS
10
1.6003
20
-4.81857
11
1.60045
21
-4.81703
0
LINE
8
BLACK
6
CONTINUOUS
10
1.60045
20
-4.81703
11
1.6009
21
-4.81555
0
LINE
8
BLACK
6
CONTINUOUS
10
1.6009
20
-4.81555
11
1.60163
21
-4.81419
0
LINE
8
BLACK
6
CONTINUOUS
10
1.60163
20
-4.81419
11
1.60261
21
-4.813
0
LINE
8
BLACK
6
CONTINUOUS
10
1.60261
20
-4.813
11
1.6038
21
-4.81202
0
LINE
8
BLACK
6
CONTINUOUS
10
1.6038
20
-4.81202
11
1.60516
21
-4.81129
0
LINE
8
BLACK
6
CONTINUOUS
10
1.60516
20
-4.81129
11
1.60664
21
-4.81084
0
LINE
8
BLACK
6
CONTINUOUS
10
1.60664
20
-4.81084
11
1.60817
21
-4.81069
0
LINE
8
BLACK
6
CONTINUOUS
10
1.60817
20
-4.81069
11
1.62983
21
-4.81069
0
LINE
8
BLACK
6
CONTINUOUS
10
1.62983
20
-4.81069
11
1.63136
21
-4.81084
  0
ENDSEC
  0
EOF
